SplineFontDB: 3.0
FontName: LiberationSerif-Italic
FullName: Liberation Serif Italic
FamilyName: Liberation Serif
Weight: Book
Copyright: Digitized data © 2007 Ascender Corporation. All rights reserved.
Version: 1.04
ItalicAngle: -16.333
UnderlinePosition: -273
UnderlineWidth: 100
Ascent: 1638
Descent: 410
LayerCount: 2
Layer: 0 1 "Back" 
Layer: 1 1 "Fore" 
NeedsXUIDChange: 1
XUID: [1021 682 1963032581 5327889]
FSType: 8
OS2Version: 3
OS2_WeightWidthSlopeOnly: 0
OS2_UseTypoMetrics: 1
CreationTime: 1123398000
ModificationTime: 1213252729
PfmFamily: 17
TTFWeight: 400
TTFWidth: 5
LineGap: 87
VLineGap: 0
Panose: 2 2 5 3 5 4 5 9 3 4
OS2TypoAscent: -216
OS2TypoAOffset: 1
OS2TypoDescent: -32
OS2TypoDOffset: 1
OS2TypoLinegap: 307
OS2WinAscent: -184
OS2WinAOffset: 1
OS2WinDescent: -178
OS2WinDOffset: 1
HheadAscent: -184
HheadAOffset: 1
HheadDescent: 178
HheadDOffset: 1
OS2SubXSize: 1434
OS2SubYSize: 1331
OS2SubXOff: 44
OS2SubYOff: 293
OS2SupXSize: 1434
OS2SupYSize: 1331
OS2SupXOff: 76
OS2SupYOff: 928
OS2StrikeYSize: 102
OS2StrikeYPos: 530
OS2FamilyClass: 261
OS2Vendor: '1ASC'
OS2CodePages: 6000009f.dfd70000
OS2UnicodeRanges: a00002af.500078fb.00000000.00000000
Lookup: 258 0 0 "'kern' Horizontal Kerning lookup 0"  {"'kern' Horizontal Kerning lookup 0 subtable"  } ['kern' ('DFLT' <'dflt' > 'cyrl' <'dflt' > 'grek' <'dflt' > 'latn' <'dflt' > ) ]
DEI: 0
TtTable: prep
PUSHW_8
 80
 263
 1
 47
 263
 1
 175
 260
NPUSHB
 17
 1
 208
 253
 1
 191
 253
 1
 16
 253
 1
 111
 251
 1
 64
 251
 1
 248
PUSHW_1
 271
NPUSHB
 18
 41
 31
 247
 27
 255
 31
 246
 80
 40
 31
 245
 80
 60
 31
 241
 240
 60
 31
PUSHW_2
 275
 274
NPUSHB
 132
 60
 31
 238
 237
 60
 31
 236
 71
 255
 31
 232
 80
 41
 31
 231
 80
 41
 31
 230
 228
 60
 31
 229
 80
 53
 31
 228
 80
 53
 31
 225
 180
 51
 31
 224
 180
 26
 31
 234
 233
 51
 31
 223
 221
 51
 31
 222
 3
 51
 31
 47
 233
 95
 233
 127
 233
 175
 233
 4
 15
 233
 95
 233
 175
 233
 255
 233
 4
 9
 0
 221
 1
 60
 47
 221
 63
 221
 127
 221
 191
 221
 4
 47
 221

StartChar: exclam
Encoding: 33 33 4
Width: 682
GlyphClass: 2
Flags: W
LayerCount: 2
Fore
SplineSet
400 92 m 256,0,1
 400 67 400 67 390.5 45 c 128,-1,2
 381 23 381 23 365 6.5 c 128,-1,3
 349 -10 349 -10 326.5 -19.5 c 128,-1,4
 304 -29 304 -29 279 -29 c 0,5,6
 253 -29 253 -29 231 -19.5 c 128,-1,7
 209 -10 209 -10 193 6.5 c 128,-1,8
 177 23 177 23 167.5 45 c 128,-1,9
 158 67 158 67 158 92 c 256,10,11
 158 117 158 117 167.5 139.5 c 128,-1,12
 177 162 177 162 193 178 c 128,-1,13
 209 194 209 194 231 203.5 c 128,-1,14
 253 213 253 213 279 213 c 0,15,16
 304 213 304 213 326.5 203.5 c 128,-1,17
 349 194 349 194 365 178 c 128,-1,18
 381 162 381 162 390.5 139.5 c 128,-1,19
 400 117 400 117 400 92 c 256,0,1
374 1341 m 1,20,-1
 592 1341 l 1,21,-1
 363 389 l 1,22,-1
 269 389 l 1,23,-1
 374 1341 l 1,20,-1
EndSplineSet
EndChar

StartChar: quotedbl
Encoding: 34 34 5
Width: 860
GlyphClass: 2
Flags: W
LayerCount: 2
Fore
SplineSet
670 1341 m 1,0,-1
 867 1341 l 1,1,-1
 720 860 l 1,2,-1
 646 860 l 1,3,-1
 670 1341 l 1,0,-1
285 1341 m 1,4,-1
 482 1341 l 1,5,-1
 335 860 l 1,6,-1
 261 860 l 1,7,-1
 285 1341 l 1,4,-1
EndSplineSet
EndChar

StartChar: numbersign
Encoding: 35 35 6
Width: 1024
GlyphClass: 2
Flags: W
LayerCount: 2
Fore
SplineSet
984 524 m 1,0,-1
 966 421 l 1,1,-1
 706 421 l 1,2,-1
 553 0 l 1,3,-1
 449 0 l 1,4,-1
 602 421 l 1,5,-1
 292 421 l 1,6,-1
 140 0 l 1,7,-1
 35 0 l 1,8,-1
 188 421 l 1,9,-1
 17 421 l 1,10,-1
 34 524 l 1,11,-1
 226 524 l 1,12,-1
 338 831 l 1,13,-1
 88 831 l 1,14,-1
 106 934 l 1,15,-1
 374 934 l 1,16,-1
 522 1341 l 1,17,-1
 626 1341 l 1,18,-1
 479 934 l 1,19,-1
 788 934 l 1,20,-1
 936 1341 l 1,21,-1
 1040 1341 l 1,22,-1
 892 934 l 1,23,-1
 1056 934 l 1,24,-1
 1038 831 l 1,25,-1
 856 831 l 1,26,-1
 745 524 l 1,27,-1
 984 524 l 1,0,-1
331 524 m 1,28,-1
 640 524 l 1,29,-1
 751 831 l 1,30,-1
 442 831 l 1,31,-1
 331 524 l 1,28,-1
EndSplineSet
EndChar

StartChar: dollar
Encoding: 36 36 7
Width: 1024
GlyphClass: 2
Flags: W
LayerCount: 2
Fore
SplineSet
76 371 m 1,0,-1
 141 371 l 1,1,-1
 142 180 l 1,2,3
 158 157 158 157 184 135.5 c 128,-1,4
 210 114 210 114 243.5 98 c 128,-1,5
 277 82 277 82 318 72 c 128,-1,6
 359 62 359 62 404 61 c 1,7,-1
 506 638 l 1,8,9
 452 665 452 665 397 696 c 128,-1,10
 342 727 342 727 298.5 767.5 c 128,-1,11
 255 808 255 808 227.5 862 c 128,-1,12
 200 916 200 916 200 990 c 0,13,14
 200 1081 200 1081 230 1148.5 c 128,-1,15
 260 1216 260 1216 315.5 1260.5 c 128,-1,16
 371 1305 371 1305 451 1328.5 c 128,-1,17
 531 1352 531 1352 632 1355 c 1,18,-1
 655 1483 l 1,19,-1
 737 1483 l 1,20,-1
 714 1355 l 1,21,22
 796 1353 796 1353 863.5 1343 c 128,-1,23
 931 1333 931 1333 991 1318 c 1,24,-1
 942 1039 l 1,25,-1
 877 1039 l 1,26,-1
 872 1210 l 1,27,28
 845 1232 845 1232 800.5 1248.5 c 128,-1,29
 756 1265 756 1265 699 1270 c 1,30,-1
 614 787 l 1,31,32
 668 758 668 758 726 724 c 128,-1,33
 784 690 784 690 831.5 645.5 c 128,-1,34
 879 601 879 601 909.5 544.5 c 128,-1,35
 940 488 940 488 940 414 c 0,36,37
 940 219 940 219 822.5 107.5 c 128,-1,38
 705 -4 705 -4 472 -18 c 1,39,-1
 448 -156 l 1,40,-1
 366 -156 l 1,41,-1
 390 -20 l 1,42,43
 271 -18 271 -18 179 7.5 c 128,-1,44
 87 33 87 33 24 73 c 1,45,-1
 76 371 l 1,0,-1
762 379 m 0,46,47
 762 423 762 423 748 456 c 128,-1,48
 734 489 734 489 709.5 515 c 128,-1,49
 685 541 685 541 652 561.5 c 128,-1,50
 619 582 619 582 582 601 c 1,51,-1
 487 66 l 1,52,53
 622 83 622 83 692 163.5 c 128,-1,54
 762 244 762 244 762 379 c 0,46,47
375 1025 m 0,55,56
 375 988 375 988 387.5 958.5 c 128,-1,57
 400 929 400 929 422 905 c 128,-1,58
 444 881 444 881 473.5 861 c 128,-1,59
 503 841 503 841 538 823 c 1,60,-1
 617 1270 l 1,61,62
 553 1265 553 1265 507.5 1244.5 c 128,-1,63
 462 1224 462 1224 432.5 1191.5 c 128,-1,64
 403 1159 403 1159 389 1116.5 c 128,-1,65
 375 1074 375 1074 375 1025 c 0,55,56
EndSplineSet
EndChar

StartChar: percent
Encoding: 37 37 8
Width: 1706
GlyphClass: 2
Flags: W
LayerCount: 2
Fore
SplineSet
318 -20 m 1,0,-1
 208 -20 l 1,1,-1
 1400 1362 l 1,2,-1
 1511 1362 l 1,3,-1
 318 -20 l 1,0,-1
778 995 m 0,4,5
 746 816 746 816 649 719.5 c 128,-1,6
 552 623 552 623 383 623 c 0,7,8
 249 623 249 623 183 690 c 128,-1,9
 117 757 117 757 117 885 c 0,10,11
 117 911 117 911 119.5 938 c 128,-1,12
 122 965 122 965 127 995 c 0,13,14
 159 1175 159 1175 255.5 1268.5 c 128,-1,15
 352 1362 352 1362 519 1362 c 0,16,17
 653 1362 653 1362 721 1297 c 128,-1,18
 789 1232 789 1232 789 1103 c 0,19,20
 789 1056 789 1056 778 995 c 0,4,5
622 995 m 0,21,22
 635 1066 635 1066 635 1124 c 0,23,24
 635 1204 635 1204 604 1246 c 128,-1,25
 573 1288 573 1288 500 1288 c 0,26,27
 451 1288 451 1288 415.5 1268.5 c 128,-1,28
 380 1249 380 1249 354.5 1211.5 c 128,-1,29
 329 1174 329 1174 311.5 1119.5 c 128,-1,30
 294 1065 294 1065 282 995 c 0,31,32
 275 954 275 954 271 919 c 128,-1,33
 267 884 267 884 267 854 c 0,34,35
 267 778 267 778 296 737 c 128,-1,36
 325 696 325 696 395 696 c 0,37,38
 444 696 444 696 481 716.5 c 128,-1,39
 518 737 518 737 545 775 c 128,-1,40
 572 813 572 813 591 868.5 c 128,-1,41
 610 924 610 924 622 995 c 0,21,22
1579 346 m 0,42,43
 1547 166 1547 166 1450 69.5 c 128,-1,44
 1353 -27 1353 -27 1184 -27 c 0,45,46
 1050 -27 1050 -27 983.5 39.5 c 128,-1,47
 917 106 917 106 917 234 c 0,48,49
 917 260 917 260 920 288 c 128,-1,50
 923 316 923 316 928 346 c 0,51,52
 960 526 960 526 1056.5 619.5 c 128,-1,53
 1153 713 1153 713 1320 713 c 0,54,55
 1454 713 1454 713 1521.5 648 c 128,-1,56
 1589 583 1589 583 1589 453 c 0,57,58
 1589 429 1589 429 1586.5 402 c 128,-1,59
 1584 375 1584 375 1579 346 c 0,42,43
1424 346 m 0,60,61
 1431 382 1431 382 1434 413.5 c 128,-1,62
 1437 445 1437 445 1437 473 c 0,63,64
 1437 554 1437 554 1405.5 596.5 c 128,-1,65
 1374 639 1374 639 1301 639 c 0,66,67
 1252 639 1252 639 1216.5 619.5 c 128,-1,68
 1181 600 1181 600 1155.5 562.5 c 128,-1,69
 1130 525 1130 525 1113 470.5 c 128,-1,70
 1096 416 1096 416 1084 346 c 0,71,72
 1077 305 1077 305 1073 270 c 128,-1,73
 1069 235 1069 235 1069 205 c 0,74,75
 1069 129 1069 129 1098 88 c 128,-1,76
 1127 47 1127 47 1197 47 c 0,77,78
 1246 47 1246 47 1283 67.5 c 128,-1,79
 1320 88 1320 88 1347 126 c 128,-1,80
 1374 164 1374 164 1393 219.5 c 128,-1,81
 1412 275 1412 275 1424 346 c 0,60,61
EndSplineSet
EndChar

StartChar: ampersand
Encoding: 38 38 9
Width: 1593
GlyphClass: 2
Flags: W
LayerCount: 2
Fore
SplineSet
1120 1102 m 0,0,1
 1120 1024 1120 1024 1085 970 c 128,-1,2
 1050 916 1050 916 994 877.5 c 128,-1,3
 938 839 938 839 867.5 811 c 128,-1,4
 797 783 797 783 727 758 c 1,5,-1
 1071 356 l 1,6,7
 1143 453 1143 453 1189.5 544.5 c 128,-1,8
 1236 636 1236 636 1256 727 c 1,9,-1
 1119 754 l 1,10,-1
 1128 807 l 1,11,-1
 1585 807 l 1,12,-1
 1576 754 l 1,13,-1
 1432 727 l 1,14,15
 1412 682 1412 682 1384 626 c 128,-1,16
 1356 570 1356 570 1319 509.5 c 128,-1,17
 1282 449 1282 449 1237.5 388 c 128,-1,18
 1193 327 1193 327 1142 272 c 1,19,-1
 1310 78 l 1,20,-1
 1472 54 l 1,21,-1
 1462 0 l 1,22,-1
 1118 0 l 1,23,-1
 1005 137 l 1,24,25
 962 105 962 105 916 77 c 128,-1,26
 870 49 870 49 815.5 27 c 128,-1,27
 761 5 761 5 695.5 -7.5 c 128,-1,28
 630 -20 630 -20 548 -20 c 0,29,30
 428 -20 428 -20 341 6.5 c 128,-1,31
 254 33 254 33 197.5 80.5 c 128,-1,32
 141 128 141 128 114 194 c 128,-1,33
 87 260 87 260 87 340 c 0,34,35
 87 405 87 405 105 457 c 128,-1,36
 123 509 123 509 154 550.5 c 128,-1,37
 185 592 185 592 225.5 623.5 c 128,-1,38
 266 655 266 655 310.5 679.5 c 128,-1,39
 355 704 355 704 401 722.5 c 128,-1,40
 447 741 447 741 489 756 c 1,41,42
 470 783 470 783 450.5 813.5 c 128,-1,43
 431 844 431 844 415.5 879 c 128,-1,44
 400 914 400 914 390.5 953 c 128,-1,45
 381 992 381 992 381 1037 c 0,46,47
 381 1110 381 1110 407.5 1170 c 128,-1,48
 434 1230 434 1230 483.5 1273 c 128,-1,49
 533 1316 533 1316 605 1339 c 128,-1,50
 677 1362 677 1362 768 1362 c 0,51,52
 863 1362 863 1362 930 1339.5 c 128,-1,53
 997 1317 997 1317 1039 1280 c 128,-1,54
 1081 1243 1081 1243 1100.5 1196.5 c 128,-1,55
 1120 1150 1120 1150 1120 1102 c 0,0,1
538 687 m 1,56,57
 493 668 493 668 448 641 c 128,-1,58
 403 614 403 614 366.5 573.5 c 128,-1,59
 330 533 330 533 307.5 476.5 c 128,-1,60
 285 420 285 420 285 343 c 0,61,62
 285 280 285 280 303.5 229 c 128,-1,63
 322 178 322 178 358 141.5 c 128,-1,64
 394 105 394 105 447 85.5 c 128,-1,65
 500 66 500 66 568 66 c 0,66,67
 622 66 622 66 673.5 77.5 c 128,-1,68
 725 89 725 89 771.5 109.5 c 128,-1,69
 818 130 818 130 859.5 158 c 128,-1,70
 901 186 901 186 936 219 c 1,71,-1
 538 687 l 1,56,57
561 1071 m 0,72,73
 561 1008 561 1008 591.5 948.5 c 128,-1,74
 622 889 622 889 673 823 c 1,75,76
 732 845 732 845 783.5 867.5 c 128,-1,77
 835 890 835 890 872.5 920 c 128,-1,78
 910 950 910 950 931.5 991 c 128,-1,79
 953 1032 953 1032 953 1090 c 0,80,81
 953 1182 953 1182 903 1232 c 128,-1,82
 853 1282 853 1282 768 1282 c 0,83,84
 663 1282 663 1282 612 1225 c 128,-1,85
 561 1168 561 1168 561 1071 c 0,72,73
EndSplineSet
EndChar

StartChar: quotesingle
Encoding: 39 39 10
Width: 438
GlyphClass: 2
Flags: W
LayerCount: 2
Fore
SplineSet
269 1341 m 1,0,-1
 466 1341 l 1,1,-1
 319 860 l 1,2,-1
 245 860 l 1,3,-1
 269 1341 l 1,0,-1
EndSplineSet
EndChar

StartChar: parenleft
Encoding: 40 40 11
Width: 682
GlyphClass: 2
Flags: W
LayerCount: 2
Fore
SplineSet
251 131 m 0,0,1
 251 56 251 56 262 -13 c 128,-1,2
 273 -82 273 -82 299 -143.5 c 128,-1,3
 325 -205 325 -205 368 -258 c 128,-1,4
 411 -311 411 -311 475 -352 c 1,5,-1
 460 -436 l 1,6,7
 364 -380 364 -380 291.5 -316 c 128,-1,8
 219 -252 219 -252 170.5 -174 c 128,-1,9
 122 -96 122 -96 97 -1 c 128,-1,10
 72 94 72 94 72 213 c 0,11,12
 72 279 72 279 78 347.5 c 128,-1,13
 84 416 84 416 98 494 c 0,14,15
 131 683 131 683 188 824.5 c 128,-1,16
 245 966 245 966 329.5 1075 c 128,-1,17
 414 1184 414 1184 527.5 1267 c 128,-1,18
 641 1350 641 1350 787 1421 c 1,19,-1
 772 1337 l 1,20,21
 648 1272 648 1272 565.5 1179.5 c 128,-1,22
 483 1087 483 1087 429.5 976.5 c 128,-1,23
 376 866 376 866 344.5 743 c 128,-1,24
 313 620 313 620 291 494 c 0,25,26
 274 400 274 400 262.5 309 c 128,-1,27
 251 218 251 218 251 131 c 0,0,1
EndSplineSet
EndChar

StartChar: parenright
Encoding: 41 41 12
Width: 682
GlyphClass: 2
Flags: W
LayerCount: 2
Fore
SplineSet
-97 -436 m 1,0,-1
 -82 -352 l 1,1,2
 42 -287 42 -287 124 -194 c 128,-1,3
 206 -101 206 -101 259.5 9.5 c 128,-1,4
 313 120 313 120 344.5 243.5 c 128,-1,5
 376 367 376 367 399 494 c 0,6,7
 416 587 416 587 427 677.5 c 128,-1,8
 438 768 438 768 438 854 c 0,9,10
 438 929 438 929 427 998 c 128,-1,11
 416 1067 416 1067 390.5 1128.5 c 128,-1,12
 365 1190 365 1190 321.5 1243 c 128,-1,13
 278 1296 278 1296 214 1337 c 1,14,-1
 229 1421 l 1,15,16
 325 1364 325 1364 398 1300.5 c 128,-1,17
 471 1237 471 1237 520 1159.5 c 128,-1,18
 569 1082 569 1082 594 987 c 128,-1,19
 619 892 619 892 619 772 c 0,20,21
 619 650 619 650 592 494 c 0,22,23
 559 305 559 305 501.5 163 c 128,-1,24
 444 21 444 21 359.5 -88.5 c 128,-1,25
 275 -198 275 -198 161.5 -281.5 c 128,-1,26
 48 -365 48 -365 -97 -436 c 1,0,-1
EndSplineSet
EndChar

StartChar: asterisk
Encoding: 42 42 13
Width: 1024
GlyphClass: 2
Flags: W
LayerCount: 2
Fore
SplineSet
197 1065 m 1,0,-1
 261 1208 l 1,1,-1
 576 1014 l 1,2,-1
 533 1341 l 1,3,-1
 689 1341 l 1,4,-1
 642 1014 l 1,5,-1
 959 1204 l 1,6,-1
 1023 1063 l 1,7,-1
 691 965 l 1,8,-1
 1023 868 l 1,9,-1
 959 727 l 1,10,-1
 642 915 l 1,11,-1
 689 590 l 1,12,-1
 533 590 l 1,13,-1
 576 918 l 1,14,-1
 261 723 l 1,15,-1
 197 866 l 1,16,-1
 525 965 l 1,17,-1
 197 1065 l 1,0,-1
EndSplineSet
EndChar

StartChar: plus
Encoding: 43 43 14
Width: 1382
GlyphClass: 2
Flags: W
LayerCount: 2
Fore
SplineSet
760 629 m 1,0,-1
 760 203 l 1,1,-1
 657 203 l 1,2,-1
 657 629 l 1,3,-1
 233 629 l 1,4,-1
 233 731 l 1,5,-1
 657 731 l 1,6,-1
 657 1157 l 1,7,-1
 760 1157 l 1,8,-1
 760 731 l 1,9,-1
 1186 731 l 1,10,-1
 1186 629 l 1,11,-1
 760 629 l 1,0,-1
EndSplineSet
EndChar

StartChar: comma
Encoding: 44 44 15
Width: 512
GlyphClass: 2
Flags: W
LayerCount: 2
Fore
SplineSet
383 42 m 0,0,1
 383 -17 383 -17 365 -71 c 128,-1,2
 347 -125 347 -125 308.5 -171 c 128,-1,3
 270 -217 270 -217 210.5 -254 c 128,-1,4
 151 -291 151 -291 68 -315 c 1,5,-1
 68 -238 l 1,6,7
 159 -209 159 -209 206.5 -167 c 128,-1,8
 254 -125 254 -125 254 -70 c 0,9,10
 254 -42 254 -42 234.5 -28 c 128,-1,11
 215 -14 215 -14 191.5 0.5 c 128,-1,12
 168 15 168 15 148.5 36.5 c 128,-1,13
 129 58 129 58 129 100 c 0,14,15
 129 154 129 154 163 182.5 c 128,-1,16
 197 211 197 211 250 211 c 0,17,18
 278 211 278 211 302.5 200.5 c 128,-1,19
 327 190 327 190 345 169 c 128,-1,20
 363 148 363 148 373 116 c 128,-1,21
 383 84 383 84 383 42 c 0,0,1
EndSplineSet
EndChar

StartChar: hyphen
Encoding: 45 45 16
AltUni2: 0000ad.ffffffff.0
Width: 682
GlyphClass: 2
Flags: W
LayerCount: 2
Fore
SplineSet
76 406 m 1,0,-1
 76 559 l 1,1,-1
 608 559 l 1,2,-1
 608 406 l 1,3,-1
 76 406 l 1,0,-1
EndSplineSet
EndChar

StartChar: period
Encoding: 46 46 17
Width: 512
GlyphClass: 2
Flags: W
LayerCount: 2
Fore
SplineSet
327 92 m 256,0,1
 327 67 327 67 317.5 45 c 128,-1,2
 308 23 308 23 292 6.5 c 128,-1,3
 276 -10 276 -10 253.5 -19.5 c 128,-1,4
 231 -29 231 -29 206 -29 c 0,5,6
 180 -29 180 -29 158 -19.5 c 128,-1,7
 136 -10 136 -10 120 6.5 c 128,-1,8
 104 23 104 23 94.5 45 c 128,-1,9
 85 67 85 67 85 92 c 256,10,11
 85 117 85 117 94.5 139.5 c 128,-1,12
 104 162 104 162 120 178 c 128,-1,13
 136 194 136 194 158 203.5 c 128,-1,14
 180 213 180 213 206 213 c 0,15,16
 231 213 231 213 253.5 203.5 c 128,-1,17
 276 194 276 194 292 178 c 128,-1,18
 308 162 308 162 317.5 139.5 c 128,-1,19
 327 117 327 117 327 92 c 256,0,1
EndSplineSet
EndChar

StartChar: slash
Encoding: 47 47 18
Width: 569
GlyphClass: 2
Flags: W
LayerCount: 2
Fore
SplineSet
16 -20 m 1,0,-1
 -94 -20 l 1,1,-1
 617 1350 l 1,2,-1
 725 1350 l 1,3,-1
 16 -20 l 1,0,-1
EndSplineSet
EndChar

StartChar: zero
Encoding: 48 48 19
Width: 1024
GlyphClass: 2
Flags: W
LayerCount: 2
Fore
SplineSet
972 676 m 0,0,1
 942 508 942 508 894.5 378 c 128,-1,2
 847 248 847 248 779 159.5 c 128,-1,3
 711 71 711 71 621.5 25.5 c 128,-1,4
 532 -20 532 -20 419 -20 c 0,5,6
 253 -20 253 -20 166 83.5 c 128,-1,7
 79 187 79 187 79 399 c 0,8,9
 79 458 79 458 85 529.5 c 128,-1,10
 91 601 91 601 104 676 c 0,11,12
 134 842 134 842 182 970 c 128,-1,13
 230 1098 230 1098 298 1185 c 128,-1,14
 366 1272 366 1272 454 1317 c 128,-1,15
 542 1362 542 1362 652 1362 c 0,16,17
 818 1362 818 1362 908 1262 c 128,-1,18
 998 1162 998 1162 998 951 c 0,19,20
 998 893 998 893 991.5 820.5 c 128,-1,21
 985 748 985 748 972 676 c 0,0,1
790 654 m 0,22,23
 798 702 798 702 804.5 749.5 c 128,-1,24
 811 797 811 797 815 841 c 128,-1,25
 819 885 819 885 821 923.5 c 128,-1,26
 823 962 823 962 823 992 c 0,27,28
 823 1060 823 1060 812 1114 c 128,-1,29
 801 1168 801 1168 777.5 1205.5 c 128,-1,30
 754 1243 754 1243 718.5 1262.5 c 128,-1,31
 683 1282 683 1282 634 1282 c 0,32,33
 560 1282 560 1282 505 1241.5 c 128,-1,34
 450 1201 450 1201 408 1124 c 128,-1,35
 366 1047 366 1047 334.5 934 c 128,-1,36
 303 821 303 821 278 677 c 0,37,38
 260 574 260 574 254.5 495 c 128,-1,39
 249 416 249 416 249 345 c 0,40,41
 249 281 249 281 259.5 228 c 128,-1,42
 270 175 270 175 292.5 137.5 c 128,-1,43
 315 100 315 100 349 79.5 c 128,-1,44
 383 59 383 59 431 59 c 0,45,46
 504 59 504 59 560 98 c 128,-1,47
 616 137 616 137 658.5 212.5 c 128,-1,48
 701 288 701 288 732.5 399 c 128,-1,49
 764 510 764 510 790 654 c 0,22,23
EndSplineSet
EndChar

StartChar: one
Encoding: 49 49 20
Width: 1024
GlyphClass: 2
Flags: W
LayerCount: 2
Fore
SplineSet
534 80 m 1,0,-1
 804 53 l 1,1,-1
 794 0 l 1,2,-1
 73 0 l 1,3,-1
 83 53 l 1,4,-1
 362 80 l 1,5,-1
 555 1174 l 1,6,-1
 267 1077 l 1,7,-1
 277 1130 l 1,8,-1
 707 1352 l 1,9,-1
 759 1352 l 1,10,-1
 534 80 l 1,0,-1
EndSplineSet
EndChar

StartChar: two
Encoding: 50 50 21
Width: 1024
GlyphClass: 2
Flags: W
LayerCount: 2
Fore
SplineSet
821 0 m 1,0,-1
 1 0 l 1,1,-1
 27 147 l 1,2,3
 138 230 138 230 239 301.5 c 128,-1,4
 340 373 340 373 426.5 440.5 c 128,-1,5
 513 508 513 508 583 575.5 c 128,-1,6
 653 643 653 643 702.5 718 c 128,-1,7
 752 793 752 793 779 878 c 128,-1,8
 806 963 806 963 806 1067 c 0,9,10
 806 1174 806 1174 748 1223 c 128,-1,11
 690 1272 690 1272 578 1272 c 0,12,13
 548 1272 548 1272 517.5 1267.5 c 128,-1,14
 487 1263 487 1263 458.5 1255.5 c 128,-1,15
 430 1248 430 1248 405 1238.5 c 128,-1,16
 380 1229 380 1229 361 1219 c 1,17,-1
 297 1055 l 1,18,-1
 231 1055 l 1,19,-1
 276 1313 l 1,20,21
 356 1331 356 1331 431.5 1343.5 c 128,-1,22
 507 1356 507 1356 593 1356 c 0,23,24
 690 1356 690 1356 762.5 1335.5 c 128,-1,25
 835 1315 835 1315 883 1277 c 128,-1,26
 931 1239 931 1239 955 1186 c 128,-1,27
 979 1133 979 1133 979 1067 c 0,28,29
 979 971 979 971 949 888.5 c 128,-1,30
 919 806 919 806 865.5 731 c 128,-1,31
 812 656 812 656 737 586.5 c 128,-1,32
 662 517 662 517 571.5 447.5 c 128,-1,33
 481 378 481 378 378 306 c 128,-1,34
 275 234 275 234 166 154 c 1,35,-1
 848 154 l 1,36,-1
 821 0 l 1,0,-1
EndSplineSet
EndChar

StartChar: three
Encoding: 51 51 22
Width: 1024
GlyphClass: 2
Flags: W
LayerCount: 2
Fore
SplineSet
357 -20 m 0,0,1
 308 -20 308 -20 257.5 -15 c 128,-1,2
 207 -10 207 -10 159.5 -1.5 c 128,-1,3
 112 7 112 7 70.5 18 c 128,-1,4
 29 29 29 29 -3 41 c 1,5,-1
 34 323 l 1,6,-1
 100 323 l 1,7,-1
 112 135 l 1,8,9
 130 121 130 121 159 108.5 c 128,-1,10
 188 96 188 96 222 85.5 c 128,-1,11
 256 75 256 75 291.5 69 c 128,-1,12
 327 63 327 63 357 63 c 0,13,14
 454 63 454 63 522 83.5 c 128,-1,15
 590 104 590 104 633 144.5 c 128,-1,16
 676 185 676 185 696 246 c 128,-1,17
 716 307 716 307 716 389 c 0,18,19
 716 513 716 513 647.5 577 c 128,-1,20
 579 641 579 641 447 651 c 2,21,-1
 332 659 l 1,22,-1
 346 741 l 1,23,-1
 491 750 l 2,24,25
 568 755 568 755 621 778 c 128,-1,26
 674 801 674 801 706.5 840 c 128,-1,27
 739 879 739 879 753 932.5 c 128,-1,28
 767 986 767 986 767 1051 c 0,29,30
 767 1161 767 1161 715 1216.5 c 128,-1,31
 663 1272 663 1272 552 1272 c 0,32,33
 522 1272 522 1272 492 1267.5 c 128,-1,34
 462 1263 462 1263 434 1255.5 c 128,-1,35
 406 1248 406 1248 381 1238.5 c 128,-1,36
 356 1229 356 1229 337 1219 c 1,37,-1
 273 1055 l 1,38,-1
 207 1055 l 1,39,-1
 252 1313 l 1,40,41
 286 1322 286 1322 319.5 1330 c 128,-1,42
 353 1338 353 1338 389.5 1344 c 128,-1,43
 426 1350 426 1350 467.5 1353 c 128,-1,44
 509 1356 509 1356 559 1356 c 0,45,46
 654 1356 654 1356 727.5 1335.5 c 128,-1,47
 801 1315 801 1315 851 1277.5 c 128,-1,48
 901 1240 901 1240 927 1186 c 128,-1,49
 953 1132 953 1132 953 1065 c 0,50,51
 953 916 953 916 865.5 822 c 128,-1,52
 778 728 778 728 595 702 c 1,53,54
 664 692 664 692 720 668 c 128,-1,55
 776 644 776 644 815.5 606.5 c 128,-1,56
 855 569 855 569 876 519 c 128,-1,57
 897 469 897 469 897 408 c 0,58,59
 897 302 897 302 855.5 222 c 128,-1,60
 814 142 814 142 741 88 c 128,-1,61
 668 34 668 34 569.5 7 c 128,-1,62
 471 -20 471 -20 357 -20 c 0,0,1
EndSplineSet
EndChar

StartChar: four
Encoding: 52 52 23
Width: 1024
GlyphClass: 2
Flags: W
LayerCount: 2
Fore
SplineSet
754 308 m 1,0,-1
 699 0 l 1,1,-1
 537 0 l 1,2,-1
 592 308 l 1,3,-1
 5 308 l 1,4,-1
 25 428 l 1,5,-1
 776 1348 l 1,6,-1
 936 1348 l 1,7,-1
 776 438 l 1,8,-1
 978 438 l 1,9,-1
 956 308 l 1,10,-1
 754 308 l 1,0,-1
709 979 m 2,11,12
 714 1005 714 1005 721 1039 c 128,-1,13
 728 1073 728 1073 735 1105 c 0,14,15
 743 1142 743 1142 752 1180 c 1,16,-1
 149 438 l 1,17,-1
 614 438 l 1,18,-1
 709 979 l 2,11,12
EndSplineSet
EndChar

StartChar: five
Encoding: 53 53 24
Width: 1024
GlyphClass: 2
Flags: W
LayerCount: 2
Fore
SplineSet
490 784 m 0,0,1
 596 784 596 784 674 761.5 c 128,-1,2
 752 739 752 739 803.5 696 c 128,-1,3
 855 653 855 653 880.5 592 c 128,-1,4
 906 531 906 531 906 454 c 0,5,6
 906 341 906 341 870.5 253 c 128,-1,7
 835 165 835 165 765.5 104 c 128,-1,8
 696 43 696 43 593.5 11.5 c 128,-1,9
 491 -20 491 -20 356 -20 c 0,10,11
 257 -20 257 -20 176 -7.5 c 128,-1,12
 95 5 95 5 32 23 c 1,13,-1
 70 305 l 1,14,-1
 136 305 l 1,15,-1
 148 117 l 1,16,17
 164 107 164 107 189.5 97 c 128,-1,18
 215 87 215 87 245 79.5 c 128,-1,19
 275 72 275 72 307.5 67.5 c 128,-1,20
 340 63 340 63 370 63 c 0,21,22
 469 63 469 63 536.5 91 c 128,-1,23
 604 119 604 119 645.5 169 c 128,-1,24
 687 219 687 219 705 289.5 c 128,-1,25
 723 360 723 360 723 445 c 0,26,27
 723 497 723 497 711 543.5 c 128,-1,28
 699 590 699 590 669 625 c 128,-1,29
 639 660 639 660 589 680 c 128,-1,30
 539 700 539 700 463 700 c 0,31,32
 404 700 404 700 348.5 692 c 128,-1,33
 293 684 293 684 262 676 c 1,34,-1
 166 676 l 1,35,-1
 283 1341 l 1,36,-1
 963 1341 l 1,37,-1
 936 1188 l 1,38,-1
 346 1188 l 1,39,-1
 271 760 l 1,40,41
 290 764 290 764 310.5 768 c 128,-1,42
 331 772 331 772 356.5 775.5 c 128,-1,43
 382 779 382 779 414 781.5 c 128,-1,44
 446 784 446 784 490 784 c 0,0,1
EndSplineSet
EndChar

StartChar: six
Encoding: 54 54 25
Width: 1024
GlyphClass: 2
Flags: W
LayerCount: 2
Fore
SplineSet
477 -20 m 0,0,1
 385 -20 385 -20 312 11 c 128,-1,2
 239 42 239 42 188 102 c 128,-1,3
 137 162 137 162 110 248.5 c 128,-1,4
 83 335 83 335 83 446 c 0,5,6
 83 577 83 577 105.5 695.5 c 128,-1,7
 128 814 128 814 168.5 915 c 128,-1,8
 209 1016 209 1016 267 1097.5 c 128,-1,9
 325 1179 325 1179 396 1236.5 c 128,-1,10
 467 1294 467 1294 550 1325 c 128,-1,11
 633 1356 633 1356 723 1356 c 0,12,13
 804 1356 804 1356 878.5 1340 c 128,-1,14
 953 1324 953 1324 1014 1303 c 1,15,-1
 973 1072 l 1,16,-1
 907 1072 l 1,17,-1
 896 1212 l 1,18,19
 856 1239 856 1239 810 1255.5 c 128,-1,20
 764 1272 764 1272 716 1272 c 0,21,22
 630 1272 630 1272 559.5 1227.5 c 128,-1,23
 489 1183 489 1183 435 1106 c 128,-1,24
 381 1029 381 1029 343.5 926 c 128,-1,25
 306 823 306 823 285 706 c 1,26,27
 314 723 314 723 350.5 740 c 128,-1,28
 387 757 387 757 428.5 771 c 128,-1,29
 470 785 470 785 514.5 794 c 128,-1,30
 559 803 559 803 604 803 c 0,31,32
 686 803 686 803 750 782 c 128,-1,33
 814 761 814 761 858 721.5 c 128,-1,34
 902 682 902 682 925 625.5 c 128,-1,35
 948 569 948 569 948 499 c 0,36,37
 948 395 948 395 919.5 301 c 128,-1,38
 891 207 891 207 832.5 136 c 128,-1,39
 774 65 774 65 685.5 22.5 c 128,-1,40
 597 -20 597 -20 477 -20 c 0,0,1
260 411 m 0,41,42
 260 316 260 316 277 249 c 128,-1,43
 294 182 294 182 323 140 c 128,-1,44
 352 98 352 98 392 78.5 c 128,-1,45
 432 59 432 59 479 59 c 0,46,47
 553 59 553 59 606.5 92.5 c 128,-1,48
 660 126 660 126 694.5 184.5 c 128,-1,49
 729 243 729 243 745.5 321 c 128,-1,50
 762 399 762 399 762 489 c 0,51,52
 762 598 762 598 713.5 652.5 c 128,-1,53
 665 707 665 707 562 707 c 0,54,55
 529 707 529 707 493 702 c 128,-1,56
 457 697 457 697 420 688.5 c 128,-1,57
 383 680 383 680 346 668.5 c 128,-1,58
 309 657 309 657 276 645 c 1,59,60
 268 588 268 588 264 529.5 c 128,-1,61
 260 471 260 471 260 411 c 0,41,42
EndSplineSet
EndChar

StartChar: seven
Encoding: 55 55 26
Width: 1024
GlyphClass: 2
Flags: W
LayerCount: 2
Fore
SplineSet
274 1024 m 1,0,-1
 208 1024 l 1,1,-1
 264 1341 l 1,2,-1
 1094 1341 l 1,3,-1
 1080 1264 l 1,4,-1
 259 0 l 1,5,-1
 120 0 l 1,6,-1
 917 1188 l 1,7,-1
 338 1188 l 1,8,-1
 274 1024 l 1,0,-1
EndSplineSet
EndChar

StartChar: eight
Encoding: 56 56 27
Width: 1024
GlyphClass: 2
Flags: W
LayerCount: 2
Fore
SplineSet
1001 1092 m 0,0,1
 1001 1012 1001 1012 980 948.5 c 128,-1,2
 959 885 959 885 923.5 837 c 128,-1,3
 888 789 888 789 841.5 757.5 c 128,-1,4
 795 726 795 726 743 711 c 1,5,6
 829 681 829 681 878 611.5 c 128,-1,7
 927 542 927 542 927 440 c 0,8,9
 927 329 927 329 897 243 c 128,-1,10
 867 157 867 157 805.5 98.5 c 128,-1,11
 744 40 744 40 649.5 10 c 128,-1,12
 555 -20 555 -20 426 -20 c 0,13,14
 231 -20 231 -20 137 61.5 c 128,-1,15
 43 143 43 143 43 293 c 0,16,17
 43 462 43 462 123 564.5 c 128,-1,18
 203 667 203 667 351 711 c 1,19,20
 287 739 287 739 244.5 798.5 c 128,-1,21
 202 858 202 858 202 949 c 0,22,23
 202 1045 202 1045 229 1122 c 128,-1,24
 256 1199 256 1199 312 1252 c 128,-1,25
 368 1305 368 1305 453.5 1333.5 c 128,-1,26
 539 1362 539 1362 655 1362 c 0,27,28
 832 1362 832 1362 916.5 1292 c 128,-1,29
 1001 1222 1001 1222 1001 1092 c 0,0,1
438 59 m 0,30,31
 531 59 531 59 591.5 87.5 c 128,-1,32
 652 116 652 116 687.5 167 c 128,-1,33
 723 218 723 218 736.5 289.5 c 128,-1,34
 750 361 750 361 750 447 c 0,35,36
 750 495 750 495 738.5 535 c 128,-1,37
 727 575 727 575 701 604.5 c 128,-1,38
 675 634 675 634 634 650 c 128,-1,39
 593 666 593 666 534 666 c 0,40,41
 447 666 447 666 387 639 c 128,-1,42
 327 612 327 612 290 562.5 c 128,-1,43
 253 513 253 513 236.5 443.5 c 128,-1,44
 220 374 220 374 220 289 c 0,45,46
 220 236 220 236 232.5 193.5 c 128,-1,47
 245 151 245 151 271.5 121 c 128,-1,48
 298 91 298 91 339.5 75 c 128,-1,49
 381 59 381 59 438 59 c 0,30,31
551 754 m 0,50,51
 630 754 630 754 682 782.5 c 128,-1,52
 734 811 734 811 765.5 858 c 128,-1,53
 797 905 797 905 810 966 c 128,-1,54
 823 1027 823 1027 823 1092 c 0,55,56
 823 1136 823 1136 813.5 1171.5 c 128,-1,57
 804 1207 804 1207 783 1231.5 c 128,-1,58
 762 1256 762 1256 727.5 1269 c 128,-1,59
 693 1282 693 1282 644 1282 c 0,60,61
 565 1282 565 1282 513.5 1255.5 c 128,-1,62
 462 1229 462 1229 432 1183.5 c 128,-1,63
 402 1138 402 1138 390 1076.5 c 128,-1,64
 378 1015 378 1015 378 945 c 0,65,66
 378 905 378 905 387 870.5 c 128,-1,67
 396 836 396 836 416 810 c 128,-1,68
 436 784 436 784 469.5 769 c 128,-1,69
 503 754 503 754 551 754 c 0,50,51
EndSplineSet
EndChar

StartChar: nine
Encoding: 57 57 28
Width: 1024
GlyphClass: 2
Flags: W
LayerCount: 2
Fore
SplineSet
597 1356 m 0,0,1
 689 1356 689 1356 762 1326.5 c 128,-1,2
 835 1297 835 1297 886 1238.5 c 128,-1,3
 937 1180 937 1180 964 1092.5 c 128,-1,4
 991 1005 991 1005 991 890 c 0,5,6
 991 762 991 762 970 645.5 c 128,-1,7
 949 529 949 529 909.5 427.5 c 128,-1,8
 870 326 870 326 815 243.5 c 128,-1,9
 760 161 760 161 691.5 102.5 c 128,-1,10
 623 44 623 44 543.5 12 c 128,-1,11
 464 -20 464 -20 376 -20 c 0,12,13
 283 -20 283 -20 204 -6 c 128,-1,14
 125 8 125 8 60 34 c 1,15,-1
 99 255 l 1,16,-1
 165 255 l 1,17,-1
 176 115 l 1,18,19
 210 95 210 95 262.5 79.5 c 128,-1,20
 315 64 315 64 372 64 c 0,21,22
 460 64 460 64 530 108.5 c 128,-1,23
 600 153 600 153 651.5 230.5 c 128,-1,24
 703 308 703 308 738 411 c 128,-1,25
 773 514 773 514 791 631 c 1,26,27
 762 614 762 614 725.5 596.5 c 128,-1,28
 689 579 689 579 647 565 c 128,-1,29
 605 551 605 551 560 542 c 128,-1,30
 515 533 515 533 470 533 c 0,31,32
 388 533 388 533 324 557 c 128,-1,33
 260 581 260 581 216 625 c 128,-1,34
 172 669 172 669 149 731.5 c 128,-1,35
 126 794 126 794 126 871 c 0,36,37
 126 974 126 974 156 1063 c 128,-1,38
 186 1152 186 1152 245 1217 c 128,-1,39
 304 1282 304 1282 392.5 1319 c 128,-1,40
 481 1356 481 1356 597 1356 c 0,0,1
814 925 m 0,41,42
 814 1020 814 1020 797 1087 c 128,-1,43
 780 1154 780 1154 751 1196 c 128,-1,44
 722 1238 722 1238 681.5 1257.5 c 128,-1,45
 641 1277 641 1277 595 1277 c 0,46,47
 521 1277 521 1277 467.5 1246.5 c 128,-1,48
 414 1216 414 1216 379.5 1162 c 128,-1,49
 345 1108 345 1108 328.5 1034.5 c 128,-1,50
 312 961 312 961 312 876 c 0,51,52
 312 750 312 750 367.5 689.5 c 128,-1,53
 423 629 423 629 521 629 c 0,54,55
 599 629 599 629 668 646 c 128,-1,56
 737 663 737 663 800 690 c 1,57,58
 807 747 807 747 810.5 806 c 128,-1,59
 814 865 814 865 814 925 c 0,41,42
EndSplineSet
EndChar

StartChar: colon
Encoding: 58 58 29
Width: 682
GlyphClass: 2
Flags: W
LayerCount: 2
Fore
SplineSet
379 92 m 256,0,1
 379 67 379 67 369.5 45 c 128,-1,2
 360 23 360 23 344 6.5 c 128,-1,3
 328 -10 328 -10 305.5 -19.5 c 128,-1,4
 283 -29 283 -29 258 -29 c 0,5,6
 232 -29 232 -29 210 -19.5 c 128,-1,7
 188 -10 188 -10 172 6.5 c 128,-1,8
 156 23 156 23 146.5 45 c 128,-1,9
 137 67 137 67 137 92 c 256,10,11
 137 117 137 117 146.5 139.5 c 128,-1,12
 156 162 156 162 172 178 c 128,-1,13
 188 194 188 194 210 203.5 c 128,-1,14
 232 213 232 213 258 213 c 0,15,16
 283 213 283 213 305.5 203.5 c 128,-1,17
 328 194 328 194 344 178 c 128,-1,18
 360 162 360 162 369.5 139.5 c 128,-1,19
 379 117 379 117 379 92 c 256,0,1
520 839 m 256,20,21
 520 814 520 814 510.5 792 c 128,-1,22
 501 770 501 770 485 753.5 c 128,-1,23
 469 737 469 737 446.5 727.5 c 128,-1,24
 424 718 424 718 399 718 c 0,25,26
 373 718 373 718 351 727.5 c 128,-1,27
 329 737 329 737 313 753.5 c 128,-1,28
 297 770 297 770 287.5 792 c 128,-1,29
 278 814 278 814 278 839 c 256,30,31
 278 864 278 864 287.5 886.5 c 128,-1,32
 297 909 297 909 313 925 c 128,-1,33
 329 941 329 941 351 950.5 c 128,-1,34
 373 960 373 960 399 960 c 0,35,36
 424 960 424 960 446.5 950.5 c 128,-1,37
 469 941 469 941 485 925 c 128,-1,38
 501 909 501 909 510.5 886.5 c 128,-1,39
 520 864 520 864 520 839 c 256,20,21
EndSplineSet
EndChar

StartChar: semicolon
Encoding: 59 59 30
AltUni2: 00037e.ffffffff.0
Width: 682
GlyphClass: 2
Flags: W
LayerCount: 2
Fore
SplineSet
546 839 m 256,0,1
 546 814 546 814 536.5 792 c 128,-1,2
 527 770 527 770 511 753.5 c 128,-1,3
 495 737 495 737 472.5 727.5 c 128,-1,4
 450 718 450 718 425 718 c 0,5,6
 399 718 399 718 377 727.5 c 128,-1,7
 355 737 355 737 339 753.5 c 128,-1,8
 323 770 323 770 313.5 792 c 128,-1,9
 304 814 304 814 304 839 c 256,10,11
 304 864 304 864 313.5 886.5 c 128,-1,12
 323 909 323 909 339 925 c 128,-1,13
 355 941 355 941 377 950.5 c 128,-1,14
 399 960 399 960 425 960 c 0,15,16
 450 960 450 960 472.5 950.5 c 128,-1,17
 495 941 495 941 511 925 c 128,-1,18
 527 909 527 909 536.5 886.5 c 128,-1,19
 546 864 546 864 546 839 c 256,0,1
410 42 m 0,20,21
 410 -17 410 -17 392 -71 c 128,-1,22
 374 -125 374 -125 335.5 -171 c 128,-1,23
 297 -217 297 -217 237.5 -254 c 128,-1,24
 178 -291 178 -291 95 -315 c 1,25,-1
 95 -238 l 1,26,27
 186 -209 186 -209 233.5 -167 c 128,-1,28
 281 -125 281 -125 281 -70 c 0,29,30
 281 -42 281 -42 261.5 -28 c 128,-1,31
 242 -14 242 -14 218.5 0.5 c 128,-1,32
 195 15 195 15 175.5 36.5 c 128,-1,33
 156 58 156 58 156 100 c 0,34,35
 156 154 156 154 190 182.5 c 128,-1,36
 224 211 224 211 277 211 c 0,37,38
 305 211 305 211 329.5 200.5 c 128,-1,39
 354 190 354 190 372 169 c 128,-1,40
 390 148 390 148 400 116 c 128,-1,41
 410 84 410 84 410 42 c 0,20,21
EndSplineSet
EndChar

StartChar: less
Encoding: 60 60 31
Width: 1382
GlyphClass: 2
Flags: W
LayerCount: 2
Fore
SplineSet
232 655 m 1,0,-1
 232 705 l 1,1,-1
 1185 1174 l 1,2,-1
 1185 1071 l 1,3,-1
 376 680 l 1,4,-1
 1185 289 l 1,5,-1
 1185 186 l 1,6,-1
 232 655 l 1,0,-1
EndSplineSet
EndChar

StartChar: equal
Encoding: 61 61 32
Width: 1382
GlyphClass: 2
Flags: W
LayerCount: 2
Fore
SplineSet
1186 526 m 1,0,-1
 1186 424 l 1,1,-1
 233 424 l 1,2,-1
 233 526 l 1,3,-1
 1186 526 l 1,0,-1
1186 936 m 1,4,-1
 1186 834 l 1,5,-1
 233 834 l 1,6,-1
 233 936 l 1,7,-1
 1186 936 l 1,4,-1
EndSplineSet
EndChar

StartChar: greater
Encoding: 62 62 33
Width: 1382
GlyphClass: 2
Flags: W
LayerCount: 2
Fore
SplineSet
232 186 m 1,0,-1
 232 289 l 1,1,-1
 1041 680 l 1,2,-1
 232 1071 l 1,3,-1
 232 1174 l 1,4,-1
 1185 705 l 1,5,-1
 1185 655 l 1,6,-1
 232 186 l 1,0,-1
EndSplineSet
EndChar

StartChar: question
Encoding: 63 63 34
Width: 1024
GlyphClass: 2
Flags: W
LayerCount: 2
Fore
SplineSet
502 350 m 1,0,-1
 422 350 l 1,1,-1
 455 684 l 1,2,-1
 603 713 l 2,3,4
 718 735 718 735 773.5 816 c 128,-1,5
 829 897 829 897 829 1051 c 0,6,7
 829 1103 829 1103 818 1144 c 128,-1,8
 807 1185 807 1185 783 1213.5 c 128,-1,9
 759 1242 759 1242 721.5 1257 c 128,-1,10
 684 1272 684 1272 630 1272 c 0,11,12
 601 1272 601 1272 570 1266.5 c 128,-1,13
 539 1261 539 1261 509.5 1251 c 128,-1,14
 480 1241 480 1241 453 1228 c 128,-1,15
 426 1215 426 1215 407 1200 c 1,16,-1
 357 1036 l 1,17,-1
 291 1036 l 1,18,-1
 322 1290 l 1,19,20
 392 1319 392 1319 474 1337.5 c 128,-1,21
 556 1356 556 1356 641 1356 c 0,22,23
 827 1356 827 1356 917 1282 c 128,-1,24
 1007 1208 1007 1208 1007 1063 c 0,25,26
 1007 979 1007 979 985.5 908 c 128,-1,27
 964 837 964 837 917 781 c 128,-1,28
 870 725 870 725 796.5 685 c 128,-1,29
 723 645 723 645 620 623 c 2,30,-1
 561 610 l 1,31,-1
 502 350 l 1,0,-1
545 92 m 256,32,33
 545 67 545 67 535.5 45 c 128,-1,34
 526 23 526 23 510 6.5 c 128,-1,35
 494 -10 494 -10 472 -19.5 c 128,-1,36
 450 -29 450 -29 425 -29 c 0,37,38
 399 -29 399 -29 377 -19.5 c 128,-1,39
 355 -10 355 -10 339 6.5 c 128,-1,40
 323 23 323 23 313.5 45 c 128,-1,41
 304 67 304 67 304 92 c 256,42,43
 304 117 304 117 313.5 139.5 c 128,-1,44
 323 162 323 162 339 178 c 128,-1,45
 355 194 355 194 377 203.5 c 128,-1,46
 399 213 399 213 425 213 c 0,47,48
 450 213 450 213 472 203.5 c 128,-1,49
 494 194 494 194 510 178 c 128,-1,50
 526 162 526 162 535.5 139.5 c 128,-1,51
 545 117 545 117 545 92 c 256,32,33
EndSplineSet
EndChar

StartChar: at
Encoding: 64 64 35
Width: 1884
GlyphClass: 2
Flags: W
LayerCount: 2
Fore
SplineSet
1469 -184 m 1,0,1
 1415 -226 1415 -226 1354.5 -263 c 128,-1,2
 1294 -300 1294 -300 1221.5 -328 c 128,-1,3
 1149 -356 1149 -356 1063.5 -372.5 c 128,-1,4
 978 -389 978 -389 875 -389 c 0,5,6
 694 -389 694 -389 553.5 -330.5 c 128,-1,7
 413 -272 413 -272 316.5 -170 c 128,-1,8
 220 -68 220 -68 170 69 c 128,-1,9
 120 206 120 206 120 362 c 0,10,11
 120 505 120 505 152.5 635 c 128,-1,12
 185 765 185 765 245.5 876 c 128,-1,13
 306 987 306 987 392.5 1077.5 c 128,-1,14
 479 1168 479 1168 586 1231.5 c 128,-1,15
 693 1295 693 1295 818.5 1329.5 c 128,-1,16
 944 1364 944 1364 1084 1364 c 0,17,18
 1259 1364 1259 1364 1391 1320.5 c 128,-1,19
 1523 1277 1523 1277 1611.5 1197 c 128,-1,20
 1700 1117 1700 1117 1744.5 1004 c 128,-1,21
 1789 891 1789 891 1789 752 c 0,22,23
 1789 649 1789 649 1761 555 c 128,-1,24
 1733 461 1733 461 1684 380.5 c 128,-1,25
 1635 300 1635 300 1568 234 c 128,-1,26
 1501 168 1501 168 1423 121.5 c 128,-1,27
 1345 75 1345 75 1259 50 c 128,-1,28
 1173 25 1173 25 1086 25 c 0,29,30
 1074 25 1074 25 1062.5 27 c 128,-1,31
 1051 29 1051 29 1042 35 c 128,-1,32
 1033 41 1033 41 1027 51 c 128,-1,33
 1021 61 1021 61 1021 76 c 0,34,35
 1021 104 1021 104 1023.5 138.5 c 128,-1,36
 1026 173 1026 173 1029 201 c 1,37,38
 1002 174 1002 174 965.5 143 c 128,-1,39
 929 112 929 112 887 86 c 128,-1,40
 845 60 845 60 799 42.5 c 128,-1,41
 753 25 753 25 707 25 c 0,42,43
 635 25 635 25 595.5 79.5 c 128,-1,44
 556 134 556 134 556 225 c 0,45,46
 556 308 556 308 571 389.5 c 128,-1,47
 586 471 586 471 615 545 c 128,-1,48
 644 619 644 619 688 682 c 128,-1,49
 732 745 732 745 789 791 c 0,50,51
 837 829 837 829 881 853.5 c 128,-1,52
 925 878 925 878 971.5 891.5 c 128,-1,53
 1018 905 1018 905 1070 910 c 128,-1,54
 1122 915 1122 915 1185 915 c 0,55,56
 1205 915 1205 915 1220.5 915 c 128,-1,57
 1236 915 1236 915 1250 914.5 c 128,-1,58
 1264 914 1264 914 1277.5 912.5 c 128,-1,59
 1291 911 1291 911 1307 909 c 1,60,-1
 1193 379 l 2,61,62
 1188 355 1188 355 1183.5 330 c 128,-1,63
 1179 305 1179 305 1176 282 c 128,-1,64
 1173 259 1173 259 1171.5 239 c 128,-1,65
 1170 219 1170 219 1170 205 c 0,66,67
 1170 193 1170 193 1172 181.5 c 128,-1,68
 1174 170 1174 170 1181.5 161.5 c 128,-1,69
 1189 153 1189 153 1203.5 148 c 128,-1,70
 1218 143 1218 143 1244 143 c 0,71,72
 1309 143 1309 143 1366 168 c 128,-1,73
 1423 193 1423 193 1469.5 236.5 c 128,-1,74
 1516 280 1516 280 1552.5 339 c 128,-1,75
 1589 398 1589 398 1613.5 465.5 c 128,-1,76
 1638 533 1638 533 1651 605.5 c 128,-1,77
 1664 678 1664 678 1664 750 c 0,78,79
 1664 879 1664 879 1623 978 c 128,-1,80
 1582 1077 1582 1077 1505.5 1144.5 c 128,-1,81
 1429 1212 1429 1212 1320.5 1247 c 128,-1,82
 1212 1282 1212 1282 1078 1282 c 0,83,84
 950 1282 950 1282 839.5 1248.5 c 128,-1,85
 729 1215 729 1215 637.5 1155 c 128,-1,86
 546 1095 546 1095 475.5 1010.5 c 128,-1,87
 405 926 405 926 356.5 824.5 c 128,-1,88
 308 723 308 723 282.5 606.5 c 128,-1,89
 257 490 257 490 257 365 c 0,90,91
 257 233 257 233 296 112 c 128,-1,92
 335 -9 335 -9 415.5 -101.5 c 128,-1,93
 496 -194 496 -194 618 -249.5 c 128,-1,94
 740 -305 740 -305 906 -305 c 0,95,96
 1001 -305 1001 -305 1077.5 -291 c 128,-1,97
 1154 -277 1154 -277 1217 -253.5 c 128,-1,98
 1280 -230 1280 -230 1333.5 -199 c 128,-1,99
 1387 -168 1387 -168 1436 -133 c 1,100,-1
 1469 -184 l 1,0,1
1150 807 m 1,101,102
 1140 808 1140 808 1131 809 c 0,103,104
 1123 810 1123 810 1115 810.5 c 128,-1,105
 1107 811 1107 811 1101 811 c 0,106,107
 1072 811 1072 811 1037.5 808 c 128,-1,108
 1003 805 1003 805 967.5 796.5 c 128,-1,109
 932 788 932 788 897 773 c 128,-1,110
 862 758 862 758 834 733 c 0,111,112
 805 707 805 707 779 663.5 c 128,-1,113
 753 620 753 620 733.5 564 c 128,-1,114
 714 508 714 508 702.5 443 c 128,-1,115
 691 378 691 378 691 309 c 0,116,117
 691 238 691 238 711 199 c 128,-1,118
 731 160 731 160 771 160 c 0,119,120
 807 160 807 160 844.5 171 c 128,-1,121
 882 182 882 182 917.5 198.5 c 128,-1,122
 953 215 953 215 983.5 235.5 c 128,-1,123
 1014 256 1014 256 1035 274 c 1,124,-1
 1150 807 l 1,101,102
EndSplineSet
EndChar

StartChar: A
Encoding: 65 65 36
Width: 1251
GlyphClass: 2
Flags: W
LayerCount: 2
Fore
SplineSet
264 53 m 1,0,-1
 254 0 l 1,1,-1
 -112 0 l 1,2,-1
 -102 53 l 1,3,-1
 10 80 l 1,4,-1
 692 1352 l 1,5,-1
 883 1352 l 1,6,-1
 1133 80 l 1,7,-1
 1258 53 l 1,8,-1
 1247 0 l 1,9,-1
 772 0 l 1,10,-1
 783 53 l 1,11,-1
 926 80 l 1,12,-1
 862 467 l 1,13,-1
 334 467 l 1,14,-1
 129 80 l 1,15,-1
 264 53 l 1,0,-1
723 1208 m 1,16,-1
 379 557 l 1,17,-1
 846 557 l 1,18,-1
 723 1208 l 1,16,-1
EndSplineSet
EndChar

StartChar: B
Encoding: 66 66 37
Width: 1251
GlyphClass: 2
Flags: W
LayerCount: 2
Fore
SplineSet
639 754 m 2,0,1
 741 754 741 754 810 771 c 128,-1,2
 879 788 879 788 921 823.5 c 128,-1,3
 963 859 963 859 980.5 914.5 c 128,-1,4
 998 970 998 970 998 1047 c 0,5,6
 998 1151 998 1151 933 1201 c 128,-1,7
 868 1251 868 1251 719 1251 c 2,8,-1
 561 1251 l 1,9,-1
 473 754 l 1,10,-1
 639 754 l 2,0,1
615 84 m 0,11,12
 724 84 724 84 796 106.5 c 128,-1,13
 868 129 868 129 910.5 171 c 128,-1,14
 953 213 953 213 970 272.5 c 128,-1,15
 987 332 987 332 987 406 c 0,16,17
 987 542 987 542 898.5 603 c 128,-1,18
 810 664 810 664 643 664 c 2,19,-1
 457 664 l 1,20,-1
 357 90 l 1,21,22
 408 88 408 88 456 87 c 0,23,24
 497 85 497 85 541 84.5 c 128,-1,25
 585 84 585 84 615 84 c 0,11,12
19 0 m 1,26,-1
 29 53 l 1,27,-1
 162 80 l 1,28,-1
 371 1262 l 1,29,-1
 203 1288 l 1,30,-1
 213 1341 l 1,31,-1
 764 1341 l 2,32,33
 887 1341 887 1341 971.5 1320.5 c 128,-1,34
 1056 1300 1056 1300 1108 1262.5 c 128,-1,35
 1160 1225 1160 1225 1183 1173 c 128,-1,36
 1206 1121 1206 1121 1206 1059 c 0,37,38
 1206 983 1206 983 1181 923.5 c 128,-1,39
 1156 864 1156 864 1112 820.5 c 128,-1,40
 1068 777 1068 777 1006 750 c 128,-1,41
 944 723 944 723 871 713 c 1,42,43
 940 707 940 707 999.5 686 c 128,-1,44
 1059 665 1059 665 1102.5 628 c 128,-1,45
 1146 591 1146 591 1171 537 c 128,-1,46
 1196 483 1196 483 1196 410 c 0,47,48
 1196 195 1196 195 1050.5 94.5 c 128,-1,49
 905 -6 905 -6 615 -6 c 0,50,51
 559 -6 559 -6 509.5 -5 c 128,-1,52
 460 -4 460 -4 414 -3 c 128,-1,53
 368 -2 368 -2 323.5 -1 c 128,-1,54
 279 0 279 0 232 0 c 2,55,-1
 19 0 l 1,26,-1
EndSplineSet
EndChar

StartChar: C
Encoding: 67 67 38
Width: 1366
GlyphClass: 2
Flags: W
LayerCount: 2
Fore
SplineSet
699 -19 m 0,0,1
 556 -19 556 -19 447 20 c 128,-1,2
 338 59 338 59 264 130 c 128,-1,3
 190 201 190 201 152 301 c 128,-1,4
 114 401 114 401 114 523 c 0,5,6
 114 718 114 718 176 873 c 128,-1,7
 238 1028 238 1028 348.5 1135 c 128,-1,8
 459 1242 459 1242 612 1299 c 128,-1,9
 765 1356 765 1356 947 1356 c 0,10,11
 1084 1356 1084 1356 1190 1340.5 c 128,-1,12
 1296 1325 1296 1325 1385 1305 c 1,13,-1
 1340 1012 l 1,14,-1
 1275 1012 l 1,15,-1
 1275 1186 l 1,16,17
 1213 1229 1213 1229 1125 1252.5 c 128,-1,18
 1037 1276 1037 1276 941 1276 c 0,19,20
 805 1276 805 1276 690 1221.5 c 128,-1,21
 575 1167 575 1167 491.5 1066 c 128,-1,22
 408 965 408 965 361 822 c 128,-1,23
 314 679 314 679 314 503 c 0,24,25
 314 408 314 408 336.5 327 c 128,-1,26
 359 246 359 246 408 187.5 c 128,-1,27
 457 129 457 129 533 96 c 128,-1,28
 609 63 609 63 716 63 c 0,29,30
 778 63 778 63 837 73 c 128,-1,31
 896 83 896 83 947.5 100 c 128,-1,32
 999 117 999 117 1042 138.5 c 128,-1,33
 1085 160 1085 160 1116 184 c 1,34,-1
 1188 385 l 1,35,-1
 1253 385 l 1,36,-1
 1192 70 l 1,37,38
 1145 53 1145 53 1087.5 37 c 128,-1,39
 1030 21 1030 21 966 8.5 c 128,-1,40
 902 -4 902 -4 834 -11.5 c 128,-1,41
 766 -19 766 -19 699 -19 c 0,0,1
EndSplineSet
EndChar

StartChar: D
Encoding: 68 68 39
Width: 1479
GlyphClass: 2
Flags: W
LayerCount: 2
Fore
SplineSet
1238 785 m 0,0,1
 1238 910 1238 910 1202 998.5 c 128,-1,2
 1166 1087 1166 1087 1099 1143 c 128,-1,3
 1032 1199 1032 1199 936.5 1225 c 128,-1,4
 841 1251 841 1251 723 1251 c 2,5,-1
 561 1251 l 1,6,-1
 357 94 l 1,7,8
 417 91 417 91 483 88.5 c 128,-1,9
 549 86 549 86 621 86 c 0,10,11
 774 86 774 86 889.5 135 c 128,-1,12
 1005 184 1005 184 1082.5 274.5 c 128,-1,13
 1160 365 1160 365 1199 494.5 c 128,-1,14
 1238 624 1238 624 1238 785 c 0,0,1
784 1341 m 2,15,16
 946 1341 946 1341 1070 1305 c 128,-1,17
 1194 1269 1194 1269 1278 1199 c 128,-1,18
 1362 1129 1362 1129 1405 1027 c 128,-1,19
 1448 925 1448 925 1448 792 c 0,20,21
 1448 612 1448 612 1391.5 465.5 c 128,-1,22
 1335 319 1335 319 1229.5 214.5 c 128,-1,23
 1124 110 1124 110 972 53 c 128,-1,24
 820 -4 820 -4 629 -4 c 0,25,26
 572 -4 572 -4 504 -3.5 c 128,-1,27
 436 -3 436 -3 370 -2 c 128,-1,28
 304 -1 304 -1 245.5 -0.5 c 128,-1,29
 187 0 187 0 148 0 c 2,30,-1
 -23 0 l 1,31,-1
 -14 53 l 1,32,-1
 162 80 l 1,33,-1
 370 1262 l 1,34,-1
 203 1288 l 1,35,-1
 212 1341 l 1,36,-1
 784 1341 l 2,15,16
EndSplineSet
EndChar

StartChar: E
Encoding: 69 69 40
Width: 1251
GlyphClass: 2
Flags: W
LayerCount: 2
Fore
SplineSet
-14 53 m 1,0,-1
 161 80 l 1,1,-1
 370 1262 l 1,2,-1
 202 1288 l 1,3,-1
 212 1341 l 1,4,-1
 1218 1341 l 1,5,-1
 1161 1020 l 1,6,-1
 1095 1020 l 1,7,-1
 1101 1237 l 1,8,9
 1070 1241 1070 1241 1025 1244 c 128,-1,10
 980 1247 980 1247 933 1248.5 c 128,-1,11
 886 1250 886 1250 844.5 1250.5 c 128,-1,12
 803 1251 803 1251 780 1251 c 2,13,-1
 561 1251 l 1,14,-1
 468 727 l 1,15,-1
 830 727 l 1,16,-1
 890 887 l 1,17,-1
 954 887 l 1,18,-1
 881 475 l 1,19,-1
 817 475 l 1,20,-1
 815 637 l 1,21,-1
 453 637 l 1,22,-1
 356 90 l 1,23,-1
 620 90 l 2,24,25
 682 90 682 90 737 91.5 c 128,-1,26
 792 93 792 93 836.5 95 c 128,-1,27
 881 97 881 97 913 100 c 128,-1,28
 945 103 945 103 961 106 c 1,29,-1
 1062 354 l 1,30,-1
 1128 354 l 1,31,-1
 1046 0 l 1,32,-1
 -24 0 l 1,33,-1
 -14 53 l 1,0,-1
EndSplineSet
EndChar

StartChar: F
Encoding: 70 70 41
Width: 1251
GlyphClass: 2
Flags: W
LayerCount: 2
Fore
SplineSet
446 602 m 1,0,-1
 354 80 l 1,1,-1
 573 53 l 1,2,-1
 563 0 l 1,3,-1
 -11 0 l 1,4,-1
 -1 53 l 1,5,-1
 161 80 l 1,6,-1
 370 1262 l 1,7,-1
 202 1288 l 1,8,-1
 212 1341 l 1,9,-1
 1268 1341 l 1,10,-1
 1211 1020 l 1,11,-1
 1145 1020 l 1,12,-1
 1151 1237 l 1,13,14
 1120 1241 1120 1241 1075 1244 c 128,-1,15
 1030 1247 1030 1247 983 1248.5 c 128,-1,16
 936 1250 936 1250 894.5 1250.5 c 128,-1,17
 853 1251 853 1251 830 1251 c 2,18,-1
 561 1251 l 1,19,-1
 462 692 l 1,20,-1
 907 692 l 1,21,-1
 966 852 l 1,22,-1
 1027 852 l 1,23,-1
 955 440 l 1,24,-1
 894 440 l 1,25,-1
 891 602 l 1,26,-1
 446 602 l 1,0,-1
EndSplineSet
EndChar

StartChar: G
Encoding: 71 71 42
Width: 1479
GlyphClass: 2
Flags: W
LayerCount: 2
Fore
SplineSet
1215 86 m 1,0,1
 1153 62 1153 62 1092 42.5 c 128,-1,2
 1031 23 1031 23 967 9.5 c 128,-1,3
 903 -4 903 -4 834.5 -11 c 128,-1,4
 766 -18 766 -18 690 -18 c 0,5,6
 552 -18 552 -18 444.5 19.5 c 128,-1,7
 337 57 337 57 263.5 127 c 128,-1,8
 190 197 190 197 151.5 297 c 128,-1,9
 113 397 113 397 113 523 c 0,10,11
 113 724 113 724 177 879 c 128,-1,12
 241 1034 241 1034 353 1140 c 128,-1,13
 465 1246 465 1246 617.5 1301 c 128,-1,14
 770 1356 770 1356 947 1356 c 0,15,16
 1076 1356 1076 1356 1184.5 1340 c 128,-1,17
 1293 1324 1293 1324 1394 1296 c 1,18,-1
 1343 1008 l 1,19,-1
 1276 1008 l 1,20,-1
 1279 1174 l 1,21,22
 1218 1223 1218 1223 1133 1249.5 c 128,-1,23
 1048 1276 1048 1276 941 1276 c 0,24,25
 816 1276 816 1276 702 1225.5 c 128,-1,26
 588 1175 588 1175 502 1077 c 128,-1,27
 416 979 416 979 365 834.5 c 128,-1,28
 314 690 314 690 314 503 c 0,29,30
 314 393 314 393 342.5 310 c 128,-1,31
 371 227 371 227 422 172 c 128,-1,32
 473 117 473 117 544.5 89.5 c 128,-1,33
 616 62 616 62 703 62 c 0,34,35
 757 62 757 62 806 70.5 c 128,-1,36
 855 79 855 79 898 92.5 c 128,-1,37
 941 106 941 106 976 122 c 128,-1,38
 1011 138 1011 138 1035 153 c 1,39,-1
 1098 506 l 1,40,-1
 931 532 l 1,41,-1
 940 586 l 1,42,-1
 1435 586 l 1,43,-1
 1426 532 l 1,44,-1
 1290 506 l 1,45,-1
 1215 86 l 1,0,1
EndSplineSet
EndChar

StartChar: H
Encoding: 72 72 43
Width: 1479
GlyphClass: 2
Flags: W
LayerCount: 2
Fore
SplineSet
-22 0 m 1,0,-1
 -14 53 l 1,1,-1
 162 80 l 1,2,-1
 369 1262 l 1,3,-1
 203 1288 l 1,4,-1
 211 1341 l 1,5,-1
 748 1341 l 1,6,-1
 740 1288 l 1,7,-1
 561 1262 l 1,8,-1
 469 735 l 1,9,-1
 1100 735 l 1,10,-1
 1192 1262 l 1,11,-1
 1026 1288 l 1,12,-1
 1034 1341 l 1,13,-1
 1571 1341 l 1,14,-1
 1563 1288 l 1,15,-1
 1385 1262 l 1,16,-1
 1178 80 l 1,17,-1
 1344 53 l 1,18,-1
 1335 0 l 1,19,-1
 799 0 l 1,20,-1
 807 53 l 1,21,-1
 985 80 l 1,22,-1
 1084 645 l 1,23,-1
 453 645 l 1,24,-1
 354 80 l 1,25,-1
 520 53 l 1,26,-1
 512 0 l 1,27,-1
 -22 0 l 1,0,-1
EndSplineSet
EndChar

StartChar: I
Encoding: 73 73 44
Width: 682
GlyphClass: 2
Flags: W
LayerCount: 2
Fore
SplineSet
369 80 m 1,0,-1
 535 53 l 1,1,-1
 527 0 l 1,2,-1
 -8 0 l 1,3,-1
 0 53 l 1,4,-1
 176 80 l 1,5,-1
 383 1262 l 1,6,-1
 217 1288 l 1,7,-1
 225 1341 l 1,8,-1
 762 1341 l 1,9,-1
 754 1288 l 1,10,-1
 576 1262 l 1,11,-1
 369 80 l 1,0,-1
EndSplineSet
EndChar

StartChar: J
Encoding: 74 74 45
Width: 909
GlyphClass: 2
Flags: W
LayerCount: 2
Fore
SplineSet
631 1262 m 1,0,-1
 464 1288 l 1,1,-1
 473 1341 l 1,2,-1
 989 1341 l 1,3,-1
 980 1288 l 1,4,-1
 823 1262 l 1,5,-1
 677 432 l 2,6,7
 655 307 655 307 615.5 221 c 128,-1,8
 576 135 576 135 523 81.5 c 128,-1,9
 470 28 470 28 405 4 c 128,-1,10
 340 -20 340 -20 267 -20 c 0,11,12
 198 -20 198 -20 135 -6.5 c 128,-1,13
 72 7 72 7 31 26 c 1,14,-1
 73 258 l 1,15,-1
 138 258 l 1,16,-1
 143 119 l 1,17,18
 150 107 150 107 165 97.5 c 128,-1,19
 180 88 180 88 199 81 c 128,-1,20
 218 74 218 74 239 70 c 128,-1,21
 260 66 260 66 281 66 c 0,22,23
 421 66 421 66 454 256 c 2,24,-1
 631 1262 l 1,0,-1
EndSplineSet
EndChar

StartChar: K
Encoding: 75 75 46
Width: 1366
GlyphClass: 2
Flags: W
LayerCount: 2
Fore
SplineSet
1454 1341 m 1,0,-1
 1444 1288 l 1,1,-1
 1288 1262 l 1,2,-1
 732 807 l 1,3,-1
 1179 80 l 1,4,-1
 1313 53 l 1,5,-1
 1303 0 l 1,6,-1
 996 0 l 1,7,-1
 585 686 l 1,8,-1
 442 569 l 1,9,-1
 354 80 l 1,10,-1
 542 53 l 1,11,-1
 532 0 l 1,12,-1
 -24 0 l 1,13,-1
 -14 53 l 1,14,-1
 161 80 l 1,15,-1
 370 1262 l 1,16,-1
 202 1288 l 1,17,-1
 212 1341 l 1,18,-1
 749 1341 l 1,19,-1
 739 1288 l 1,20,-1
 563 1262 l 1,21,-1
 465 704 l 1,22,-1
 1143 1262 l 1,23,-1
 1024 1288 l 1,24,-1
 1034 1341 l 1,25,-1
 1454 1341 l 1,0,-1
EndSplineSet
EndChar

StartChar: L
Encoding: 76 76 47
Width: 1139
GlyphClass: 2
Flags: W
LayerCount: 2
Fore
SplineSet
774 1288 m 1,0,-1
 563 1262 l 1,1,-1
 355 86 l 1,2,-1
 569 86 l 2,3,4
 694 86 694 86 764 93 c 128,-1,5
 834 100 834 100 866 106 c 1,6,-1
 977 385 l 1,7,-1
 1042 385 l 1,8,-1
 956 0 l 1,9,-1
 -24 0 l 1,10,-1
 -14 53 l 1,11,-1
 161 80 l 1,12,-1
 370 1262 l 1,13,-1
 202 1288 l 1,14,-1
 212 1341 l 1,15,-1
 784 1341 l 1,16,-1
 774 1288 l 1,0,-1
EndSplineSet
EndChar

StartChar: M
Encoding: 77 77 48
Width: 1706
GlyphClass: 2
Flags: W
LayerCount: 2
Fore
SplineSet
721 0 m 1,0,-1
 686 0 l 1,1,-1
 455 1153 l 1,2,-1
 266 80 l 1,3,-1
 442 53 l 1,4,-1
 432 0 l 1,5,-1
 -24 0 l 1,6,-1
 -14 53 l 1,7,-1
 161 80 l 1,8,-1
 370 1262 l 1,9,-1
 202 1288 l 1,10,-1
 212 1341 l 1,11,-1
 594 1341 l 1,12,-1
 800 318 l 1,13,-1
 1398 1341 l 1,14,-1
 1800 1341 l 1,15,-1
 1790 1288 l 1,16,-1
 1614 1262 l 1,17,-1
 1405 80 l 1,18,-1
 1573 53 l 1,19,-1
 1563 0 l 1,20,-1
 1019 0 l 1,21,-1
 1029 53 l 1,22,-1
 1213 80 l 1,23,-1
 1402 1153 l 1,24,-1
 721 0 l 1,0,-1
EndSplineSet
EndChar

StartChar: N
Encoding: 78 78 49
Width: 1366
GlyphClass: 2
Flags: W
LayerCount: 2
Fore
SplineSet
1170 1262 m 1,0,-1
 994 1288 l 1,1,-1
 1004 1341 l 1,2,-1
 1461 1341 l 1,3,-1
 1451 1288 l 1,4,-1
 1275 1262 l 1,5,-1
 1052 0 l 1,6,-1
 955 0 l 1,7,-1
 474 1206 l 1,8,-1
 275 80 l 1,9,-1
 451 53 l 1,10,-1
 441 0 l 1,11,-1
 -15 0 l 1,12,-1
 -5 53 l 1,13,-1
 170 80 l 1,14,-1
 379 1262 l 1,15,-1
 211 1288 l 1,16,-1
 221 1341 l 1,17,-1
 609 1341 l 1,18,-1
 1008 336 l 1,19,-1
 1170 1262 l 1,0,-1
EndSplineSet
EndChar

StartChar: O
Encoding: 79 79 50
Width: 1479
GlyphClass: 2
Flags: W
LayerCount: 2
Fore
SplineSet
1231 832 m 0,0,1
 1231 933 1231 933 1204 1015 c 128,-1,2
 1177 1097 1177 1097 1128 1155 c 128,-1,3
 1079 1213 1079 1213 1010.5 1244.5 c 128,-1,4
 942 1276 942 1276 858 1276 c 0,5,6
 766 1276 766 1276 689 1240 c 128,-1,7
 612 1204 612 1204 550.5 1144 c 128,-1,8
 489 1084 489 1084 442.5 1005.5 c 128,-1,9
 396 927 396 927 365 841 c 128,-1,10
 334 755 334 755 318.5 667.5 c 128,-1,11
 303 580 303 580 303 503 c 0,12,13
 303 403 303 403 329.5 322 c 128,-1,14
 356 241 356 241 404 184 c 128,-1,15
 452 127 452 127 519.5 96 c 128,-1,16
 587 65 587 65 670 65 c 0,17,18
 762 65 762 65 839.5 100.5 c 128,-1,19
 917 136 917 136 979.5 195 c 128,-1,20
 1042 254 1042 254 1089 332 c 128,-1,21
 1136 410 1136 410 1167.5 495.5 c 128,-1,22
 1199 581 1199 581 1215 667.5 c 128,-1,23
 1231 754 1231 754 1231 832 c 0,0,1
663 -20 m 0,24,25
 540 -20 540 -20 437 19 c 128,-1,26
 334 58 334 58 260 128.5 c 128,-1,27
 186 199 186 199 144.5 297 c 128,-1,28
 103 395 103 395 103 514 c 0,29,30
 103 627 103 627 126 733 c 128,-1,31
 149 839 149 839 194 932.5 c 128,-1,32
 239 1026 239 1026 304.5 1104 c 128,-1,33
 370 1182 370 1182 455.5 1238 c 128,-1,34
 541 1294 541 1294 645 1325 c 128,-1,35
 749 1356 749 1356 871 1356 c 0,36,37
 994 1356 994 1356 1097 1317 c 128,-1,38
 1200 1278 1200 1278 1274 1207.5 c 128,-1,39
 1348 1137 1348 1137 1389.5 1038.5 c 128,-1,40
 1431 940 1431 940 1431 822 c 0,41,42
 1431 725 1431 725 1411.5 624.5 c 128,-1,43
 1392 524 1392 524 1351.5 430.5 c 128,-1,44
 1311 337 1311 337 1249 255 c 128,-1,45
 1187 173 1187 173 1101.5 112 c 128,-1,46
 1016 51 1016 51 907 15.5 c 128,-1,47
 798 -20 798 -20 663 -20 c 0,24,25
EndSplineSet
EndChar

StartChar: P
Encoding: 80 80 51
Width: 1251
GlyphClass: 2
Flags: W
LayerCount: 2
Fore
SplineSet
612 616 m 2,0,1
 807 616 807 616 903.5 705.5 c 128,-1,2
 1000 795 1000 795 1000 973 c 0,3,4
 1000 1116 1000 1116 927.5 1183.5 c 128,-1,5
 855 1251 855 1251 709 1251 c 2,6,-1
 561 1251 l 1,7,-1
 449 616 l 1,8,-1
 612 616 l 2,0,1
433 526 m 1,9,-1
 354 80 l 1,10,-1
 573 53 l 1,11,-1
 563 0 l 1,12,-1
 -11 0 l 1,13,-1
 -1 53 l 1,14,-1
 161 80 l 1,15,-1
 370 1262 l 1,16,-1
 202 1288 l 1,17,-1
 212 1341 l 1,18,-1
 749 1341 l 2,19,20
 868 1341 868 1341 953 1315 c 128,-1,21
 1038 1289 1038 1289 1093 1242.5 c 128,-1,22
 1148 1196 1148 1196 1173.5 1130.5 c 128,-1,23
 1199 1065 1199 1065 1199 986 c 0,24,25
 1199 886 1199 886 1167 801.5 c 128,-1,26
 1135 717 1135 717 1066.5 656 c 128,-1,27
 998 595 998 595 891 560.5 c 128,-1,28
 784 526 784 526 634 526 c 2,29,-1
 433 526 l 1,9,-1
EndSplineSet
EndChar

StartChar: Q
Encoding: 81 81 52
Width: 1479
GlyphClass: 2
Flags: W
LayerCount: 2
Fore
SplineSet
665 -20 m 1,0,1
 543 -19 543 -19 442 20.5 c 128,-1,2
 341 60 341 60 267.5 130.5 c 128,-1,3
 194 201 194 201 153.5 298.5 c 128,-1,4
 113 396 113 396 113 514 c 0,5,6
 113 627 113 627 136 733 c 128,-1,7
 159 839 159 839 204 932.5 c 128,-1,8
 249 1026 249 1026 314.5 1104 c 128,-1,9
 380 1182 380 1182 465.5 1238 c 128,-1,10
 551 1294 551 1294 655 1325 c 128,-1,11
 759 1356 759 1356 881 1356 c 0,12,13
 1004 1356 1004 1356 1107 1317 c 128,-1,14
 1210 1278 1210 1278 1284 1207.5 c 128,-1,15
 1358 1137 1358 1137 1399.5 1038.5 c 128,-1,16
 1441 940 1441 940 1441 822 c 0,17,18
 1441 738 1441 738 1426.5 651 c 128,-1,19
 1412 564 1412 564 1382 481 c 128,-1,20
 1352 398 1352 398 1305.5 322 c 128,-1,21
 1259 246 1259 246 1196 183 c 128,-1,22
 1133 120 1133 120 1052 73.5 c 128,-1,23
 971 27 971 27 872 3 c 1,24,-1
 893 -28 l 2,25,26
 929 -81 929 -81 959.5 -120 c 128,-1,27
 990 -159 990 -159 1021.5 -184 c 128,-1,28
 1053 -209 1053 -209 1087.5 -221 c 128,-1,29
 1122 -233 1122 -233 1164 -233 c 0,30,31
 1171 -233 1171 -233 1183 -232.5 c 128,-1,32
 1195 -232 1195 -232 1207.5 -231.5 c 128,-1,33
 1220 -231 1220 -231 1230.5 -230.5 c 128,-1,34
 1241 -230 1241 -230 1247 -229 c 1,35,-1
 1235 -295 l 1,36,37
 1223 -300 1223 -300 1200 -306 c 128,-1,38
 1177 -312 1177 -312 1148.5 -318 c 128,-1,39
 1120 -324 1120 -324 1089.5 -328 c 128,-1,40
 1059 -332 1059 -332 1032 -332 c 0,41,42
 975 -332 975 -332 932 -317.5 c 128,-1,43
 889 -303 889 -303 851 -271.5 c 128,-1,44
 813 -240 813 -240 776 -190 c 128,-1,45
 739 -140 739 -140 695 -68 c 2,46,-1
 665 -20 l 1,0,1
1241 832 m 0,47,48
 1241 933 1241 933 1214 1015 c 128,-1,49
 1187 1097 1187 1097 1138 1155 c 128,-1,50
 1089 1213 1089 1213 1020.5 1244.5 c 128,-1,51
 952 1276 952 1276 868 1276 c 0,52,53
 776 1276 776 1276 699 1240 c 128,-1,54
 622 1204 622 1204 560.5 1144 c 128,-1,55
 499 1084 499 1084 452.5 1005.5 c 128,-1,56
 406 927 406 927 375 841 c 128,-1,57
 344 755 344 755 328.5 667.5 c 128,-1,58
 313 580 313 580 313 503 c 0,59,60
 313 403 313 403 339.5 322 c 128,-1,61
 366 241 366 241 414 184 c 128,-1,62
 462 127 462 127 529.5 96 c 128,-1,63
 597 65 597 65 680 65 c 0,64,65
 772 65 772 65 849.5 100.5 c 128,-1,66
 927 136 927 136 989.5 195 c 128,-1,67
 1052 254 1052 254 1099 332 c 128,-1,68
 1146 410 1146 410 1177.5 495.5 c 128,-1,69
 1209 581 1209 581 1225 667.5 c 128,-1,70
 1241 754 1241 754 1241 832 c 0,47,48
EndSplineSet
EndChar

StartChar: R
Encoding: 82 82 53
Width: 1251
GlyphClass: 2
Flags: W
LayerCount: 2
Fore
SplineSet
444 588 m 1,0,-1
 354 80 l 1,1,-1
 533 53 l 1,2,-1
 523 0 l 1,3,-1
 -11 0 l 1,4,-1
 -1 53 l 1,5,-1
 161 80 l 1,6,-1
 370 1262 l 1,7,-1
 202 1288 l 1,8,-1
 212 1341 l 1,9,-1
 744 1341 l 2,10,11
 861 1341 861 1341 945.5 1318 c 128,-1,12
 1030 1295 1030 1295 1085 1252.5 c 128,-1,13
 1140 1210 1140 1210 1166.5 1150 c 128,-1,14
 1193 1090 1193 1090 1193 1016 c 0,15,16
 1193 933 1193 933 1169.5 867.5 c 128,-1,17
 1146 802 1146 802 1101 753 c 128,-1,18
 1056 704 1056 704 991 670 c 128,-1,19
 926 636 926 636 843 616 c 1,20,-1
 1070 80 l 1,21,-1
 1217 53 l 1,22,-1
 1207 0 l 1,23,-1
 899 0 l 1,24,-1
 653 588 l 1,25,-1
 444 588 l 1,0,-1
616 678 m 2,26,27
 705 678 705 678 775.5 699.5 c 128,-1,28
 846 721 846 721 894.5 763 c 128,-1,29
 943 805 943 805 969 867 c 128,-1,30
 995 929 995 929 995 1010 c 0,31,32
 995 1131 995 1131 923 1191 c 128,-1,33
 851 1251 851 1251 709 1251 c 2,34,-1
 561 1251 l 1,35,-1
 460 678 l 1,36,-1
 616 678 l 2,26,27
EndSplineSet
EndChar

StartChar: S
Encoding: 83 83 54
Width: 1024
GlyphClass: 2
Flags: W
LayerCount: 2
Fore
SplineSet
76 371 m 1,0,-1
 141 371 l 1,1,-1
 142 180 l 1,2,3
 158 156 158 156 186.5 134.5 c 128,-1,4
 215 113 215 113 252 96.5 c 128,-1,5
 289 80 289 80 332.5 70.5 c 128,-1,6
 376 61 376 61 423 61 c 0,7,8
 508 61 508 61 571.5 81.5 c 128,-1,9
 635 102 635 102 678 140.5 c 128,-1,10
 721 179 721 179 742.5 233 c 128,-1,11
 764 287 764 287 764 355 c 0,12,13
 764 409 764 409 740 449 c 128,-1,14
 716 489 716 489 676 521 c 128,-1,15
 636 553 636 553 585.5 580 c 128,-1,16
 535 607 535 607 482 634.5 c 128,-1,17
 429 662 429 662 378.5 693.5 c 128,-1,18
 328 725 328 725 288 766.5 c 128,-1,19
 248 808 248 808 224 862 c 128,-1,20
 200 916 200 916 200 989 c 0,21,22
 200 1081 200 1081 232.5 1150 c 128,-1,23
 265 1219 265 1219 325.5 1264.5 c 128,-1,24
 386 1310 386 1310 472.5 1333 c 128,-1,25
 559 1356 559 1356 667 1356 c 0,26,27
 766 1356 766 1356 844.5 1345.5 c 128,-1,28
 923 1335 923 1335 991 1318 c 1,29,-1
 942 1039 l 1,30,-1
 877 1039 l 1,31,-1
 872 1210 l 1,32,33
 840 1236 840 1236 783 1254 c 128,-1,34
 726 1272 726 1272 652 1272 c 0,35,36
 579 1272 579 1272 526.5 1253 c 128,-1,37
 474 1234 474 1234 440.5 1200.5 c 128,-1,38
 407 1167 407 1167 391 1122 c 128,-1,39
 375 1077 375 1077 375 1025 c 0,40,41
 375 975 375 975 399.5 937.5 c 128,-1,42
 424 900 424 900 463.5 869.5 c 128,-1,43
 503 839 503 839 554 812.5 c 128,-1,44
 605 786 605 786 657.5 758 c 128,-1,45
 710 730 710 730 761 698 c 128,-1,46
 812 666 812 666 851.5 625 c 128,-1,47
 891 584 891 584 915.5 530.5 c 128,-1,48
 940 477 940 477 940 406 c 0,49,50
 940 307 940 307 907.5 228 c 128,-1,51
 875 149 875 149 810 94 c 128,-1,52
 745 39 745 39 647 9.5 c 128,-1,53
 549 -20 549 -20 417 -20 c 0,54,55
 291 -20 291 -20 190.5 5.5 c 128,-1,56
 90 31 90 31 24 73 c 1,57,-1
 76 371 l 1,0,-1
EndSplineSet
EndChar

StartChar: T
Encoding: 84 84 55
Width: 1139
GlyphClass: 2
Flags: W
LayerCount: 2
Fore
SplineSet
176 0 m 1,0,-1
 186 53 l 1,1,-1
 403 80 l 1,2,-1
 610 1255 l 1,3,-1
 559 1255 l 2,4,5
 494 1255 494 1255 447 1253.5 c 128,-1,6
 400 1252 400 1252 366 1249 c 128,-1,7
 332 1246 332 1246 308 1242.5 c 128,-1,8
 284 1239 284 1239 265 1235 c 1,9,-1
 201 1026 l 1,10,-1
 134 1026 l 1,11,-1
 190 1341 l 1,12,-1
 1260 1341 l 1,13,-1
 1204 1026 l 1,14,-1
 1136 1026 l 1,15,-1
 1146 1235 l 1,16,17
 1111 1242 1111 1242 1040 1247.5 c 128,-1,18
 969 1253 969 1253 852 1253 c 2,19,-1
 803 1253 l 1,20,-1
 596 80 l 1,21,-1
 805 53 l 1,22,-1
 795 0 l 1,23,-1
 176 0 l 1,0,-1
EndSplineSet
EndChar

StartChar: U
Encoding: 85 85 56
Width: 1479
GlyphClass: 2
Flags: W
LayerCount: 2
Fore
SplineSet
1299 1262 m 1,0,-1
 1124 1288 l 1,1,-1
 1133 1341 l 1,2,-1
 1590 1341 l 1,3,-1
 1581 1288 l 1,4,-1
 1404 1262 l 1,5,-1
 1263 461 l 2,6,7
 1247 369 1247 369 1206.5 282.5 c 128,-1,8
 1166 196 1166 196 1095.5 129 c 128,-1,9
 1025 62 1025 62 922.5 21 c 128,-1,10
 820 -20 820 -20 679 -20 c 0,11,12
 446 -20 446 -20 324 74.5 c 128,-1,13
 202 169 202 169 202 348 c 0,14,15
 202 374 202 374 205 403.5 c 128,-1,16
 208 433 208 433 212 453 c 2,17,-1
 355 1262 l 1,18,-1
 188 1288 l 1,19,-1
 197 1341 l 1,20,-1
 733 1341 l 1,21,-1
 724 1288 l 1,22,-1
 547 1262 l 1,23,-1
 406 457 l 2,24,25
 401 430 401 430 398.5 404.5 c 128,-1,26
 396 379 396 379 396 355 c 0,27,28
 396 295 396 295 413 246 c 128,-1,29
 430 197 430 197 466 163 c 128,-1,30
 502 129 502 129 559 110.5 c 128,-1,31
 616 92 616 92 696 92 c 0,32,33
 808 92 808 92 889 122 c 128,-1,34
 970 152 970 152 1025.5 202 c 128,-1,35
 1081 252 1081 252 1113 317 c 128,-1,36
 1145 382 1145 382 1157 453 c 2,37,-1
 1299 1262 l 1,0,-1
EndSplineSet
EndChar

StartChar: V
Encoding: 86 86 57
Width: 1251
GlyphClass: 2
Flags: W
LayerCount: 2
Fore
SplineSet
1448 1341 m 1,0,-1
 1438 1288 l 1,1,-1
 1307 1262 l 1,2,-1
 580 -31 l 1,3,-1
 529 -31 l 1,4,-1
 234 1262 l 1,5,-1
 107 1288 l 1,6,-1
 117 1341 l 1,7,-1
 610 1341 l 1,8,-1
 600 1288 l 1,9,-1
 431 1262 l 1,10,-1
 649 283 l 1,11,-1
 1186 1262 l 1,12,-1
 1034 1288 l 1,13,-1
 1045 1341 l 1,14,-1
 1448 1341 l 1,0,-1
EndSplineSet
EndChar

StartChar: W
Encoding: 87 87 58
Width: 1706
GlyphClass: 2
Flags: W
LayerCount: 2
Fore
SplineSet
1731 1262 m 1,0,-1
 1135 -31 l 1,1,-1
 1072 -31 l 1,2,-1
 926 867 l 1,3,-1
 508 -31 l 1,4,-1
 443 -31 l 1,5,-1
 248 1262 l 1,6,-1
 135 1288 l 1,7,-1
 144 1341 l 1,8,-1
 611 1341 l 1,9,-1
 602 1288 l 1,10,-1
 441 1262 l 1,11,-1
 581 326 l 1,12,-1
 1007 1247 l 1,13,-1
 1053 1247 l 1,14,-1
 1204 324 l 1,15,-1
 1623 1262 l 1,16,-1
 1458 1288 l 1,17,-1
 1467 1341 l 1,18,-1
 1861 1341 l 1,19,-1
 1852 1288 l 1,20,-1
 1731 1262 l 1,0,-1
EndSplineSet
EndChar

StartChar: X
Encoding: 88 88 59
Width: 1251
GlyphClass: 2
Flags: W
LayerCount: 2
Fore
SplineSet
751 753 m 1,0,-1
 990 80 l 1,1,-1
 1138 53 l 1,2,-1
 1128 0 l 1,3,-1
 615 0 l 1,4,-1
 625 53 l 1,5,-1
 789 80 l 1,6,-1
 614 587 l 1,7,-1
 217 80 l 1,8,-1
 379 53 l 1,9,-1
 369 0 l 1,10,-1
 -68 0 l 1,11,-1
 -58 53 l 1,12,-1
 93 80 l 1,13,-1
 573 686 l 1,14,-1
 369 1262 l 1,15,-1
 222 1288 l 1,16,-1
 232 1341 l 1,17,-1
 725 1341 l 1,18,-1
 715 1288 l 1,19,-1
 571 1262 l 1,20,-1
 711 853 l 1,21,-1
 1030 1262 l 1,22,-1
 898 1288 l 1,23,-1
 908 1341 l 1,24,-1
 1317 1341 l 1,25,-1
 1307 1288 l 1,26,-1
 1155 1262 l 1,27,-1
 751 753 l 1,0,-1
EndSplineSet
EndChar

StartChar: Y
Encoding: 89 89 60
Width: 1139
GlyphClass: 2
Flags: W
LayerCount: 2
Fore
SplineSet
688 528 m 1,0,-1
 609 80 l 1,1,-1
 818 53 l 1,2,-1
 808 0 l 1,3,-1
 189 0 l 1,4,-1
 199 53 l 1,5,-1
 416 80 l 1,6,-1
 494 522 l 1,7,-1
 264 1262 l 1,8,-1
 117 1288 l 1,9,-1
 127 1341 l 1,10,-1
 674 1341 l 1,11,-1
 664 1288 l 1,12,-1
 470 1262 l 1,13,-1
 658 635 l 1,14,-1
 1051 1262 l 1,15,-1
 875 1288 l 1,16,-1
 885 1341 l 1,17,-1
 1321 1341 l 1,18,-1
 1311 1288 l 1,19,-1
 1160 1262 l 1,20,-1
 688 528 l 1,0,-1
EndSplineSet
EndChar

StartChar: Z
Encoding: 90 90 61
Width: 1139
GlyphClass: 2
Flags: W
LayerCount: 2
Fore
SplineSet
42 94 m 1,0,-1
 907 1255 l 1,1,-1
 707 1255 l 2,2,3
 576 1255 576 1255 489 1249 c 128,-1,4
 402 1243 402 1243 364 1235 c 1,5,-1
 296 1024 l 1,6,-1
 227 1024 l 1,7,-1
 283 1341 l 1,8,-1
 1156 1341 l 1,9,-1
 1140 1255 l 1,10,-1
 267 84 l 1,11,-1
 507 84 l 2,12,13
 572 84 572 84 637 87.5 c 128,-1,14
 702 91 702 91 758 96.5 c 128,-1,15
 814 102 814 102 856 107.5 c 128,-1,16
 898 113 898 113 917 117 c 1,17,-1
 1021 373 l 1,18,-1
 1091 373 l 1,19,-1
 998 0 l 1,20,-1
 25 0 l 1,21,-1
 42 94 l 1,0,-1
EndSplineSet
EndChar

StartChar: bracketleft
Encoding: 91 91 62
Width: 797
GlyphClass: 2
Flags: W
LayerCount: 2
Fore
SplineSet
118 -274 m 1,0,-1
 417 1421 l 1,1,-1
 873 1421 l 1,2,-1
 865 1374 l 1,3,-1
 560 1333 l 1,4,-1
 292 -186 l 1,5,-1
 582 -227 l 1,6,-1
 574 -274 l 1,7,-1
 118 -274 l 1,0,-1
EndSplineSet
EndChar

StartChar: backslash
Encoding: 92 92 63
Width: 569
GlyphClass: 2
Flags: W
LayerCount: 2
Fore
SplineSet
158 1350 m 1,0,-1
 256 1350 l 1,1,-1
 470 -20 l 1,2,-1
 369 -20 l 1,3,-1
 158 1350 l 1,0,-1
EndSplineSet
EndChar

StartChar: bracketright
Encoding: 93 93 64
Width: 797
GlyphClass: 2
Flags: W
LayerCount: 2
Fore
SplineSet
-49 -274 m 1,0,-1
 -41 -227 l 1,1,-1
 262 -186 l 1,2,-1
 530 1333 l 1,3,-1
 241 1374 l 1,4,-1
 249 1421 l 1,5,-1
 705 1421 l 1,6,-1
 406 -274 l 1,7,-1
 -49 -274 l 1,0,-1
EndSplineSet
EndChar

StartChar: asciicircum
Encoding: 94 94 65
Width: 864
GlyphClass: 2
Flags: W
LayerCount: 2
Fore
SplineSet
500 1341 m 1,0,-1
 549 1341 l 1,1,-1
 977 389 l 1,2,-1
 874 389 l 1,3,-1
 524 1198 l 1,4,-1
 174 389 l 1,5,-1
 72 389 l 1,6,-1
 500 1341 l 1,0,-1
EndSplineSet
EndChar

StartChar: underscore
Encoding: 95 95 66
Width: 1024
GlyphClass: 2
Flags: W
LayerCount: 2
Fore
SplineSet
-16 -264 m 1,0,-1
 -16 -162 l 1,1,-1
 1040 -162 l 1,2,-1
 1040 -264 l 1,3,-1
 -16 -264 l 1,0,-1
EndSplineSet
EndChar

StartChar: grave
Encoding: 96 96 67
Width: 682
GlyphClass: 2
Flags: W
LayerCount: 2
Fore
SplineSet
610 1118 m 1,0,-1
 303 1386 l 1,1,-1
 309 1423 l 1,2,-1
 512 1423 l 1,3,-1
 670 1151 l 1,4,-1
 665 1118 l 1,5,-1
 610 1118 l 1,0,-1
EndSplineSet
EndChar

StartChar: a
Encoding: 97 97 68
Width: 1024
GlyphClass: 2
Flags: W
LayerCount: 2
Fore
SplineSet
789 70 m 1,0,-1
 902 45 l 1,1,-1
 894 0 l 1,2,-1
 609 0 l 1,3,-1
 638 156 l 1,4,5
 554 68 554 68 477 23.5 c 128,-1,6
 400 -21 400 -21 329 -21 c 0,7,8
 272 -21 272 -21 223 0.5 c 128,-1,9
 174 22 174 22 138 64 c 128,-1,10
 102 106 102 106 81.5 168.5 c 128,-1,11
 61 231 61 231 61 313 c 0,12,13
 61 399 61 399 80 480.5 c 128,-1,14
 99 562 99 562 134.5 634.5 c 128,-1,15
 170 707 170 707 220 767.5 c 128,-1,16
 270 828 270 828 332 871.5 c 128,-1,17
 394 915 394 915 467 939.5 c 128,-1,18
 540 964 540 964 620 964 c 0,19,20
 686 964 686 964 741.5 953 c 128,-1,21
 797 942 797 942 848 922 c 1,22,23
 851 924 851 924 855 927 c 0,24,25
 858 929 858 929 862 932 c 128,-1,26
 866 935 866 935 871 939 c 0,27,28
 881 946 881 946 893 956 c 1,29,-1
 947 956 l 1,30,-1
 789 70 l 1,0,-1
760 837 m 1,31,32
 741 850 741 850 724 859 c 128,-1,33
 707 868 707 868 688.5 874 c 128,-1,34
 670 880 670 880 649.5 882.5 c 128,-1,35
 629 885 629 885 603 885 c 0,36,37
 519 885 519 885 451.5 835.5 c 128,-1,38
 384 786 384 786 337 707.5 c 128,-1,39
 290 629 290 629 265 532 c 128,-1,40
 240 435 240 435 240 339 c 0,41,42
 240 276 240 276 254 231.5 c 128,-1,43
 268 187 268 187 290.5 158.5 c 128,-1,44
 313 130 313 130 342.5 117 c 128,-1,45
 372 104 372 104 404 104 c 0,46,47
 437 104 437 104 470 115.5 c 128,-1,48
 503 127 503 127 534.5 146.5 c 128,-1,49
 566 166 566 166 595.5 191 c 128,-1,50
 625 216 625 216 651 243 c 1,51,-1
 760 837 l 1,31,32
EndSplineSet
EndChar

StartChar: b
Encoding: 98 98 69
Width: 1024
GlyphClass: 2
Flags: W
LayerCount: 2
Fore
SplineSet
305 1352 m 1,0,-1
 172 1376 l 1,1,-1
 180 1421 l 1,2,-1
 480 1421 l 1,3,-1
 406 980 l 2,4,5
 403 960 403 960 398.5 934.5 c 128,-1,6
 394 909 394 909 388.5 882.5 c 128,-1,7
 383 856 383 856 377.5 830.5 c 128,-1,8
 372 805 372 805 367 787 c 1,9,10
 404 825 404 825 444.5 857.5 c 128,-1,11
 485 890 485 890 526 914 c 128,-1,12
 567 938 567 938 608 951.5 c 128,-1,13
 649 965 649 965 687 965 c 0,14,15
 745 965 745 965 795.5 943.5 c 128,-1,16
 846 922 846 922 883 880 c 128,-1,17
 920 838 920 838 941 775.5 c 128,-1,18
 962 713 962 713 962 631 c 0,19,20
 962 545 962 545 943 463.5 c 128,-1,21
 924 382 924 382 889 309.5 c 128,-1,22
 854 237 854 237 803.5 176.5 c 128,-1,23
 753 116 753 116 690 72.5 c 128,-1,24
 627 29 627 29 553 4.5 c 128,-1,25
 479 -20 479 -20 396 -20 c 0,26,27
 359 -20 359 -20 318.5 -15.5 c 128,-1,28
 278 -11 278 -11 236.5 -1 c 128,-1,29
 195 9 195 9 154 25 c 128,-1,30
 113 41 113 41 76 64 c 1,31,-1
 305 1352 l 1,0,-1
248 107 m 1,32,33
 277 83 277 83 318 71 c 128,-1,34
 359 59 359 59 409 59 c 0,35,36
 492 59 492 59 560.5 106 c 128,-1,37
 629 153 629 153 678.5 229.5 c 128,-1,38
 728 306 728 306 755.5 404.5 c 128,-1,39
 783 503 783 503 783 605 c 0,40,41
 783 717 783 717 736.5 778.5 c 128,-1,42
 690 840 690 840 612 840 c 0,43,44
 581 840 581 840 548 829.5 c 128,-1,45
 515 819 515 819 482 800 c 128,-1,46
 449 781 449 781 416.5 756 c 128,-1,47
 384 731 384 731 354 701 c 1,48,-1
 248 107 l 1,32,33
EndSplineSet
EndChar

StartChar: c
Encoding: 99 99 70
Width: 909
GlyphClass: 2
Flags: W
LayerCount: 2
Fore
SplineSet
774 142 m 1,0,1
 749 119 749 119 710.5 91 c 128,-1,2
 672 63 672 63 623.5 38.5 c 128,-1,3
 575 14 575 14 518 -3 c 128,-1,4
 461 -20 461 -20 400 -20 c 0,5,6
 316 -20 316 -20 252.5 5.5 c 128,-1,7
 189 31 189 31 147 77.5 c 128,-1,8
 105 124 105 124 84 188 c 128,-1,9
 63 252 63 252 63 330 c 0,10,11
 63 431 63 431 85.5 517.5 c 128,-1,12
 108 604 108 604 147 674.5 c 128,-1,13
 186 745 186 745 238.5 799 c 128,-1,14
 291 853 291 853 351 890 c 128,-1,15
 411 927 411 927 475.5 946 c 128,-1,16
 540 965 540 965 604 965 c 0,17,18
 642 965 642 965 683 960.5 c 128,-1,19
 724 956 724 956 762 948.5 c 128,-1,20
 800 941 800 941 832.5 931.5 c 128,-1,21
 865 922 865 922 887 913 c 1,22,-1
 842 651 l 1,23,-1
 787 651 l 1,24,-1
 771 825 l 1,25,26
 742 854 742 854 701 871 c 128,-1,27
 660 888 660 888 603 888 c 0,28,29
 532 888 532 888 466.5 848 c 128,-1,30
 401 808 401 808 351 735.5 c 128,-1,31
 301 663 301 663 270.5 562 c 128,-1,32
 240 461 240 461 240 340 c 0,33,34
 240 272 240 272 254.5 223.5 c 128,-1,35
 269 175 269 175 296 144 c 128,-1,36
 323 113 323 113 361 98.5 c 128,-1,37
 399 84 399 84 446 84 c 0,38,39
 531 84 531 84 605 113 c 128,-1,40
 679 142 679 142 744 184 c 1,41,-1
 774 142 l 1,0,1
EndSplineSet
EndChar

StartChar: d
Encoding: 100 100 71
Width: 1024
GlyphClass: 2
Flags: W
LayerCount: 2
Fore
SplineSet
783 941 m 1,0,1
 784 953 784 953 787 975.5 c 128,-1,2
 790 998 790 998 794 1022.5 c 128,-1,3
 798 1047 798 1047 801.5 1070 c 128,-1,4
 805 1093 805 1093 808 1108 c 2,5,-1
 851 1352 l 1,6,-1
 697 1376 l 1,7,-1
 705 1421 l 1,8,-1
 1029 1421 l 1,9,-1
 789 70 l 1,10,-1
 902 45 l 1,11,-1
 894 0 l 1,12,-1
 609 0 l 1,13,-1
 638 156 l 1,14,15
 554 68 554 68 477 23.5 c 128,-1,16
 400 -21 400 -21 329 -21 c 0,17,18
 269 -21 269 -21 220 2 c 128,-1,19
 171 25 171 25 136 68.5 c 128,-1,20
 101 112 101 112 81.5 175 c 128,-1,21
 62 238 62 238 62 317 c 0,22,23
 62 403 62 403 81 484.5 c 128,-1,24
 100 566 100 566 135 638 c 128,-1,25
 170 710 170 710 219.5 769.5 c 128,-1,26
 269 829 269 829 331 872.5 c 128,-1,27
 393 916 393 916 465.5 940 c 128,-1,28
 538 964 538 964 618 964 c 0,29,30
 668 964 668 964 708.5 958 c 128,-1,31
 749 952 749 952 783 941 c 1,0,1
760 837 m 1,32,33
 725 860 725 860 688 873 c 128,-1,34
 651 886 651 886 598 886 c 0,35,36
 544 886 544 886 497 863 c 128,-1,37
 450 840 450 840 410 800.5 c 128,-1,38
 370 761 370 761 338.5 708 c 128,-1,39
 307 655 307 655 285 594 c 128,-1,40
 263 533 263 533 251.5 468 c 128,-1,41
 240 403 240 403 240 339 c 0,42,43
 240 276 240 276 254 231.5 c 128,-1,44
 268 187 268 187 290.5 158.5 c 128,-1,45
 313 130 313 130 342.5 117 c 128,-1,46
 372 104 372 104 403 104 c 0,47,48
 459 104 459 104 524.5 140.5 c 128,-1,49
 590 177 590 177 651 243 c 1,50,-1
 760 837 l 1,32,33
EndSplineSet
EndChar

StartChar: e
Encoding: 101 101 72
Width: 909
GlyphClass: 2
Flags: W
LayerCount: 2
Fore
SplineSet
863 760 m 0,0,1
 863 695 863 695 822 637 c 128,-1,2
 781 579 781 579 702.5 532.5 c 128,-1,3
 624 486 624 486 508.5 454.5 c 128,-1,4
 393 423 393 423 244 413 c 1,5,6
 243 404 243 404 241.5 385 c 128,-1,7
 240 366 240 366 240 340 c 0,8,9
 240 291 240 291 249.5 245 c 128,-1,10
 259 199 259 199 283 163 c 128,-1,11
 307 127 307 127 348 105.5 c 128,-1,12
 389 84 389 84 452 84 c 0,13,14
 542 84 542 84 618 114.5 c 128,-1,15
 694 145 694 145 760 184 c 1,16,-1
 789 142 l 1,17,18
 757 115 757 115 714 86 c 128,-1,19
 671 57 671 57 620.5 33.5 c 128,-1,20
 570 10 570 10 514 -5 c 128,-1,21
 458 -20 458 -20 400 -20 c 0,22,23
 315 -20 315 -20 252 4.5 c 128,-1,24
 189 29 189 29 147 74 c 128,-1,25
 105 119 105 119 84 184 c 128,-1,26
 63 249 63 249 63 330 c 0,27,28
 63 419 63 419 83 500.5 c 128,-1,29
 103 582 103 582 139 652.5 c 128,-1,30
 175 723 175 723 225 780.5 c 128,-1,31
 275 838 275 838 333.5 879 c 128,-1,32
 392 920 392 920 457.5 942.5 c 128,-1,33
 523 965 523 965 591 965 c 0,34,35
 655 965 655 965 705.5 949.5 c 128,-1,36
 756 934 756 934 791 906.5 c 128,-1,37
 826 879 826 879 844.5 841.5 c 128,-1,38
 863 804 863 804 863 760 c 0,0,1
252 476 m 1,39,40
 361 484 361 484 443 510.5 c 128,-1,41
 525 537 525 537 579.5 575.5 c 128,-1,42
 634 614 634 614 661 661.5 c 128,-1,43
 688 709 688 709 688 760 c 0,44,45
 688 816 688 816 657.5 852 c 128,-1,46
 627 888 627 888 569 888 c 0,47,48
 510 888 510 888 458 850.5 c 128,-1,49
 406 813 406 813 364.5 754 c 128,-1,50
 323 695 323 695 294 621.5 c 128,-1,51
 265 548 265 548 252 476 c 1,39,40
EndSplineSet
EndChar

StartChar: f
Encoding: 102 102 73
Width: 569
GlyphClass: 2
Flags: W
LayerCount: 2
Fore
SplineSet
189 -436 m 1,0,-1
 23 -436 l 1,1,-1
 248 856 l 1,2,-1
 86 856 l 1,3,-1
 94 905 l 1,4,-1
 264 944 l 1,5,-1
 276 1010 l 2,6,7
 316 1233 316 1233 410.5 1337.5 c 128,-1,8
 505 1442 505 1442 666 1442 c 0,9,10
 711 1442 711 1442 745 1436.5 c 128,-1,11
 779 1431 779 1431 805 1423 c 1,12,-1
 770 1227 l 1,13,-1
 721 1227 l 1,14,-1
 702 1341 l 1,15,16
 673 1362 673 1362 618 1362 c 0,17,18
 583 1362 583 1362 558.5 1346.5 c 128,-1,19
 534 1331 534 1331 515.5 1298.5 c 128,-1,20
 497 1266 497 1266 483.5 1216 c 128,-1,21
 470 1166 470 1166 457 1096 c 2,22,-1
 428 940 l 1,23,-1
 637 940 l 1,24,-1
 623 856 l 1,25,-1
 414 856 l 1,26,-1
 189 -436 l 1,0,-1
EndSplineSet
EndChar

StartChar: g
Encoding: 103 103 74
Width: 1024
GlyphClass: 2
Flags: W
LayerCount: 2
Fore
SplineSet
418 104 m 0,0,1
 452 104 452 104 487.5 116.5 c 128,-1,2
 523 129 523 129 557 149 c 128,-1,3
 591 169 591 169 621.5 194 c 128,-1,4
 652 219 652 219 676 243 c 1,5,-1
 786 861 l 1,6,7
 762 867 762 867 743 872 c 128,-1,8
 724 877 724 877 705.5 880 c 128,-1,9
 687 883 687 883 666 884.5 c 128,-1,10
 645 886 645 886 618 886 c 0,11,12
 538 886 538 886 470 840 c 128,-1,13
 402 794 402 794 352.5 718 c 128,-1,14
 303 642 303 642 275.5 543 c 128,-1,15
 248 444 248 444 248 339 c 0,16,17
 248 289 248 289 258.5 246 c 128,-1,18
 269 203 269 203 290 171.5 c 128,-1,19
 311 140 311 140 343 122 c 128,-1,20
 375 104 375 104 418 104 c 0,0,1
662 160 m 1,21,22
 642 138 642 138 607.5 107 c 128,-1,23
 573 76 573 76 530 47.5 c 128,-1,24
 487 19 487 19 438.5 -1 c 128,-1,25
 390 -21 390 -21 342 -21 c 0,26,27
 276 -21 276 -21 225 3.5 c 128,-1,28
 174 28 174 28 139.5 72 c 128,-1,29
 105 116 105 116 87 177.5 c 128,-1,30
 69 239 69 239 69 313 c 0,31,32
 69 402 69 402 89 484.5 c 128,-1,33
 109 567 109 567 146 639.5 c 128,-1,34
 183 712 183 712 234.5 771.5 c 128,-1,35
 286 831 286 831 349 874 c 128,-1,36
 412 917 412 917 484.5 940.5 c 128,-1,37
 557 964 557 964 636 964 c 0,38,39
 670 964 670 964 713 960.5 c 128,-1,40
 756 957 756 957 801 951.5 c 128,-1,41
 846 946 846 946 888.5 938.5 c 128,-1,42
 931 931 931 931 964 923 c 1,43,-1
 796 -35 l 2,44,45
 777 -143 777 -143 740.5 -219.5 c 128,-1,46
 704 -296 704 -296 648 -344 c 128,-1,47
 592 -392 592 -392 514 -414 c 128,-1,48
 436 -436 436 -436 334 -436 c 0,49,50
 280 -436 280 -436 229 -429 c 128,-1,51
 178 -422 178 -422 134.5 -411.5 c 128,-1,52
 91 -401 91 -401 56.5 -388.5 c 128,-1,53
 22 -376 22 -376 1 -365 c 1,54,-1
 19 -137 l 1,55,-1
 64 -137 l 1,56,-1
 100 -263 l 1,57,58
 136 -298 136 -298 193.5 -320 c 128,-1,59
 251 -342 251 -342 333 -342 c 0,60,61
 407 -342 407 -342 458.5 -320.5 c 128,-1,62
 510 -299 510 -299 543.5 -262.5 c 128,-1,63
 577 -226 577 -226 595.5 -177.5 c 128,-1,64
 614 -129 614 -129 623 -75 c 2,65,-1
 662 160 l 1,21,22
EndSplineSet
EndChar

StartChar: h
Encoding: 104 104 75
Width: 1024
GlyphClass: 2
Flags: W
LayerCount: 2
Fore
SplineSet
311 1352 m 1,0,-1
 193 1376 l 1,1,-1
 201 1421 l 1,2,-1
 489 1421 l 1,3,-1
 401 928 l 2,4,5
 397 907 397 907 392 879 c 128,-1,6
 387 851 387 851 382.5 825 c 128,-1,7
 378 799 378 799 373.5 777.5 c 128,-1,8
 369 756 369 756 367 749 c 1,9,10
 401 794 401 794 441 833.5 c 128,-1,11
 481 873 481 873 526 902 c 128,-1,12
 571 931 571 931 619 948 c 128,-1,13
 667 965 667 965 718 965 c 0,14,15
 764 965 764 965 801.5 953 c 128,-1,16
 839 941 839 941 865.5 915 c 128,-1,17
 892 889 892 889 906.5 849 c 128,-1,18
 921 809 921 809 921 754 c 0,19,20
 921 742 921 742 918.5 721.5 c 128,-1,21
 916 701 916 701 912 677 c 128,-1,22
 908 653 908 653 904 627.5 c 128,-1,23
 900 602 900 602 896 580 c 2,24,-1
 808 69 l 1,25,-1
 939 45 l 1,26,-1
 931 0 l 1,27,-1
 630 0 l 1,28,-1
 732 582 l 2,29,30
 736 604 736 604 740 628 c 128,-1,31
 744 652 744 652 747.5 675 c 128,-1,32
 751 698 751 698 753 717 c 128,-1,33
 755 736 755 736 755 748 c 0,34,35
 755 793 755 793 731 821 c 128,-1,36
 707 849 707 849 655 849 c 0,37,38
 613 849 613 849 569 830 c 128,-1,39
 525 811 525 811 484.5 780.5 c 128,-1,40
 444 750 444 750 409 711 c 128,-1,41
 374 672 374 672 350 633 c 1,42,-1
 239 0 l 1,43,-1
 74 0 l 1,44,-1
 311 1352 l 1,0,-1
EndSplineSet
EndChar

StartChar: i
Encoding: 105 105 76
Width: 569
GlyphClass: 2
Flags: W
LayerCount: 2
Fore
SplineSet
292 70 m 1,0,-1
 449 45 l 1,1,-1
 441 0 l 1,2,-1
 114 0 l 1,3,-1
 267 870 l 1,4,-1
 138 895 l 1,5,-1
 146 940 l 1,6,-1
 445 940 l 1,7,-1
 292 70 l 1,0,-1
507 1247 m 256,8,9
 507 1225 507 1225 498.5 1205.5 c 128,-1,10
 490 1186 490 1186 475 1171 c 128,-1,11
 460 1156 460 1156 440 1147.5 c 128,-1,12
 420 1139 420 1139 398 1139 c 256,13,14
 376 1139 376 1139 356.5 1147.5 c 128,-1,15
 337 1156 337 1156 322 1171 c 128,-1,16
 307 1186 307 1186 298.5 1205.5 c 128,-1,17
 290 1225 290 1225 290 1247 c 256,18,19
 290 1269 290 1269 298.5 1289 c 128,-1,20
 307 1309 307 1309 322 1324 c 128,-1,21
 337 1339 337 1339 356.5 1347.5 c 128,-1,22
 376 1356 376 1356 398 1356 c 256,23,24
 420 1356 420 1356 440 1347.5 c 128,-1,25
 460 1339 460 1339 475 1324 c 128,-1,26
 490 1309 490 1309 498.5 1289 c 128,-1,27
 507 1269 507 1269 507 1247 c 256,8,9
EndSplineSet
EndChar

StartChar: j
Encoding: 106 106 77
Width: 569
GlyphClass: 2
Flags: W
LayerCount: 2
Fore
SplineSet
285 -39 m 2,0,1
 266 -145 266 -145 234.5 -220.5 c 128,-1,2
 203 -296 203 -296 159.5 -344 c 128,-1,3
 116 -392 116 -392 61 -414 c 128,-1,4
 6 -436 6 -436 -59 -436 c 0,5,6
 -104 -436 -104 -436 -147 -426.5 c 128,-1,7
 -190 -417 -190 -417 -219 -406 c 1,8,-1
 -186 -219 l 1,9,-1
 -139 -219 l 1,10,-1
 -124 -329 l 1,11,12
 -113 -340 -113 -340 -96 -348 c 128,-1,13
 -79 -356 -79 -356 -53 -356 c 0,14,15
 -25 -356 -25 -356 -1 -344 c 128,-1,16
 23 -332 23 -332 43 -302 c 128,-1,17
 63 -272 63 -272 80 -220.5 c 128,-1,18
 97 -169 97 -169 111 -90 c 2,19,-1
 281 870 l 1,20,-1
 144 895 l 1,21,-1
 152 940 l 1,22,-1
 459 940 l 1,23,-1
 285 -39 l 2,0,1
519 1247 m 256,24,25
 519 1225 519 1225 510.5 1205.5 c 128,-1,26
 502 1186 502 1186 487 1171 c 128,-1,27
 472 1156 472 1156 452 1147.5 c 128,-1,28
 432 1139 432 1139 410 1139 c 256,29,30
 388 1139 388 1139 368.5 1147.5 c 128,-1,31
 349 1156 349 1156 334 1171 c 128,-1,32
 319 1186 319 1186 310.5 1205.5 c 128,-1,33
 302 1225 302 1225 302 1247 c 256,34,35
 302 1269 302 1269 310.5 1289 c 128,-1,36
 319 1309 319 1309 334 1324 c 128,-1,37
 349 1339 349 1339 368.5 1347.5 c 128,-1,38
 388 1356 388 1356 410 1356 c 256,39,40
 432 1356 432 1356 452 1347.5 c 128,-1,41
 472 1339 472 1339 487 1324 c 128,-1,42
 502 1309 502 1309 510.5 1289 c 128,-1,43
 519 1269 519 1269 519 1247 c 256,24,25
EndSplineSet
EndChar

StartChar: k
Encoding: 107 107 78
Width: 909
GlyphClass: 2
Flags: W
LayerCount: 2
Fore
SplineSet
299 1352 m 1,0,-1
 164 1376 l 1,1,-1
 172 1421 l 1,2,-1
 477 1421 l 1,3,-1
 305 453 l 1,4,-1
 733 868 l 1,5,-1
 639 895 l 1,6,-1
 647 940 l 1,7,-1
 939 940 l 1,8,-1
 931 895 l 1,9,-1
 850 872 l 1,10,-1
 556 591 l 1,11,-1
 799 68 l 1,12,-1
 897 45 l 1,13,-1
 889 0 l 1,14,-1
 653 0 l 1,15,-1
 435 479 l 1,16,-1
 287 340 l 1,17,-1
 225 0 l 1,18,-1
 59 0 l 1,19,-1
 299 1352 l 1,0,-1
EndSplineSet
EndChar

StartChar: l
Encoding: 108 108 79
Width: 569
GlyphClass: 2
Flags: W
LayerCount: 2
Fore
SplineSet
287 70 m 1,0,-1
 444 45 l 1,1,-1
 436 0 l 1,2,-1
 109 0 l 1,3,-1
 346 1352 l 1,4,-1
 217 1376 l 1,5,-1
 225 1421 l 1,6,-1
 524 1421 l 1,7,-1
 287 70 l 1,0,-1
EndSplineSet
EndChar

StartChar: m
Encoding: 109 109 80
Width: 1479
GlyphClass: 2
Flags: W
LayerCount: 2
Fore
SplineSet
873 746 m 1,0,1
 906 793 906 793 945 833 c 128,-1,2
 984 873 984 873 1025 902.5 c 128,-1,3
 1066 932 1066 932 1108.5 948.5 c 128,-1,4
 1151 965 1151 965 1192 965 c 0,5,6
 1276 965 1276 965 1324.5 911.5 c 128,-1,7
 1373 858 1373 858 1373 757 c 0,8,9
 1373 742 1373 742 1371 721 c 128,-1,10
 1369 700 1369 700 1365.5 676 c 128,-1,11
 1362 652 1362 652 1358 627 c 128,-1,12
 1354 602 1354 602 1350 580 c 2,13,-1
 1262 70 l 1,14,-1
 1393 45 l 1,15,-1
 1384 0 l 1,16,-1
 1083 0 l 1,17,-1
 1186 582 l 2,18,19
 1190 603 1190 603 1194 627.5 c 128,-1,20
 1198 652 1198 652 1201.5 675 c 128,-1,21
 1205 698 1205 698 1207 717 c 128,-1,22
 1209 736 1209 736 1209 748 c 0,23,24
 1209 793 1209 793 1188 820.5 c 128,-1,25
 1167 848 1167 848 1122 848 c 0,26,27
 1099 848 1099 848 1071 836 c 128,-1,28
 1043 824 1043 824 1014 803.5 c 128,-1,29
 985 783 985 783 957.5 756 c 128,-1,30
 930 729 930 729 907 699 c 128,-1,31
 884 669 884 669 868 637 c 128,-1,32
 852 605 852 605 847 576 c 2,33,-1
 748 0 l 1,34,-1
 582 0 l 1,35,-1
 684 582 l 2,36,37
 688 603 688 603 692 627.5 c 128,-1,38
 696 652 696 652 700 675 c 128,-1,39
 704 698 704 698 706.5 717 c 128,-1,40
 709 736 709 736 709 748 c 0,41,42
 709 793 709 793 687 820.5 c 128,-1,43
 665 848 665 848 618 848 c 0,44,45
 595 848 595 848 567 836 c 128,-1,46
 539 824 539 824 509.5 803.5 c 128,-1,47
 480 783 480 783 451.5 756 c 128,-1,48
 423 729 423 729 399.5 699 c 128,-1,49
 376 669 376 669 360 637 c 128,-1,50
 344 605 344 605 339 576 c 2,51,-1
 240 0 l 1,52,-1
 74 0 l 1,53,-1
 227 870 l 1,54,-1
 109 895 l 1,55,-1
 117 940 l 1,56,-1
 395 940 l 1,57,-1
 367 746 l 1,58,59
 400 793 400 793 439 833 c 128,-1,60
 478 873 478 873 520 902.5 c 128,-1,61
 562 932 562 932 604.5 948.5 c 128,-1,62
 647 965 647 965 688 965 c 0,63,64
 776 965 776 965 824.5 909.5 c 128,-1,65
 873 854 873 854 873 746 c 1,0,1
EndSplineSet
EndChar

StartChar: n
Encoding: 110 110 81
Width: 1024
GlyphClass: 2
Flags: W
LayerCount: 2
Fore
SplineSet
755 748 m 0,0,1
 755 793 755 793 731 821 c 128,-1,2
 707 849 707 849 655 849 c 0,3,4
 613 849 613 849 569 829.5 c 128,-1,5
 525 810 525 810 484 779 c 128,-1,6
 443 748 443 748 408 708.5 c 128,-1,7
 373 669 373 669 349 630 c 1,8,-1
 239 0 l 1,9,-1
 73 0 l 1,10,-1
 226 871 l 1,11,-1
 108 896 l 1,12,-1
 116 941 l 1,13,-1
 394 941 l 1,14,-1
 367 749 l 1,15,16
 405 798 405 798 446.5 838 c 128,-1,17
 488 878 488 878 532.5 906 c 128,-1,18
 577 934 577 934 623.5 949.5 c 128,-1,19
 670 965 670 965 718 965 c 0,20,21
 764 965 764 965 801.5 953 c 128,-1,22
 839 941 839 941 865.5 915 c 128,-1,23
 892 889 892 889 906.5 849 c 128,-1,24
 921 809 921 809 921 754 c 0,25,26
 921 742 921 742 918.5 721.5 c 128,-1,27
 916 701 916 701 912 677 c 128,-1,28
 908 653 908 653 904 627.5 c 128,-1,29
 900 602 900 602 896 580 c 2,30,-1
 808 69 l 1,31,-1
 939 45 l 1,32,-1
 931 0 l 1,33,-1
 630 0 l 1,34,-1
 732 582 l 2,35,36
 736 604 736 604 740 628 c 128,-1,37
 744 652 744 652 747.5 675 c 128,-1,38
 751 698 751 698 753 717 c 128,-1,39
 755 736 755 736 755 748 c 0,0,1
EndSplineSet
EndChar

StartChar: o
Encoding: 111 111 82
Width: 1024
GlyphClass: 2
Flags: W
LayerCount: 2
Fore
SplineSet
237 340 m 0,0,1
 237 205 237 205 289.5 133.5 c 128,-1,2
 342 62 342 62 436 62 c 0,3,4
 505 62 505 62 568.5 103.5 c 128,-1,5
 632 145 632 145 680.5 217.5 c 128,-1,6
 729 290 729 290 758.5 389.5 c 128,-1,7
 788 489 788 489 788 606 c 0,8,9
 788 744 788 744 735.5 815.5 c 128,-1,10
 683 887 683 887 585 887 c 0,11,12
 517 887 517 887 454 846 c 128,-1,13
 391 805 391 805 343 732.5 c 128,-1,14
 295 660 295 660 266 559.5 c 128,-1,15
 237 459 237 459 237 340 c 0,0,1
427 -20 m 0,16,17
 346 -20 346 -20 278.5 7 c 128,-1,18
 211 34 211 34 162.5 85 c 128,-1,19
 114 136 114 136 87.5 209 c 128,-1,20
 61 282 61 282 61 374 c 0,21,22
 61 491 61 491 98.5 598 c 128,-1,23
 136 705 136 705 205.5 786.5 c 128,-1,24
 275 868 275 868 374 916.5 c 128,-1,25
 473 965 473 965 597 965 c 0,26,27
 678 965 678 965 745.5 938 c 128,-1,28
 813 911 813 911 861.5 860 c 128,-1,29
 910 809 910 809 936.5 736 c 128,-1,30
 963 663 963 663 963 571 c 0,31,32
 963 454 963 454 925.5 347 c 128,-1,33
 888 240 888 240 818.5 158.5 c 128,-1,34
 749 77 749 77 650 28.5 c 128,-1,35
 551 -20 551 -20 427 -20 c 0,16,17
EndSplineSet
EndChar

StartChar: p
Encoding: 112 112 83
Width: 1024
GlyphClass: 2
Flags: W
LayerCount: 2
Fore
SplineSet
233 2 m 1,0,1
 232 -10 232 -10 230 -25.5 c 128,-1,2
 228 -41 228 -41 226 -57.5 c 128,-1,3
 224 -74 224 -74 221.5 -88 c 128,-1,4
 219 -102 219 -102 218 -111 c 2,5,-1
 174 -365 l 1,6,-1
 334 -389 l 1,7,-1
 326 -436 l 1,8,-1
 -120 -436 l 1,9,-1
 -112 -389 l 1,10,-1
 9 -365 l 1,11,-1
 228 870 l 1,12,-1
 125 895 l 1,13,-1
 133 940 l 1,14,-1
 398 940 l 1,15,-1
 379 788 l 1,16,17
 464 874 464 874 543.5 919.5 c 128,-1,18
 623 965 623 965 694 965 c 0,19,20
 751 965 751 965 800 943.5 c 128,-1,21
 849 922 849 922 885 880 c 128,-1,22
 921 838 921 838 941.5 775.5 c 128,-1,23
 962 713 962 713 962 631 c 0,24,25
 962 545 962 545 943.5 463.5 c 128,-1,26
 925 382 925 382 890 309.5 c 128,-1,27
 855 237 855 237 805 176.5 c 128,-1,28
 755 116 755 116 693 72.5 c 128,-1,29
 631 29 631 29 558 4.5 c 128,-1,30
 485 -20 485 -20 403 -20 c 0,31,32
 383 -20 383 -20 359.5 -18.5 c 128,-1,33
 336 -17 336 -17 312.5 -14 c 128,-1,34
 289 -11 289 -11 268 -7 c 128,-1,35
 247 -3 247 -3 233 2 c 1,0,1
257 107 m 1,36,37
 275 93 275 93 296.5 83.5 c 128,-1,38
 318 74 318 74 340.5 68.5 c 128,-1,39
 363 63 363 63 385 61 c 128,-1,40
 407 59 407 59 425 59 c 0,41,42
 482 59 482 59 531 82.5 c 128,-1,43
 580 106 580 106 620 147 c 128,-1,44
 660 188 660 188 690.5 242 c 128,-1,45
 721 296 721 296 741.5 356.5 c 128,-1,46
 762 417 762 417 772.5 481 c 128,-1,47
 783 545 783 545 783 605 c 0,48,49
 783 668 783 668 769.5 712.5 c 128,-1,50
 756 757 756 757 733 785.5 c 128,-1,51
 710 814 710 814 680.5 827 c 128,-1,52
 651 840 651 840 619 840 c 0,53,54
 593 840 593 840 561.5 830 c 128,-1,55
 530 820 530 820 496.5 802 c 128,-1,56
 463 784 463 784 429.5 758.5 c 128,-1,57
 396 733 396 733 366 701 c 1,58,-1
 257 107 l 1,36,37
EndSplineSet
EndChar

StartChar: q
Encoding: 113 113 84
Width: 1024
GlyphClass: 2
Flags: W
LayerCount: 2
Fore
SplineSet
419 107 m 0,0,1
 454 107 454 107 490 112 c 128,-1,2
 526 117 526 117 559.5 126.5 c 128,-1,3
 593 136 593 136 623 149 c 128,-1,4
 653 162 653 162 677 178 c 1,5,-1
 798 861 l 1,6,7
 749 874 749 874 699.5 881 c 128,-1,8
 650 888 650 888 594 888 c 0,9,10
 513 888 513 888 448 842.5 c 128,-1,11
 383 797 383 797 337.5 721 c 128,-1,12
 292 645 292 645 267.5 546.5 c 128,-1,13
 243 448 243 448 243 343 c 0,14,15
 243 293 243 293 252.5 249.5 c 128,-1,16
 262 206 262 206 283 174.5 c 128,-1,17
 304 143 304 143 337.5 125 c 128,-1,18
 371 107 371 107 419 107 c 0,0,1
671 107 m 1,19,20
 651 92 651 92 617 70.5 c 128,-1,21
 583 49 583 49 540 28.5 c 128,-1,22
 497 8 497 8 448.5 -6 c 128,-1,23
 400 -20 400 -20 350 -20 c 0,24,25
 213 -20 213 -20 140.5 65 c 128,-1,26
 68 150 68 150 68 318 c 0,27,28
 68 451 68 451 107 569 c 128,-1,29
 146 687 146 687 219.5 775 c 128,-1,30
 293 863 293 863 399 914 c 128,-1,31
 505 965 505 965 638 965 c 0,32,33
 672 965 672 965 716.5 961.5 c 128,-1,34
 761 958 761 958 807.5 952 c 128,-1,35
 854 946 854 946 898 938.5 c 128,-1,36
 942 931 942 931 976 923 c 1,37,-1
 743 -365 l 1,38,-1
 864 -389 l 1,39,-1
 856 -436 l 1,40,-1
 565 -436 l 1,41,-1
 634 -55 l 2,42,43
 641 -17 641 -17 650 23.5 c 128,-1,44
 659 64 659 64 671 107 c 1,19,20
EndSplineSet
EndChar

StartChar: r
Encoding: 114 114 85
Width: 797
GlyphClass: 2
Flags: W
LayerCount: 2
Fore
SplineSet
724 965 m 0,0,1
 744 965 744 965 768 962.5 c 128,-1,2
 792 960 792 960 803 957 c 1,3,-1
 759 711 l 1,4,-1
 716 711 l 1,5,-1
 678 838 l 1,6,7
 634 838 634 838 590 820 c 128,-1,8
 546 802 546 802 505 771.5 c 128,-1,9
 464 741 464 741 426 701 c 128,-1,10
 388 661 388 661 356 616 c 1,11,-1
 249 0 l 1,12,-1
 83 0 l 1,13,-1
 236 870 l 1,14,-1
 118 895 l 1,15,-1
 126 940 l 1,16,-1
 403 940 l 1,17,-1
 372 728 l 1,18,19
 412 788 412 788 456.5 833 c 128,-1,20
 501 878 501 878 546 907 c 128,-1,21
 591 936 591 936 636.5 950.5 c 128,-1,22
 682 965 682 965 724 965 c 0,0,1
EndSplineSet
EndChar

StartChar: s
Encoding: 115 115 86
Width: 797
GlyphClass: 2
Flags: W
LayerCount: 2
Fore
SplineSet
692 276 m 0,0,1
 692 125 692 125 596 52.5 c 128,-1,2
 500 -20 500 -20 305 -20 c 0,3,4
 215 -20 215 -20 144 0.5 c 128,-1,5
 73 21 73 21 25 42 c 1,6,-1
 66 268 l 1,7,-1
 111 268 l 1,8,-1
 128 131 l 1,9,10
 154 103 154 103 201.5 81 c 128,-1,11
 249 59 249 59 309 59 c 0,12,13
 354 59 354 59 394 68 c 128,-1,14
 434 77 434 77 464 97.5 c 128,-1,15
 494 118 494 118 511 152.5 c 128,-1,16
 528 187 528 187 528 238 c 0,17,18
 528 290 528 290 498.5 325 c 128,-1,19
 469 360 469 360 425 387.5 c 128,-1,20
 381 415 381 415 329.5 440 c 128,-1,21
 278 465 278 465 234 497.5 c 128,-1,22
 190 530 190 530 160.5 575 c 128,-1,23
 131 620 131 620 131 688 c 0,24,25
 131 763 131 763 158.5 816 c 128,-1,26
 186 869 186 869 232.5 902 c 128,-1,27
 279 935 279 935 339.5 950 c 128,-1,28
 400 965 400 965 467 965 c 0,29,30
 539 965 539 965 606 954.5 c 128,-1,31
 673 944 673 944 735 930 c 1,32,-1
 698 721 l 1,33,-1
 651 721 l 1,34,-1
 637 829 l 1,35,36
 609 854 609 854 565.5 869.5 c 128,-1,37
 522 885 522 885 471 885 c 0,38,39
 389 885 389 885 340 847.5 c 128,-1,40
 291 810 291 810 291 731 c 0,41,42
 291 682 291 682 320.5 649 c 128,-1,43
 350 616 350 616 395 588.5 c 128,-1,44
 440 561 440 561 491.5 534.5 c 128,-1,45
 543 508 543 508 588 474 c 128,-1,46
 633 440 633 440 662.5 392.5 c 128,-1,47
 692 345 692 345 692 276 c 0,0,1
EndSplineSet
EndChar

StartChar: t
Encoding: 116 116 87
Width: 569
GlyphClass: 2
Flags: W
LayerCount: 2
Fore
SplineSet
264 174 m 0,0,1
 264 129 264 129 286.5 106.5 c 128,-1,2
 309 84 309 84 344 84 c 0,3,4
 387 84 387 84 423 92 c 128,-1,5
 459 100 459 100 496 114 c 1,6,-1
 517 67 l 1,7,8
 466 31 466 31 405.5 5.5 c 128,-1,9
 345 -20 345 -20 268 -20 c 0,10,11
 226 -20 226 -20 194 -6.5 c 128,-1,12
 162 7 162 7 140.5 31 c 128,-1,13
 119 55 119 55 108.5 88.5 c 128,-1,14
 98 122 98 122 98 162 c 0,15,16
 98 191 98 191 103 228 c 128,-1,17
 108 265 108 265 114 299 c 2,18,-1
 213 856 l 1,19,-1
 90 856 l 1,20,-1
 98 901 l 1,21,-1
 231 940 l 1,22,-1
 368 1153 l 1,23,-1
 432 1153 l 1,24,-1
 395 940 l 1,25,-1
 610 940 l 1,26,-1
 594 856 l 1,27,-1
 379 856 l 1,28,-1
 282 307 l 2,29,30
 274 266 274 266 269 231 c 128,-1,31
 264 196 264 196 264 174 c 0,0,1
EndSplineSet
EndChar

StartChar: u
Encoding: 117 117 88
Width: 1024
GlyphClass: 2
Flags: W
LayerCount: 2
Fore
SplineSet
268 193 m 0,0,1
 268 148 268 148 292 120 c 128,-1,2
 316 92 316 92 368 92 c 0,3,4
 410 92 410 92 454 111 c 128,-1,5
 498 130 498 130 538.5 160.5 c 128,-1,6
 579 191 579 191 614 230 c 128,-1,7
 649 269 649 269 673 308 c 1,8,-1
 784 940 l 1,9,-1
 950 940 l 1,10,-1
 797 70 l 1,11,-1
 915 45 l 1,12,-1
 907 0 l 1,13,-1
 629 0 l 1,14,-1
 656 193 l 1,15,16
 618 144 618 144 576.5 104 c 128,-1,17
 535 64 535 64 490.5 35.5 c 128,-1,18
 446 7 446 7 399.5 -8.5 c 128,-1,19
 353 -24 353 -24 305 -24 c 0,20,21
 259 -24 259 -24 221.5 -12 c 128,-1,22
 184 0 184 0 157.5 26 c 128,-1,23
 131 52 131 52 116.5 91.5 c 128,-1,24
 102 131 102 131 102 187 c 0,25,26
 102 199 102 199 104.5 219 c 128,-1,27
 107 239 107 239 110.5 263 c 128,-1,28
 114 287 114 287 118.5 312.5 c 128,-1,29
 123 338 123 338 127 361 c 2,30,-1
 215 871 l 1,31,-1
 104 895 l 1,32,-1
 112 940 l 1,33,-1
 393 940 l 1,34,-1
 291 359 l 2,35,36
 287 337 287 337 283 313 c 128,-1,37
 279 289 279 289 275.5 266 c 128,-1,38
 272 243 272 243 270 224 c 128,-1,39
 268 205 268 205 268 193 c 0,0,1
EndSplineSet
EndChar

StartChar: v
Encoding: 118 118 89
Width: 909
GlyphClass: 2
Flags: W
LayerCount: 2
Fore
SplineSet
687 614 m 2,0,1
 722 671 722 671 736.5 720 c 128,-1,2
 751 769 751 769 751 807 c 0,3,4
 751 844 751 844 730 866 c 128,-1,5
 709 888 709 888 685 895 c 1,6,-1
 693 940 l 1,7,-1
 883 940 l 1,8,9
 892 932 892 932 900.5 915 c 128,-1,10
 909 898 909 898 909 877 c 0,11,12
 909 845 909 845 893 791.5 c 128,-1,13
 877 738 877 738 826 657 c 2,14,-1
 403 -20 l 1,15,-1
 330 -20 l 1,16,-1
 141 870 l 1,17,-1
 28 895 l 1,18,-1
 37 940 l 1,19,-1
 293 940 l 1,20,-1
 438 208 l 1,21,-1
 687 614 l 2,0,1
EndSplineSet
EndChar

StartChar: w
Encoding: 119 119 90
Width: 1366
GlyphClass: 2
Flags: W
LayerCount: 2
Fore
SplineSet
900 -20 m 1,0,-1
 834 -20 l 1,1,-1
 710 599 l 1,2,-1
 392 -20 l 1,3,-1
 322 -20 l 1,4,-1
 151 870 l 1,5,-1
 49 895 l 1,6,-1
 57 940 l 1,7,-1
 302 940 l 1,8,-1
 433 233 l 1,9,-1
 742 834 l 1,10,-1
 817 834 l 1,11,-1
 939 229 l 1,12,-1
 1136 618 l 2,13,14
 1166 678 1166 678 1179.5 723.5 c 128,-1,15
 1193 769 1193 769 1193 807 c 0,16,17
 1193 844 1193 844 1172 866 c 128,-1,18
 1151 888 1151 888 1127 895 c 1,19,-1
 1135 940 l 1,20,-1
 1325 940 l 1,21,22
 1334 932 1334 932 1342.5 915 c 128,-1,23
 1351 898 1351 898 1351 877 c 0,24,25
 1351 845 1351 845 1332.5 793 c 128,-1,26
 1314 741 1314 741 1268 657 c 2,27,-1
 900 -20 l 1,0,-1
EndSplineSet
EndChar

StartChar: x
Encoding: 120 120 91
Width: 909
GlyphClass: 2
Flags: W
LayerCount: 2
Fore
SplineSet
248 236 m 2,0,1
 216 205 216 205 195.5 182 c 128,-1,2
 175 159 175 159 163 141.5 c 128,-1,3
 151 124 151 124 146.5 110 c 128,-1,4
 142 96 142 96 142 84 c 0,5,6
 142 68 142 68 153.5 59 c 128,-1,7
 165 50 165 50 184 45 c 1,8,-1
 176 0 l 1,9,-1
 -9 0 l 1,10,11
 -15 5 -15 5 -20 16.5 c 128,-1,12
 -25 28 -25 28 -25 43 c 0,13,14
 -25 57 -25 57 -17.5 73.5 c 128,-1,15
 -10 90 -10 90 6 111 c 128,-1,16
 22 132 22 132 48 159 c 128,-1,17
 74 186 74 186 112 221 c 2,18,-1
 385 475 l 1,19,-1
 213 870 l 1,20,-1
 106 895 l 1,21,-1
 114 940 l 1,22,-1
 362 940 l 1,23,-1
 507 582 l 1,24,-1
 631 700 l 2,25,26
 695 761 695 761 721 796 c 128,-1,27
 747 831 747 831 747 856 c 0,28,29
 747 864 747 864 741.5 870 c 128,-1,30
 736 876 736 876 727 880.5 c 128,-1,31
 718 885 718 885 707.5 888.5 c 128,-1,32
 697 892 697 892 688 895 c 1,33,-1
 696 940 l 1,34,-1
 873 940 l 1,35,36
 882 933 882 933 888 922.5 c 128,-1,37
 894 912 894 912 894 897 c 0,38,39
 894 838 894 838 756 707 c 2,40,-1
 542 506 l 1,41,-1
 734 66 l 1,42,-1
 850 45 l 1,43,-1
 842 0 l 1,44,-1
 586 0 l 1,45,-1
 419 400 l 1,46,-1
 248 236 l 2,0,1
EndSplineSet
EndChar

StartChar: y
Encoding: 121 121 92
Width: 909
GlyphClass: 2
Flags: W
LayerCount: 2
Fore
SplineSet
52 940 m 1,0,-1
 308 940 l 1,1,-1
 453 208 l 1,2,-1
 688 614 l 2,3,4
 721 672 721 672 736.5 720.5 c 128,-1,5
 752 769 752 769 752 807 c 0,6,7
 752 844 752 844 731 866 c 128,-1,8
 710 888 710 888 686 895 c 1,9,-1
 694 940 l 1,10,-1
 884 940 l 1,11,12
 893 932 893 932 901.5 915 c 128,-1,13
 910 898 910 898 910 877 c 0,14,15
 910 845 910 845 893 792.5 c 128,-1,16
 876 740 876 740 827 657 c 2,17,-1
 431 -10 l 2,18,19
 372 -110 372 -110 319.5 -190 c 128,-1,20
 267 -270 267 -270 214.5 -326 c 128,-1,21
 162 -382 162 -382 104.5 -412 c 128,-1,22
 47 -442 47 -442 -22 -442 c 0,23,24
 -48 -442 -48 -442 -67.5 -441 c 128,-1,25
 -87 -440 -87 -440 -103.5 -437.5 c 128,-1,26
 -120 -435 -120 -435 -136 -432 c 128,-1,27
 -152 -429 -152 -429 -171 -424 c 1,28,-1
 -134 -221 l 1,29,-1
 -89 -221 l 1,30,-1
 -73 -317 l 1,31,32
 -48 -340 -48 -340 9 -340 c 0,33,34
 52 -340 52 -340 92.5 -315 c 128,-1,35
 133 -290 133 -290 169.5 -250.5 c 128,-1,36
 206 -211 206 -211 237.5 -163 c 128,-1,37
 269 -115 269 -115 294 -70 c 2,38,-1
 339 12 l 1,39,-1
 156 870 l 1,40,-1
 44 895 l 1,41,-1
 52 940 l 1,0,-1
EndSplineSet
EndChar

StartChar: z
Encoding: 122 122 93
Width: 797
GlyphClass: 2
Flags: W
LayerCount: 2
Fore
SplineSet
-23 0 m 1,0,-1
 -14 45 l 1,1,-1
 550 860 l 1,2,-1
 401 860 l 2,3,4
 374 860 374 860 345.5 857.5 c 128,-1,5
 317 855 317 855 292 850.5 c 128,-1,6
 267 846 267 846 247 839.5 c 128,-1,7
 227 833 227 833 215 825 c 1,8,-1
 160 690 l 1,9,-1
 113 690 l 1,10,-1
 158 940 l 1,11,-1
 770 940 l 1,12,-1
 762 891 l 1,13,-1
 200 80 l 1,14,-1
 397 80 l 2,15,16
 453 80 453 80 506 92.5 c 128,-1,17
 559 105 559 105 594 127 c 1,18,-1
 670 274 l 1,19,-1
 717 274 l 1,20,-1
 645 0 l 1,21,-1
 -23 0 l 1,0,-1
EndSplineSet
EndChar

StartChar: braceleft
Encoding: 123 123 94
Width: 819
GlyphClass: 2
Flags: W
LayerCount: 2
Fore
SplineSet
367 -274 m 2,0,1
 258 -274 258 -274 204 -217.5 c 128,-1,2
 150 -161 150 -161 150 -61 c 0,3,4
 150 -26 150 -26 158 20 c 2,5,-1
 210 315 l 2,6,7
 214 335 214 335 215.5 352 c 128,-1,8
 217 369 217 369 217 386 c 0,9,10
 217 429 217 429 205 460 c 128,-1,11
 193 491 193 491 170 511 c 128,-1,12
 147 531 147 531 113.5 541 c 128,-1,13
 80 551 80 551 37 553 c 1,14,-1
 45 598 l 1,15,16
 96 599 96 599 138.5 613 c 128,-1,17
 181 627 181 627 213.5 655.5 c 128,-1,18
 246 684 246 684 268 728 c 128,-1,19
 290 772 290 772 301 834 c 2,20,-1
 353 1128 l 2,21,22
 378 1269 378 1269 456.5 1345 c 128,-1,23
 535 1421 535 1421 666 1421 c 2,24,-1
 801 1421 l 1,25,-1
 793 1374 l 1,26,-1
 731 1374 l 2,27,28
 640 1374 640 1374 592 1319.5 c 128,-1,29
 544 1265 544 1265 525 1159 c 2,30,-1
 466 829 l 2,31,32
 457 779 457 779 435 737 c 128,-1,33
 413 695 413 695 382 662.5 c 128,-1,34
 351 630 351 630 312 608.5 c 128,-1,35
 273 587 273 587 230 578 c 1,36,-1
 230 575 l 1,37,38
 300 558 300 558 341 507 c 128,-1,39
 382 456 382 456 382 378 c 0,40,41
 382 364 382 364 381 350.5 c 128,-1,42
 380 337 380 337 377 322 c 2,43,-1
 318 -12 l 2,44,45
 314 -33 314 -33 312 -52.5 c 128,-1,46
 310 -72 310 -72 310 -89 c 0,47,48
 310 -157 310 -157 343 -192 c 128,-1,49
 376 -227 376 -227 448 -227 c 2,50,-1
 510 -227 l 1,51,-1
 502 -274 l 1,52,-1
 367 -274 l 2,0,1
EndSplineSet
EndChar

StartChar: bar
Encoding: 124 124 95
Width: 563
GlyphClass: 2
Flags: W
LayerCount: 2
Fore
SplineSet
267 -442 m 1,0,-1
 267 1421 l 1,1,-1
 369 1421 l 1,2,-1
 369 -442 l 1,3,-1
 267 -442 l 1,0,-1
EndSplineSet
EndChar

StartChar: braceright
Encoding: 125 125 96
Width: 819
GlyphClass: 2
Flags: W
LayerCount: 2
Fore
SplineSet
36 -274 m 1,0,-1
 44 -227 l 1,1,-1
 106 -227 l 2,2,3
 197 -227 197 -227 245 -172.5 c 128,-1,4
 293 -118 293 -118 312 -12 c 2,5,-1
 371 322 l 2,6,7
 380 373 380 373 401.5 415 c 128,-1,8
 423 457 423 457 454 489.5 c 128,-1,9
 485 522 485 522 524 543.5 c 128,-1,10
 563 565 563 565 608 575 c 1,11,-1
 608 578 l 1,12,13
 539 594 539 594 497.5 646 c 128,-1,14
 456 698 456 698 456 777 c 0,15,16
 456 790 456 790 457 802.5 c 128,-1,17
 458 815 458 815 460 829 c 2,18,-1
 519 1159 l 2,19,20
 523 1181 523 1181 525 1200 c 128,-1,21
 527 1219 527 1219 527 1236 c 0,22,23
 527 1305 527 1305 494.5 1339.5 c 128,-1,24
 462 1374 462 1374 389 1374 c 2,25,-1
 327 1374 l 1,26,-1
 335 1421 l 1,27,-1
 471 1421 l 2,28,29
 580 1421 580 1421 633.5 1367.5 c 128,-1,30
 687 1314 687 1314 687 1212 c 0,31,32
 687 1192 687 1192 685 1171.5 c 128,-1,33
 683 1151 683 1151 679 1128 c 2,34,-1
 627 834 l 2,35,36
 621 796 621 796 621 765 c 0,37,38
 621 678 621 678 668 639.5 c 128,-1,39
 715 601 715 601 801 598 c 1,40,-1
 793 553 l 1,41,42
 742 551 742 551 699.5 537 c 128,-1,43
 657 523 657 523 624.5 494.5 c 128,-1,44
 592 466 592 466 569.5 422 c 128,-1,45
 547 378 547 378 536 315 c 2,46,-1
 484 20 l 2,47,48
 472 -48 472 -48 446 -102 c 128,-1,49
 420 -156 420 -156 380.5 -194.5 c 128,-1,50
 341 -233 341 -233 288.5 -253.5 c 128,-1,51
 236 -274 236 -274 172 -274 c 2,52,-1
 36 -274 l 1,0,-1
EndSplineSet
EndChar

StartChar: asciitilde
Encoding: 126 126 97
Width: 1108
GlyphClass: 2
Flags: W
LayerCount: 2
Fore
SplineSet
807 502 m 0,0,1
 761 502 761 502 719 520 c 128,-1,2
 677 538 677 538 637.5 564.5 c 128,-1,3
 598 591 598 591 561.5 622.5 c 128,-1,4
 525 654 525 654 490 680.5 c 128,-1,5
 455 707 455 707 421 725 c 128,-1,6
 387 743 387 743 353 743 c 0,7,8
 312 743 312 743 283 728.5 c 128,-1,9
 254 714 254 714 234 684 c 128,-1,10
 214 654 214 654 202.5 608.5 c 128,-1,11
 191 563 191 563 185 502 c 1,12,-1
 84 502 l 1,13,14
 90 563 90 563 103.5 624.5 c 128,-1,15
 117 686 117 686 146 735.5 c 128,-1,16
 175 785 175 785 224.5 815.5 c 128,-1,17
 274 846 274 846 353 846 c 0,18,19
 401 846 401 846 444 828 c 128,-1,20
 487 810 487 810 526.5 783 c 128,-1,21
 566 756 566 756 603 725 c 128,-1,22
 640 694 640 694 674.5 667 c 128,-1,23
 709 640 709 640 742 622 c 128,-1,24
 775 604 775 604 807 604 c 0,25,26
 847 604 847 604 875 620 c 128,-1,27
 903 636 903 636 922.5 667 c 128,-1,28
 942 698 942 698 953.5 743 c 128,-1,29
 965 788 965 788 973 846 c 1,30,-1
 1076 846 l 1,31,32
 1068 785 1068 785 1053.5 724 c 128,-1,33
 1039 663 1039 663 1009.5 613.5 c 128,-1,34
 980 564 980 564 931.5 533 c 128,-1,35
 883 502 883 502 807 502 c 0,0,1
EndSplineSet
EndChar

StartChar: exclamdown
Encoding: 161 161 98
Width: 797
GlyphClass: 2
Flags: W
LayerCount: 2
Fore
SplineSet
328 840 m 0,0,1
 328 865 328 865 337.5 887 c 128,-1,2
 347 909 347 909 363 925.5 c 128,-1,3
 379 942 379 942 401 951.5 c 128,-1,4
 423 961 423 961 449 961 c 0,5,6
 474 961 474 961 496.5 951.5 c 128,-1,7
 519 942 519 942 535 925.5 c 128,-1,8
 551 909 551 909 560.5 887 c 128,-1,9
 570 865 570 865 570 840 c 0,10,11
 570 814 570 814 560.5 792 c 128,-1,12
 551 770 551 770 535 754 c 128,-1,13
 519 738 519 738 496.5 728.5 c 128,-1,14
 474 719 474 719 449 719 c 0,15,16
 423 719 423 719 401 728.5 c 128,-1,17
 379 738 379 738 363 754 c 128,-1,18
 347 770 347 770 337.5 792 c 128,-1,19
 328 814 328 814 328 840 c 0,0,1
354 -409 m 1,20,-1
 136 -409 l 1,21,-1
 365 543 l 1,22,-1
 459 543 l 1,23,-1
 354 -409 l 1,20,-1
EndSplineSet
EndChar

StartChar: cent
Encoding: 162 162 99
Width: 1024
GlyphClass: 2
Flags: W
LayerCount: 2
Fore
SplineSet
864 347 m 1,0,1
 842 327 842 327 810 303 c 128,-1,2
 778 279 778 279 738.5 256.5 c 128,-1,3
 699 234 699 234 652 216 c 128,-1,4
 605 198 605 198 554 190 c 1,5,-1
 521 0 l 1,6,-1
 439 0 l 1,7,-1
 471 185 l 1,8,9
 391 188 391 188 331.5 215 c 128,-1,10
 272 242 272 242 232.5 288 c 128,-1,11
 193 334 193 334 173 397 c 128,-1,12
 153 460 153 460 153 535 c 0,13,14
 153 676 153 676 196 788.5 c 128,-1,15
 239 901 239 901 308.5 981.5 c 128,-1,16
 378 1062 378 1062 466 1109 c 128,-1,17
 554 1156 554 1156 644 1167 c 1,18,-1
 675 1341 l 1,19,-1
 757 1341 l 1,20,-1
 727 1169 l 1,21,22
 762 1167 762 1167 798 1162 c 128,-1,23
 834 1157 834 1157 867 1150 c 128,-1,24
 900 1143 900 1143 928.5 1134.5 c 128,-1,25
 957 1126 957 1126 977 1118 c 1,26,-1
 932 856 l 1,27,-1
 877 856 l 1,28,-1
 861 1030 l 1,29,30
 835 1056 835 1056 798.5 1072.5 c 128,-1,31
 762 1089 762 1089 713 1092 c 1,32,-1
 572 290 l 1,33,34
 646 296 646 296 711 323.5 c 128,-1,35
 776 351 776 351 834 389 c 1,36,-1
 864 347 l 1,0,1
330 545 m 0,37,38
 330 426 330 426 373 366 c 128,-1,39
 416 306 416 306 490 293 c 1,40,-1
 629 1084 l 1,41,42
 568 1067 568 1067 514 1021.5 c 128,-1,43
 460 976 460 976 419 906 c 128,-1,44
 378 836 378 836 354 744.5 c 128,-1,45
 330 653 330 653 330 545 c 0,37,38
EndSplineSet
EndChar

StartChar: sterling
Encoding: 163 163 100
Width: 1024
GlyphClass: 2
Flags: W
LayerCount: 2
Fore
SplineSet
891 154 m 1,0,-1
 864 0 l 1,1,-1
 26 0 l 1,2,-1
 46 117 l 1,3,4
 89 151 89 151 137.5 187.5 c 128,-1,5
 186 224 186 224 226.5 266.5 c 128,-1,6
 267 309 267 309 293.5 360.5 c 128,-1,7
 320 412 320 412 320 477 c 0,8,9
 320 513 320 513 313 550.5 c 128,-1,10
 306 588 306 588 296 629 c 1,11,-1
 134 629 l 1,12,-1
 149 711 l 1,13,-1
 276 711 l 1,14,15
 265 753 265 753 258 798.5 c 128,-1,16
 251 844 251 844 251 894 c 0,17,18
 251 1003 251 1003 282.5 1089 c 128,-1,19
 314 1175 314 1175 376 1234.5 c 128,-1,20
 438 1294 438 1294 529 1325 c 128,-1,21
 620 1356 620 1356 740 1356 c 0,22,23
 819 1356 819 1356 889.5 1344 c 128,-1,24
 960 1332 960 1332 1025 1313 c 1,25,-1
 980 1035 l 1,26,-1
 915 1035 l 1,27,-1
 908 1222 l 1,28,29
 876 1243 876 1243 825.5 1257.5 c 128,-1,30
 775 1272 775 1272 725 1272 c 0,31,32
 650 1272 650 1272 593.5 1243 c 128,-1,33
 537 1214 537 1214 499 1160 c 128,-1,34
 461 1106 461 1106 441.5 1028 c 128,-1,35
 422 950 422 950 422 851 c 0,36,37
 422 834 422 834 422.5 811.5 c 128,-1,38
 423 789 423 789 424 768 c 128,-1,39
 425 747 425 747 425.5 731 c 128,-1,40
 426 715 426 715 426 711 c 1,41,-1
 704 711 l 1,42,-1
 689 629 l 1,43,-1
 427 629 l 1,44,45
 426 588 426 588 423.5 546.5 c 128,-1,46
 421 505 421 505 413 459 c 0,47,48
 404 405 404 405 384 361.5 c 128,-1,49
 364 318 364 318 336 281.5 c 128,-1,50
 308 245 308 245 274 214 c 128,-1,51
 240 183 240 183 201 154 c 1,52,-1
 891 154 l 1,0,-1
EndSplineSet
EndChar

StartChar: currency
Encoding: 164 164 101
Width: 1024
GlyphClass: 2
Flags: W
LayerCount: 2
Fore
SplineSet
132 676 m 256,0,1
 132 744 132 744 153 804 c 128,-1,2
 174 864 174 864 212 913 c 1,3,-1
 105 1020 l 1,4,-1
 179 1094 l 1,5,-1
 283 985 l 1,6,7
 333 1023 333 1023 393 1045 c 128,-1,8
 453 1067 453 1067 521 1067 c 0,9,10
 587 1067 587 1067 648 1045 c 128,-1,11
 709 1023 709 1023 759 985 c 1,12,-1
 867 1094 l 1,13,-1
 939 1022 l 1,14,-1
 830 913 l 1,15,16
 868 862 868 862 890 802 c 128,-1,17
 912 742 912 742 912 676 c 0,18,19
 912 608 912 608 890 548 c 128,-1,20
 868 488 868 488 830 438 c 1,21,-1
 939 332 l 1,22,-1
 867 260 l 1,23,-1
 759 367 l 1,24,25
 709 328 709 328 648 307.5 c 128,-1,26
 587 287 587 287 521 287 c 0,27,28
 453 287 453 287 393 308 c 128,-1,29
 333 329 333 329 283 367 c 1,30,-1
 177 260 l 1,31,-1
 105 332 l 1,32,-1
 212 438 l 1,33,34
 174 488 174 488 153 548 c 128,-1,35
 132 608 132 608 132 676 c 256,0,1
228 676 m 0,36,37
 228 616 228 616 251.5 562.5 c 128,-1,38
 275 509 275 509 314.5 469.5 c 128,-1,39
 354 430 354 430 407.5 406.5 c 128,-1,40
 461 383 461 383 521 383 c 0,41,42
 582 383 582 383 635.5 406.5 c 128,-1,43
 689 430 689 430 729 469.5 c 128,-1,44
 769 509 769 509 792.5 562.5 c 128,-1,45
 816 616 816 616 816 676 c 0,46,47
 816 737 816 737 792.5 790.5 c 128,-1,48
 769 844 769 844 729 884 c 128,-1,49
 689 924 689 924 635.5 947.5 c 128,-1,50
 582 971 582 971 521 971 c 0,51,52
 461 971 461 971 407.5 947.5 c 128,-1,53
 354 924 354 924 314.5 884 c 128,-1,54
 275 844 275 844 251.5 790.5 c 128,-1,55
 228 737 228 737 228 676 c 0,36,37
EndSplineSet
EndChar

StartChar: yen
Encoding: 165 165 102
Width: 1024
GlyphClass: 2
Flags: W
LayerCount: 2
Fore
SplineSet
860 393 m 1,0,-1
 845 311 l 1,1,-1
 566 311 l 1,2,-1
 526 80 l 1,3,-1
 693 53 l 1,4,-1
 684 0 l 1,5,-1
 148 0 l 1,6,-1
 157 53 l 1,7,-1
 334 80 l 1,8,-1
 374 311 l 1,9,-1
 95 311 l 1,10,-1
 110 393 l 1,11,-1
 389 393 l 1,12,-1
 412 522 l 1,13,-1
 406 557 l 1,14,-1
 139 557 l 1,15,-1
 153 639 l 1,16,-1
 383 639 l 1,17,-1
 230 1262 l 1,18,-1
 135 1288 l 1,19,-1
 144 1341 l 1,20,-1
 574 1341 l 1,21,-1
 565 1288 l 1,22,-1
 429 1262 l 1,23,-1
 566 634 l 1,24,-1
 927 1262 l 1,25,-1
 809 1288 l 1,26,-1
 818 1341 l 1,27,-1
 1164 1341 l 1,28,-1
 1155 1288 l 1,29,-1
 1046 1262 l 1,30,-1
 671 639 l 1,31,-1
 903 639 l 1,32,-1
 889 557 l 1,33,-1
 622 557 l 1,34,-1
 605 528 l 1,35,-1
 581 393 l 1,36,-1
 860 393 l 1,0,-1
EndSplineSet
EndChar

StartChar: brokenbar
Encoding: 166 166 103
Width: 563
GlyphClass: 2
Flags: W
LayerCount: 2
Fore
SplineSet
267 801 m 1,0,-1
 267 1421 l 1,1,-1
 369 1421 l 1,2,-1
 369 801 l 1,3,-1
 267 801 l 1,0,-1
267 -442 m 1,4,-1
 267 180 l 1,5,-1
 369 180 l 1,6,-1
 369 -442 l 1,7,-1
 267 -442 l 1,4,-1
EndSplineSet
EndChar

StartChar: section
Encoding: 167 167 104
Width: 1024
GlyphClass: 2
Flags: W
LayerCount: 2
Fore
SplineSet
784 69 m 0,0,1
 784 -256 784 -256 372 -256 c 0,2,3
 325 -256 325 -256 280 -251 c 128,-1,4
 235 -246 235 -246 195 -238.5 c 128,-1,5
 155 -231 155 -231 122 -221.5 c 128,-1,6
 89 -212 89 -212 66 -202 c 1,7,-1
 107 28 l 1,8,-1
 152 28 l 1,9,-1
 171 -109 l 1,10,11
 185 -123 185 -123 207.5 -136 c 128,-1,12
 230 -149 230 -149 258 -159 c 128,-1,13
 286 -169 286 -169 318 -175 c 128,-1,14
 350 -181 350 -181 383 -181 c 0,15,16
 432 -181 432 -181 476 -170.5 c 128,-1,17
 520 -160 520 -160 552 -136 c 128,-1,18
 584 -112 584 -112 603 -74 c 128,-1,19
 622 -36 622 -36 622 19 c 0,20,21
 622 75 622 75 589.5 115.5 c 128,-1,22
 557 156 557 156 508.5 190 c 128,-1,23
 460 224 460 224 403.5 256 c 128,-1,24
 347 288 347 288 298.5 327 c 128,-1,25
 250 366 250 366 217.5 417.5 c 128,-1,26
 185 469 185 469 185 542 c 0,27,28
 185 618 185 618 213 672.5 c 128,-1,29
 241 727 241 727 285 762.5 c 128,-1,30
 329 798 329 798 384.5 817.5 c 128,-1,31
 440 837 440 837 496 845 c 1,32,33
 461 864 461 864 429 887 c 128,-1,34
 397 910 397 910 373 939.5 c 128,-1,35
 349 969 349 969 334.5 1005.5 c 128,-1,36
 320 1042 320 1042 320 1090 c 0,37,38
 320 1171 320 1171 348 1228 c 128,-1,39
 376 1285 376 1285 423 1321 c 128,-1,40
 470 1357 470 1357 532.5 1373 c 128,-1,41
 595 1389 595 1389 663 1389 c 0,42,43
 737 1389 737 1389 805 1378.5 c 128,-1,44
 873 1368 873 1368 936 1354 c 1,45,-1
 900 1145 l 1,46,-1
 855 1145 l 1,47,-1
 841 1253 l 1,48,49
 812 1278 812 1278 766.5 1293.5 c 128,-1,50
 721 1309 721 1309 667 1309 c 0,51,52
 580 1309 580 1309 529 1268.5 c 128,-1,53
 478 1228 478 1228 478 1143 c 0,54,55
 478 1104 478 1104 497 1074.5 c 128,-1,56
 516 1045 516 1045 547 1021 c 128,-1,57
 578 997 578 997 617.5 975.5 c 128,-1,58
 657 954 657 954 698.5 932 c 128,-1,59
 740 910 740 910 779.5 885 c 128,-1,60
 819 860 819 860 850 827 c 128,-1,61
 881 794 881 794 900 752 c 128,-1,62
 919 710 919 710 919 654 c 0,63,64
 919 586 919 586 896 532.5 c 128,-1,65
 873 479 873 479 831 439.5 c 128,-1,66
 789 400 789 400 729.5 375 c 128,-1,67
 670 350 670 350 597 340 c 1,68,69
 634 317 634 317 667.5 290.5 c 128,-1,70
 701 264 701 264 727 231.5 c 128,-1,71
 753 199 753 199 768.5 159 c 128,-1,72
 784 119 784 119 784 69 c 0,0,1
757 604 m 0,73,74
 757 638 757 638 744.5 665 c 128,-1,75
 732 692 732 692 710 714 c 128,-1,76
 688 736 688 736 659.5 754.5 c 128,-1,77
 631 773 631 773 599 790 c 1,78,79
 536 787 536 787 488.5 770 c 128,-1,80
 441 753 441 753 408.5 726 c 128,-1,81
 376 699 376 699 359.5 663.5 c 128,-1,82
 343 628 343 628 343 586 c 0,83,84
 343 522 343 522 383.5 479.5 c 128,-1,85
 424 437 424 437 493 404 c 1,86,87
 546 406 546 406 594 416 c 128,-1,88
 642 426 642 426 678 448.5 c 128,-1,89
 714 471 714 471 735.5 509 c 128,-1,90
 757 547 757 547 757 604 c 0,73,74
EndSplineSet
EndChar

StartChar: dieresis
Encoding: 168 168 105
Width: 682
GlyphClass: 2
Flags: W
LayerCount: 2
Fore
SplineSet
760 1231 m 256,0,1
 760 1189 760 1189 732 1159.5 c 128,-1,2
 704 1130 704 1130 662 1130 c 0,3,4
 641 1130 641 1130 623 1138 c 128,-1,5
 605 1146 605 1146 591.5 1160 c 128,-1,6
 578 1174 578 1174 570 1192 c 128,-1,7
 562 1210 562 1210 562 1231 c 0,8,9
 562 1273 562 1273 591 1302 c 128,-1,10
 620 1331 620 1331 662 1331 c 256,11,12
 704 1331 704 1331 732 1302 c 128,-1,13
 760 1273 760 1273 760 1231 c 256,0,1
404 1231 m 256,14,15
 404 1189 404 1189 376 1159.5 c 128,-1,16
 348 1130 348 1130 306 1130 c 0,17,18
 285 1130 285 1130 267 1138 c 128,-1,19
 249 1146 249 1146 235 1160 c 128,-1,20
 221 1174 221 1174 213 1192 c 128,-1,21
 205 1210 205 1210 205 1231 c 256,22,23
 205 1252 205 1252 213 1270 c 128,-1,24
 221 1288 221 1288 235 1301.5 c 128,-1,25
 249 1315 249 1315 267 1323 c 128,-1,26
 285 1331 285 1331 306 1331 c 0,27,28
 348 1331 348 1331 376 1302 c 128,-1,29
 404 1273 404 1273 404 1231 c 256,14,15
EndSplineSet
EndChar

StartChar: copyright
Encoding: 169 169 106
Width: 1556
GlyphClass: 2
Flags: W
LayerCount: 2
Fore
SplineSet
118 670 m 0,0,1
 118 766 118 766 142.5 854.5 c 128,-1,2
 167 943 167 943 212 1020 c 128,-1,3
 257 1097 257 1097 319.5 1160 c 128,-1,4
 382 1223 382 1223 459 1268 c 128,-1,5
 536 1313 536 1313 624 1337.5 c 128,-1,6
 712 1362 712 1362 808 1362 c 256,7,8
 904 1362 904 1362 992.5 1337.5 c 128,-1,9
 1081 1313 1081 1313 1158 1268 c 128,-1,10
 1235 1223 1235 1223 1298 1160 c 128,-1,11
 1361 1097 1361 1097 1406 1020 c 128,-1,12
 1451 943 1451 943 1475.5 854.5 c 128,-1,13
 1500 766 1500 766 1500 670 c 256,14,15
 1500 574 1500 574 1475.5 486 c 128,-1,16
 1451 398 1451 398 1406 321 c 128,-1,17
 1361 244 1361 244 1298 181.5 c 128,-1,18
 1235 119 1235 119 1158 74 c 128,-1,19
 1081 29 1081 29 992.5 4.5 c 128,-1,20
 904 -20 904 -20 808 -20 c 0,21,22
 664 -20 664 -20 538.5 34 c 128,-1,23
 413 88 413 88 319.5 181.5 c 128,-1,24
 226 275 226 275 172 400.5 c 128,-1,25
 118 526 118 526 118 670 c 0,0,1
188 670 m 256,26,27
 188 541 188 541 236.5 428 c 128,-1,28
 285 315 285 315 369 230.5 c 128,-1,29
 453 146 453 146 566 97.5 c 128,-1,30
 679 49 679 49 808 49 c 256,31,32
 937 49 937 49 1050.5 97.5 c 128,-1,33
 1164 146 1164 146 1248.5 230.5 c 128,-1,34
 1333 315 1333 315 1382 428 c 128,-1,35
 1431 541 1431 541 1431 670 c 0,36,37
 1431 756 1431 756 1408.5 835.5 c 128,-1,38
 1386 915 1386 915 1345.5 984 c 128,-1,39
 1305 1053 1305 1053 1248.5 1110 c 128,-1,40
 1192 1167 1192 1167 1122.5 1207.5 c 128,-1,41
 1053 1248 1053 1248 973.5 1270 c 128,-1,42
 894 1292 894 1292 808 1292 c 0,43,44
 679 1292 679 1292 566 1243 c 128,-1,45
 453 1194 453 1194 369 1110 c 128,-1,46
 285 1026 285 1026 236.5 912.5 c 128,-1,47
 188 799 188 799 188 670 c 256,26,27
825 258 m 0,48,49
 726 258 726 258 648.5 286 c 128,-1,50
 571 314 571 314 517.5 366.5 c 128,-1,51
 464 419 464 419 436.5 494 c 128,-1,52
 409 569 409 569 409 664 c 0,53,54
 409 772 409 772 437 851.5 c 128,-1,55
 465 931 465 931 518 982.5 c 128,-1,56
 571 1034 571 1034 649 1059.5 c 128,-1,57
 727 1085 727 1085 827 1085 c 0,58,59
 908 1085 908 1085 973.5 1075.5 c 128,-1,60
 1039 1066 1039 1066 1095 1055 c 1,61,-1
 1099 868 l 1,62,-1
 1050 868 l 1,63,-1
 1031 973 l 1,64,65
 989 999 989 999 938.5 1011.5 c 128,-1,66
 888 1024 888 1024 831 1024 c 0,67,68
 765 1024 765 1024 714 1007 c 128,-1,69
 663 990 663 990 627.5 948.5 c 128,-1,70
 592 907 592 907 574 838 c 128,-1,71
 556 769 556 769 556 666 c 0,72,73
 556 483 556 483 626 400 c 128,-1,74
 696 317 696 317 825 317 c 0,75,76
 900 317 900 317 954.5 334.5 c 128,-1,77
 1009 352 1009 352 1040 377 c 1,78,-1
 1062 496 l 1,79,-1
 1111 496 l 1,80,-1
 1107 297 l 1,81,82
 1056 281 1056 281 980.5 269.5 c 128,-1,83
 905 258 905 258 825 258 c 0,48,49
EndSplineSet
EndChar

StartChar: ordfeminine
Encoding: 170 170 107
Width: 565
GlyphClass: 2
Flags: W
LayerCount: 2
Fore
SplineSet
549 836 m 1,0,-1
 635 821 l 1,1,-1
 626 782 l 1,2,-1
 426 782 l 1,3,-1
 438 856 l 1,4,5
 422 839 422 839 402.5 823.5 c 128,-1,6
 383 808 383 808 360 795 c 128,-1,7
 337 782 337 782 309.5 774.5 c 128,-1,8
 282 767 282 767 250 767 c 0,9,10
 216 767 216 767 187 782 c 128,-1,11
 158 797 158 797 137 825 c 128,-1,12
 116 853 116 853 104 893 c 128,-1,13
 92 933 92 933 92 983 c 0,14,15
 92 1058 92 1058 115 1127 c 128,-1,16
 138 1196 138 1196 183 1248 c 128,-1,17
 228 1300 228 1300 294 1331 c 128,-1,18
 360 1362 360 1362 446 1362 c 0,19,20
 490 1362 490 1362 525 1352.5 c 128,-1,21
 560 1343 560 1343 578 1336 c 1,22,-1
 584 1339 l 2,23,24
 587 1341 587 1341 590 1342.5 c 128,-1,25
 593 1344 593 1344 597 1346 c 0,26,27
 605 1350 605 1350 616 1357 c 1,28,-1
 646 1357 l 1,29,-1
 549 836 l 1,0,-1
508 1278 m 1,30,31
 490 1289 490 1289 464 1297 c 128,-1,32
 438 1305 438 1305 410 1305 c 0,33,34
 361 1305 361 1305 325 1277 c 128,-1,35
 289 1249 289 1249 265 1204 c 128,-1,36
 241 1159 241 1159 229.5 1103 c 128,-1,37
 218 1047 218 1047 218 992 c 0,38,39
 218 919 218 919 242 886 c 128,-1,40
 266 853 266 853 308 853 c 0,41,42
 337 853 337 853 371.5 864 c 128,-1,43
 406 875 406 875 440 895 c 1,44,-1
 508 1278 l 1,30,31
EndSplineSet
EndChar

StartChar: guillemotleft
Encoding: 171 171 108
Width: 1024
GlyphClass: 2
Flags: W
LayerCount: 2
Fore
SplineSet
122 496 m 1,0,-1
 539 852 l 1,1,-1
 600 852 l 1,2,-1
 280 457 l 1,3,-1
 463 74 l 1,4,-1
 402 74 l 1,5,-1
 111 430 l 1,6,-1
 122 496 l 1,0,-1
531 496 m 1,7,-1
 949 852 l 1,8,-1
 1010 852 l 1,9,-1
 689 457 l 1,10,-1
 873 74 l 1,11,-1
 812 74 l 1,12,-1
 520 430 l 1,13,-1
 531 496 l 1,7,-1
EndSplineSet
EndChar

StartChar: logicalnot
Encoding: 172 172 109
Width: 1382
GlyphClass: 2
Flags: W
LayerCount: 2
Fore
SplineSet
1178 731 m 1,0,-1
 1178 203 l 1,1,-1
 1075 203 l 1,2,-1
 1075 629 l 1,3,-1
 225 629 l 1,4,-1
 225 731 l 1,5,-1
 1178 731 l 1,0,-1
EndSplineSet
EndChar

StartChar: registered
Encoding: 174 174 110
Width: 1556
GlyphClass: 2
Flags: W
LayerCount: 2
Fore
SplineSet
118 670 m 0,0,1
 118 766 118 766 142.5 854.5 c 128,-1,2
 167 943 167 943 212 1020 c 128,-1,3
 257 1097 257 1097 319.5 1160 c 128,-1,4
 382 1223 382 1223 459 1268 c 128,-1,5
 536 1313 536 1313 624 1337.5 c 128,-1,6
 712 1362 712 1362 808 1362 c 256,7,8
 904 1362 904 1362 992.5 1337.5 c 128,-1,9
 1081 1313 1081 1313 1158 1268 c 128,-1,10
 1235 1223 1235 1223 1298 1160 c 128,-1,11
 1361 1097 1361 1097 1406 1020 c 128,-1,12
 1451 943 1451 943 1475.5 854.5 c 128,-1,13
 1500 766 1500 766 1500 670 c 256,14,15
 1500 574 1500 574 1475.5 486 c 128,-1,16
 1451 398 1451 398 1406 321 c 128,-1,17
 1361 244 1361 244 1298 181.5 c 128,-1,18
 1235 119 1235 119 1158 74 c 128,-1,19
 1081 29 1081 29 992.5 4.5 c 128,-1,20
 904 -20 904 -20 808 -20 c 0,21,22
 664 -20 664 -20 538.5 34 c 128,-1,23
 413 88 413 88 319.5 181.5 c 128,-1,24
 226 275 226 275 172 400.5 c 128,-1,25
 118 526 118 526 118 670 c 0,0,1
188 670 m 256,26,27
 188 541 188 541 236.5 428 c 128,-1,28
 285 315 285 315 369 230.5 c 128,-1,29
 453 146 453 146 566 97.5 c 128,-1,30
 679 49 679 49 808 49 c 256,31,32
 937 49 937 49 1050.5 97.5 c 128,-1,33
 1164 146 1164 146 1248.5 230.5 c 128,-1,34
 1333 315 1333 315 1382 428 c 128,-1,35
 1431 541 1431 541 1431 670 c 0,36,37
 1431 756 1431 756 1408.5 835.5 c 128,-1,38
 1386 915 1386 915 1345.5 984 c 128,-1,39
 1305 1053 1305 1053 1248.5 1110 c 128,-1,40
 1192 1167 1192 1167 1122.5 1207.5 c 128,-1,41
 1053 1248 1053 1248 973.5 1270 c 128,-1,42
 894 1292 894 1292 808 1292 c 0,43,44
 679 1292 679 1292 566 1243 c 128,-1,45
 453 1194 453 1194 369 1110 c 128,-1,46
 285 1026 285 1026 236.5 912.5 c 128,-1,47
 188 799 188 799 188 670 c 256,26,27
698 625 m 1,48,-1
 698 336 l 1,49,-1
 812 319 l 1,50,-1
 812 276 l 1,51,-1
 466 276 l 1,52,-1
 466 319 l 1,53,-1
 562 336 l 1,54,-1
 562 1024 l 1,55,-1
 458 1040 l 1,56,-1
 458 1081 l 1,57,-1
 788 1081 l 2,58,59
 872 1081 872 1081 931.5 1065 c 128,-1,60
 991 1049 991 1049 1029 1019.5 c 128,-1,61
 1067 990 1067 990 1085 949.5 c 128,-1,62
 1103 909 1103 909 1103 860 c 0,63,64
 1103 783 1103 783 1058 727 c 128,-1,65
 1013 671 1013 671 925 643 c 1,66,-1
 1138 336 l 1,67,-1
 1222 319 l 1,68,-1
 1222 276 l 1,69,-1
 1017 276 l 1,70,-1
 788 625 l 1,71,-1
 698 625 l 1,48,-1
962 858 m 0,72,73
 962 906 962 906 950.5 937 c 128,-1,74
 939 968 939 968 915 986.5 c 128,-1,75
 891 1005 891 1005 853 1012.5 c 128,-1,76
 815 1020 815 1020 761 1020 c 2,77,-1
 698 1020 l 1,78,-1
 698 688 l 1,79,-1
 765 688 l 2,80,81
 820 688 820 688 858 697.5 c 128,-1,82
 896 707 896 707 919 727 c 128,-1,83
 942 747 942 747 952 779.5 c 128,-1,84
 962 812 962 812 962 858 c 0,72,73
EndSplineSet
EndChar

StartChar: macron
Encoding: 175 175 111
Width: 1024
GlyphClass: 2
Flags: W
LayerCount: 2
Fore
SplineSet
1205 1452 m 1,0,-1
 146 1452 l 1,1,-1
 146 1546 l 1,2,-1
 1205 1546 l 1,3,-1
 1205 1452 l 1,0,-1
EndSplineSet
EndChar

StartChar: degree
Encoding: 176 176 112
Width: 819
GlyphClass: 2
Flags: W
LayerCount: 2
Fore
SplineSet
164 1051 m 0,0,1
 164 1115 164 1115 188 1172 c 128,-1,2
 212 1229 212 1229 254 1271 c 128,-1,3
 296 1313 296 1313 352.5 1337.5 c 128,-1,4
 409 1362 409 1362 474 1362 c 0,5,6
 538 1362 538 1362 595 1337.5 c 128,-1,7
 652 1313 652 1313 694 1271 c 128,-1,8
 736 1229 736 1229 760.5 1172 c 128,-1,9
 785 1115 785 1115 785 1051 c 0,10,11
 785 986 785 986 760.5 929.5 c 128,-1,12
 736 873 736 873 694 831 c 128,-1,13
 652 789 652 789 595 765 c 128,-1,14
 538 741 538 741 474 741 c 0,15,16
 409 741 409 741 352.5 765 c 128,-1,17
 296 789 296 789 254 831 c 128,-1,18
 212 873 212 873 188 929.5 c 128,-1,19
 164 986 164 986 164 1051 c 0,0,1
266 1051 m 256,20,21
 266 1007 266 1007 282 969 c 128,-1,22
 298 931 298 931 326.5 902.5 c 128,-1,23
 355 874 355 874 392.5 857.5 c 128,-1,24
 430 841 430 841 474 841 c 256,25,26
 518 841 518 841 556.5 857.5 c 128,-1,27
 595 874 595 874 623 902.5 c 128,-1,28
 651 931 651 931 667 969 c 128,-1,29
 683 1007 683 1007 683 1051 c 256,30,31
 683 1095 683 1095 667 1133.5 c 128,-1,32
 651 1172 651 1172 623 1200.5 c 128,-1,33
 595 1229 595 1229 556.5 1245.5 c 128,-1,34
 518 1262 518 1262 474 1262 c 256,35,36
 430 1262 430 1262 392.5 1245.5 c 128,-1,37
 355 1229 355 1229 326.5 1200.5 c 128,-1,38
 298 1172 298 1172 282 1133.5 c 128,-1,39
 266 1095 266 1095 266 1051 c 256,20,21
EndSplineSet
EndChar

StartChar: plusminus
Encoding: 177 177 113
Width: 1124
GlyphClass: 2
Flags: W
LayerCount: 2
Fore
SplineSet
622 629 m 1,0,-1
 622 203 l 1,1,-1
 519 203 l 1,2,-1
 519 629 l 1,3,-1
 95 629 l 1,4,-1
 95 731 l 1,5,-1
 519 731 l 1,6,-1
 519 1157 l 1,7,-1
 622 1157 l 1,8,-1
 622 731 l 1,9,-1
 1048 731 l 1,10,-1
 1048 629 l 1,11,-1
 622 629 l 1,0,-1
1048 102 m 1,12,-1
 1048 0 l 1,13,-1
 95 0 l 1,14,-1
 95 102 l 1,15,-1
 1048 102 l 1,12,-1
EndSplineSet
EndChar

StartChar: uni00B2
Encoding: 178 178 114
Width: 614
GlyphClass: 2
Flags: W
LayerCount: 2
Fore
SplineSet
547 535 m 1,0,-1
 49 535 l 1,1,-1
 64 631 l 1,2,3
 163 703 163 703 243 765.5 c 128,-1,4
 323 828 323 828 379.5 890 c 128,-1,5
 436 952 436 952 467 1017.5 c 128,-1,6
 498 1083 498 1083 498 1161 c 0,7,8
 498 1213 498 1213 470 1247.5 c 128,-1,9
 442 1282 442 1282 387 1282 c 0,10,11
 352 1282 352 1282 321 1272 c 128,-1,12
 290 1262 290 1262 267 1249 c 1,13,-1
 229 1151 l 1,14,-1
 174 1151 l 1,15,-1
 205 1323 l 1,16,17
 251 1334 251 1334 299.5 1342 c 128,-1,18
 348 1350 348 1350 399 1350 c 0,19,20
 515 1350 515 1350 578 1299 c 128,-1,21
 641 1248 641 1248 641 1161 c 0,22,23
 641 1083 641 1083 602.5 1017 c 128,-1,24
 564 951 564 951 499.5 890.5 c 128,-1,25
 435 830 435 830 351.5 770 c 128,-1,26
 268 710 268 710 179 643 c 1,27,-1
 566 643 l 1,28,-1
 547 535 l 1,0,-1
EndSplineSet
EndChar

StartChar: uni00B3
Encoding: 179 179 115
Width: 614
GlyphClass: 2
Flags: W
LayerCount: 2
Fore
SplineSet
259 522 m 0,0,1
 200 522 200 522 142 530 c 128,-1,2
 84 538 84 538 41 549 c 1,3,-1
 67 735 l 1,4,-1
 122 735 l 1,5,-1
 129 623 l 1,6,7
 149 610 149 610 185.5 600 c 128,-1,8
 222 590 222 590 259 590 c 0,9,10
 316 590 316 590 355 603.5 c 128,-1,11
 394 617 394 617 418.5 642 c 128,-1,12
 443 667 443 667 454 703 c 128,-1,13
 465 739 465 739 465 784 c 0,14,15
 465 850 465 850 426 881.5 c 128,-1,16
 387 913 387 913 326 918 c 2,17,-1
 241 924 l 1,18,-1
 253 989 l 1,19,-1
 340 993 l 2,20,21
 412 996 412 996 455.5 1039 c 128,-1,22
 499 1082 499 1082 499 1174 c 0,23,24
 499 1226 499 1226 470.5 1254 c 128,-1,25
 442 1282 442 1282 377 1282 c 0,26,27
 345 1282 345 1282 313.5 1274 c 128,-1,28
 282 1266 282 1266 258 1253 c 1,29,-1
 220 1151 l 1,30,-1
 165 1151 l 1,31,-1
 196 1323 l 1,32,33
 239 1334 239 1334 283.5 1342 c 128,-1,34
 328 1350 328 1350 388 1350 c 0,35,36
 445 1350 445 1350 491.5 1338 c 128,-1,37
 538 1326 538 1326 571 1303.5 c 128,-1,38
 604 1281 604 1281 622 1248.5 c 128,-1,39
 640 1216 640 1216 640 1176 c 0,40,41
 640 1128 640 1128 624 1090.5 c 128,-1,42
 608 1053 608 1053 578.5 1025.5 c 128,-1,43
 549 998 549 998 507 981 c 128,-1,44
 465 964 465 964 413 956 c 1,45,46
 508 945 508 945 557 901.5 c 128,-1,47
 606 858 606 858 606 788 c 0,48,49
 606 734 606 734 584.5 685.5 c 128,-1,50
 563 637 563 637 520 600.5 c 128,-1,51
 477 564 477 564 411.5 543 c 128,-1,52
 346 522 346 522 259 522 c 0,0,1
EndSplineSet
EndChar

StartChar: acute
Encoding: 180 180 116
Width: 682
GlyphClass: 2
Flags: W
LayerCount: 2
Fore
SplineSet
248 1118 m 1,0,-1
 253 1151 l 1,1,-1
 497 1423 l 1,2,-1
 710 1423 l 1,3,-1
 704 1386 l 1,4,-1
 303 1118 l 1,5,-1
 248 1118 l 1,0,-1
EndSplineSet
EndChar

StartChar: u00B5
Encoding: 181 181 117
Width: 1180
GlyphClass: 2
Flags: W
LayerCount: 2
Fore
SplineSet
719 124 m 1,0,1
 698 103 698 103 669.5 78 c 128,-1,2
 641 53 641 53 607 31 c 128,-1,3
 573 9 573 9 536 -5.5 c 128,-1,4
 499 -20 499 -20 461 -20 c 0,5,6
 409 -20 409 -20 375 -2 c 128,-1,7
 341 16 341 16 325 58 c 1,8,9
 302 -75 302 -75 270.5 -204 c 128,-1,10
 239 -333 239 -333 204 -436 c 1,11,-1
 27 -436 l 1,12,-1
 35 -391 l 1,13,14
 44 -372 44 -372 60.5 -329 c 128,-1,15
 77 -286 77 -286 95.5 -225.5 c 128,-1,16
 114 -165 114 -165 133 -90 c 128,-1,17
 152 -15 152 -15 167 69 c 2,18,-1
 308 870 l 1,19,-1
 173 895 l 1,20,-1
 181 940 l 1,21,-1
 487 940 l 1,22,-1
 372 288 l 2,23,24
 370 276 370 276 369 264.5 c 128,-1,25
 368 253 368 253 368 242 c 0,26,27
 368 173 368 173 406 134.5 c 128,-1,28
 444 96 444 96 508 96 c 0,29,30
 536 96 536 96 567 106.5 c 128,-1,31
 598 117 598 117 628.5 133.5 c 128,-1,32
 659 150 659 150 685.5 171 c 128,-1,33
 712 192 712 192 731 213 c 1,34,-1
 862 940 l 1,35,-1
 1025 940 l 1,36,-1
 871 70 l 1,37,-1
 1004 45 l 1,38,-1
 996 0 l 1,39,-1
 718 0 l 1,40,-1
 719 124 l 1,0,1
EndSplineSet
EndChar

StartChar: paragraph
Encoding: 182 182 118
Width: 1071
GlyphClass: 2
Flags: W
LayerCount: 2
Fore
SplineSet
924 1266 m 1,0,-1
 924 -258 l 1,1,-1
 830 -258 l 1,2,-1
 830 1266 l 1,3,-1
 660 1266 l 1,4,-1
 660 -258 l 1,5,-1
 566 -258 l 1,6,-1
 568 565 l 1,7,8
 476 565 476 565 395 588 c 128,-1,9
 314 611 314 611 253 660 c 128,-1,10
 192 709 192 709 156.5 784 c 128,-1,11
 121 859 121 859 121 963 c 0,12,13
 121 1053 121 1053 148.5 1123 c 128,-1,14
 176 1193 176 1193 230.5 1241.5 c 128,-1,15
 285 1290 285 1290 366.5 1315.5 c 128,-1,16
 448 1341 448 1341 555 1341 c 2,17,-1
 1018 1341 l 1,18,-1
 1018 1288 l 1,19,-1
 924 1266 l 1,0,-1
EndSplineSet
EndChar

StartChar: periodcentered
Encoding: 183 183 119
AltUni2: 002219.ffffffff.0
Width: 512
GlyphClass: 2
Flags: W
LayerCount: 2
Fore
SplineSet
407 678 m 0,0,1
 407 652 407 652 397.5 630 c 128,-1,2
 388 608 388 608 372 592 c 128,-1,3
 356 576 356 576 333.5 566.5 c 128,-1,4
 311 557 311 557 286 557 c 0,5,6
 260 557 260 557 238 566.5 c 128,-1,7
 216 576 216 576 200 592 c 128,-1,8
 184 608 184 608 174.5 630 c 128,-1,9
 165 652 165 652 165 678 c 0,10,11
 165 703 165 703 174.5 725 c 128,-1,12
 184 747 184 747 200 763.5 c 128,-1,13
 216 780 216 780 238 789.5 c 128,-1,14
 260 799 260 799 286 799 c 0,15,16
 311 799 311 799 333.5 789.5 c 128,-1,17
 356 780 356 780 372 763.5 c 128,-1,18
 388 747 388 747 397.5 725 c 128,-1,19
 407 703 407 703 407 678 c 0,0,1
EndSplineSet
EndChar

StartChar: cedilla
Encoding: 184 184 120
Width: 682
GlyphClass: 2
Flags: W
LayerCount: 2
Fore
SplineSet
526 -212 m 0,0,1
 526 -310 526 -310 454.5 -368.5 c 128,-1,2
 383 -427 383 -427 247 -427 c 0,3,4
 212 -427 212 -427 176 -421 c 128,-1,5
 140 -415 140 -415 114 -406 c 1,6,-1
 137 -331 l 1,7,8
 146 -334 146 -334 158 -337 c 128,-1,9
 170 -340 170 -340 183.5 -342 c 128,-1,10
 197 -344 197 -344 210.5 -345.5 c 128,-1,11
 224 -347 224 -347 234 -347 c 0,12,13
 295 -347 295 -347 333 -319.5 c 128,-1,14
 371 -292 371 -292 371 -235 c 0,15,16
 371 -207 371 -207 358.5 -187 c 128,-1,17
 346 -167 346 -167 327 -154 c 128,-1,18
 308 -141 308 -141 284 -134.5 c 128,-1,19
 260 -128 260 -128 238 -126 c 1,20,-1
 306 27 l 1,21,-1
 392 27 l 1,22,-1
 359 -55 l 1,23,24
 439 -63 439 -63 482.5 -104 c 128,-1,25
 526 -145 526 -145 526 -212 c 0,0,1
EndSplineSet
EndChar

StartChar: uni00B9
Encoding: 185 185 121
Width: 614
GlyphClass: 2
Flags: W
LayerCount: 2
Fore
SplineSet
388 598 m 1,0,-1
 552 584 l 1,1,-1
 543 535 l 1,2,-1
 69 535 l 1,3,-1
 77 584 l 1,4,-1
 244 598 l 1,5,-1
 354 1223 l 1,6,-1
 183 1165 l 1,7,-1
 191 1212 l 1,8,-1
 448 1346 l 1,9,-1
 520 1346 l 1,10,-1
 388 598 l 1,0,-1
EndSplineSet
EndChar

StartChar: ordmasculine
Encoding: 186 186 122
Width: 635
GlyphClass: 2
Flags: W
LayerCount: 2
Fore
SplineSet
430 1305 m 0,0,1
 391 1305 391 1305 357 1282 c 128,-1,2
 323 1259 323 1259 297 1218 c 128,-1,3
 271 1177 271 1177 256 1121 c 128,-1,4
 241 1065 241 1065 241 998 c 0,5,6
 241 917 241 917 270.5 873 c 128,-1,7
 300 829 300 829 353 829 c 0,8,9
 392 829 392 829 426.5 852 c 128,-1,10
 461 875 461 875 487 915.5 c 128,-1,11
 513 956 513 956 528.5 1012 c 128,-1,12
 544 1068 544 1068 544 1133 c 0,13,14
 544 1218 544 1218 514.5 1261.5 c 128,-1,15
 485 1305 485 1305 430 1305 c 0,0,1
340 770 m 0,16,17
 290 770 290 770 248.5 786.5 c 128,-1,18
 207 803 207 803 177 833.5 c 128,-1,19
 147 864 147 864 130.5 908 c 128,-1,20
 114 952 114 952 114 1007 c 0,21,22
 114 1077 114 1077 137 1141.5 c 128,-1,23
 160 1206 160 1206 203 1255 c 128,-1,24
 246 1304 246 1304 307.5 1333 c 128,-1,25
 369 1362 369 1362 446 1362 c 0,26,27
 496 1362 496 1362 537.5 1345.5 c 128,-1,28
 579 1329 579 1329 609 1298.5 c 128,-1,29
 639 1268 639 1268 655.5 1224 c 128,-1,30
 672 1180 672 1180 672 1125 c 0,31,32
 672 1054 672 1054 649 990 c 128,-1,33
 626 926 626 926 583 877 c 128,-1,34
 540 828 540 828 478.5 799 c 128,-1,35
 417 770 417 770 340 770 c 0,16,17
EndSplineSet
EndChar

StartChar: guillemotright
Encoding: 187 187 123
Width: 1024
GlyphClass: 2
Flags: W
LayerCount: 2
Fore
SplineSet
901 430 m 1,0,-1
 484 74 l 1,1,-1
 423 74 l 1,2,-1
 744 470 l 1,3,-1
 560 852 l 1,4,-1
 621 852 l 1,5,-1
 912 496 l 1,6,-1
 901 430 l 1,0,-1
492 430 m 1,7,-1
 74 74 l 1,8,-1
 13 74 l 1,9,-1
 335 470 l 1,10,-1
 150 852 l 1,11,-1
 211 852 l 1,12,-1
 503 496 l 1,13,-1
 492 430 l 1,7,-1
EndSplineSet
EndChar

StartChar: questiondown
Encoding: 191 191 127
Width: 1024
GlyphClass: 2
Flags: W
LayerCount: 2
Fore
SplineSet
593 582 m 1,0,-1
 673 582 l 1,1,-1
 640 248 l 1,2,-1
 492 219 l 2,3,4
 376 196 376 196 321 115.5 c 128,-1,5
 266 35 266 35 266 -119 c 0,6,7
 266 -223 266 -223 312 -281.5 c 128,-1,8
 358 -340 358 -340 465 -340 c 0,9,10
 493 -340 493 -340 524.5 -334.5 c 128,-1,11
 556 -329 556 -329 585.5 -319 c 128,-1,12
 615 -309 615 -309 641.5 -296 c 128,-1,13
 668 -283 668 -283 688 -268 c 1,14,-1
 738 -104 l 1,15,-1
 804 -104 l 1,16,-1
 773 -358 l 1,17,18
 703 -387 703 -387 621 -405.5 c 128,-1,19
 539 -424 539 -424 454 -424 c 0,20,21
 268 -424 268 -424 178 -350 c 128,-1,22
 88 -276 88 -276 88 -131 c 0,23,24
 88 -47 88 -47 109.5 24 c 128,-1,25
 131 95 131 95 178 151 c 128,-1,26
 225 207 225 207 298 247 c 128,-1,27
 371 287 371 287 475 309 c 2,28,-1
 534 322 l 1,29,-1
 593 582 l 1,0,-1
550 840 m 0,30,31
 550 865 550 865 559.5 887 c 128,-1,32
 569 909 569 909 585 925.5 c 128,-1,33
 601 942 601 942 623 951.5 c 128,-1,34
 645 961 645 961 670 961 c 256,35,36
 695 961 695 961 717.5 951.5 c 128,-1,37
 740 942 740 942 756 925.5 c 128,-1,38
 772 909 772 909 781.5 887 c 128,-1,39
 791 865 791 865 791 840 c 0,40,41
 791 814 791 814 781.5 792 c 128,-1,42
 772 770 772 770 756 754 c 128,-1,43
 740 738 740 738 717.5 728.5 c 128,-1,44
 695 719 695 719 670 719 c 256,45,46
 645 719 645 719 623 728.5 c 128,-1,47
 601 738 601 738 585 754 c 128,-1,48
 569 770 569 770 559.5 792 c 128,-1,49
 550 814 550 814 550 840 c 0,30,31
EndSplineSet
EndChar

StartChar: Aring
Encoding: 197 197 133
Width: 1251
GlyphClass: 2
Flags: W
LayerCount: 2
Fore
SplineSet
993 1475 m 0,0,1
 993 1418 993 1418 965.5 1372 c 128,-1,2
 938 1326 938 1326 893 1300 c 1,3,-1
 1133 80 l 1,4,-1
 1258 53 l 1,5,-1
 1247 0 l 1,6,-1
 772 0 l 1,7,-1
 783 53 l 1,8,-1
 926 80 l 1,9,-1
 862 467 l 1,10,-1
 334 467 l 1,11,-1
 129 80 l 1,12,-1
 264 53 l 1,13,-1
 254 0 l 1,14,-1
 -112 0 l 1,15,-1
 -102 53 l 1,16,-1
 10 80 l 1,17,-1
 670 1310 l 1,18,19
 632 1338 632 1338 609.5 1381 c 128,-1,20
 587 1424 587 1424 587 1475 c 0,21,22
 587 1517 587 1517 603 1554 c 128,-1,23
 619 1591 619 1591 646.5 1618.5 c 128,-1,24
 674 1646 674 1646 711 1662 c 128,-1,25
 748 1678 748 1678 790 1678 c 256,26,27
 832 1678 832 1678 869 1662 c 128,-1,28
 906 1646 906 1646 933.5 1618.5 c 128,-1,29
 961 1591 961 1591 977 1554 c 128,-1,30
 993 1517 993 1517 993 1475 c 0,0,1
723 1208 m 1,31,-1
 379 557 l 1,32,-1
 846 557 l 1,33,-1
 723 1208 l 1,31,-1
913 1475 m 256,34,35
 913 1500 913 1500 903.5 1522.5 c 128,-1,36
 894 1545 894 1545 877 1562 c 128,-1,37
 860 1579 860 1579 837.5 1588.5 c 128,-1,38
 815 1598 815 1598 790 1598 c 0,39,40
 764 1598 764 1598 742 1588.5 c 128,-1,41
 720 1579 720 1579 703 1562 c 128,-1,42
 686 1545 686 1545 676.5 1522.5 c 128,-1,43
 667 1500 667 1500 667 1475 c 256,44,45
 667 1450 667 1450 676 1428 c 128,-1,46
 685 1406 685 1406 701 1389 c 128,-1,47
 717 1372 717 1372 738.5 1362 c 128,-1,48
 760 1352 760 1352 785 1352 c 2,49,-1
 790 1352 l 2,50,51
 815 1352 815 1352 837.5 1362 c 128,-1,52
 860 1372 860 1372 877 1388.5 c 128,-1,53
 894 1405 894 1405 903.5 1427.5 c 128,-1,54
 913 1450 913 1450 913 1475 c 256,34,35
EndSplineSet
EndChar

StartChar: AE
Encoding: 198 198 134
Width: 1821
GlyphClass: 2
Flags: W
LayerCount: 2
Fore
SplineSet
731 80 m 1,0,-1
 799 467 l 1,1,-1
 387 467 l 1,2,-1
 112 80 l 1,3,-1
 265 53 l 1,4,-1
 256 0 l 1,5,-1
 -146 0 l 1,6,-1
 -137 53 l 1,7,-1
 -6 80 l 1,8,-1
 850 1270 l 1,9,-1
 690 1288 l 1,10,-1
 699 1341 l 1,11,-1
 1788 1341 l 1,12,-1
 1731 1020 l 1,13,-1
 1665 1020 l 1,14,-1
 1671 1237 l 1,15,16
 1640 1241 1640 1241 1595 1244 c 128,-1,17
 1550 1247 1550 1247 1503 1248.5 c 128,-1,18
 1456 1250 1456 1250 1414.5 1250.5 c 128,-1,19
 1373 1251 1373 1251 1350 1251 c 2,20,-1
 1131 1251 l 1,21,-1
 1038 727 l 1,22,-1
 1400 727 l 1,23,-1
 1460 887 l 1,24,-1
 1524 887 l 1,25,-1
 1451 475 l 1,26,-1
 1387 475 l 1,27,-1
 1385 637 l 1,28,-1
 1023 637 l 1,29,-1
 926 90 l 1,30,-1
 1190 90 l 2,31,32
 1252 90 1252 90 1307 91.5 c 128,-1,33
 1362 93 1362 93 1406.5 95 c 128,-1,34
 1451 97 1451 97 1483 100 c 128,-1,35
 1515 103 1515 103 1531 106 c 1,36,-1
 1632 354 l 1,37,-1
 1698 354 l 1,38,-1
 1616 0 l 1,39,-1
 546 0 l 1,40,-1
 556 53 l 1,41,-1
 731 80 l 1,0,-1
452 557 m 1,42,-1
 815 557 l 1,43,-1
 934 1231 l 1,44,-1
 452 557 l 1,42,-1
EndSplineSet
EndChar

StartChar: Eth
Encoding: 208 208 144
Width: 1479
GlyphClass: 2
Flags: W
LayerCount: 2
Fore
SplineSet
784 1341 m 2,0,1
 946 1341 946 1341 1070 1305 c 128,-1,2
 1194 1269 1194 1269 1278 1199 c 128,-1,3
 1362 1129 1362 1129 1405 1027 c 128,-1,4
 1448 925 1448 925 1448 792 c 0,5,6
 1448 612 1448 612 1391.5 465.5 c 128,-1,7
 1335 319 1335 319 1229.5 214.5 c 128,-1,8
 1124 110 1124 110 972 53 c 128,-1,9
 820 -4 820 -4 629 -4 c 0,10,11
 572 -4 572 -4 504 -3.5 c 128,-1,12
 436 -3 436 -3 370 -2 c 128,-1,13
 304 -1 304 -1 245.5 -0.5 c 128,-1,14
 187 0 187 0 148 0 c 2,15,-1
 -23 0 l 1,16,-1
 -14 53 l 1,17,-1
 162 80 l 1,18,-1
 258 629 l 1,19,-1
 78 629 l 1,20,-1
 93 711 l 1,21,-1
 273 711 l 1,22,-1
 370 1262 l 1,23,-1
 203 1288 l 1,24,-1
 212 1341 l 1,25,-1
 784 1341 l 2,0,1
1238 785 m 0,26,27
 1238 910 1238 910 1202 998.5 c 128,-1,28
 1166 1087 1166 1087 1099 1143 c 128,-1,29
 1032 1199 1032 1199 936.5 1225 c 128,-1,30
 841 1251 841 1251 723 1251 c 2,31,-1
 561 1251 l 1,32,-1
 466 711 l 1,33,-1
 841 711 l 1,34,-1
 826 629 l 1,35,-1
 451 629 l 1,36,-1
 357 94 l 1,37,38
 417 91 417 91 483 88.5 c 128,-1,39
 549 86 549 86 621 86 c 0,40,41
 774 86 774 86 889.5 135 c 128,-1,42
 1005 184 1005 184 1082.5 274.5 c 128,-1,43
 1160 365 1160 365 1199 494.5 c 128,-1,44
 1238 624 1238 624 1238 785 c 0,26,27
EndSplineSet
EndChar

StartChar: multiply
Encoding: 215 215 151
Width: 1382
GlyphClass: 2
Flags: W
LayerCount: 2
Fore
SplineSet
708 608 m 1,0,-1
 363 264 l 1,1,-1
 292 336 l 1,2,-1
 636 682 l 1,3,-1
 292 1024 l 1,4,-1
 366 1098 l 1,5,-1
 708 754 l 1,6,-1
 1054 1098 l 1,7,-1
 1125 1026 l 1,8,-1
 781 682 l 1,9,-1
 1125 336 l 1,10,-1
 1054 264 l 1,11,-1
 708 608 l 1,0,-1
EndSplineSet
EndChar

StartChar: Oslash
Encoding: 216 216 152
Width: 1479
GlyphClass: 2
Flags: W
LayerCount: 2
Fore
SplineSet
663 -20 m 0,0,1
 544 -20 544 -20 444.5 16 c 128,-1,2
 345 52 345 52 270 118 c 1,3,-1
 97 -55 l 1,4,-1
 -22 -55 l 1,5,-1
 213 180 l 1,6,7
 160 247 160 247 131.5 331 c 128,-1,8
 103 415 103 415 103 514 c 0,9,10
 103 627 103 627 126 733 c 128,-1,11
 149 839 149 839 194 932.5 c 128,-1,12
 239 1026 239 1026 304.5 1104 c 128,-1,13
 370 1182 370 1182 455.5 1238 c 128,-1,14
 541 1294 541 1294 645 1325 c 128,-1,15
 749 1356 749 1356 871 1356 c 0,16,17
 988 1356 988 1356 1086 1321 c 128,-1,18
 1184 1286 1184 1286 1258 1222 c 1,19,-1
 1427 1391 l 1,20,-1
 1542 1391 l 1,21,-1
 1314 1163 l 1,22,23
 1370 1095 1370 1095 1400.5 1009.5 c 128,-1,24
 1431 924 1431 924 1431 822 c 0,25,26
 1431 725 1431 725 1411.5 624.5 c 128,-1,27
 1392 524 1392 524 1351.5 430.5 c 128,-1,28
 1311 337 1311 337 1249 255 c 128,-1,29
 1187 173 1187 173 1101.5 112 c 128,-1,30
 1016 51 1016 51 907 15.5 c 128,-1,31
 798 -20 798 -20 663 -20 c 0,0,1
1231 832 m 0,32,33
 1231 949 1231 949 1194 1043 c 1,34,-1
 375 223 l 1,35,36
 423 148 423 148 498 106.5 c 128,-1,37
 573 65 573 65 670 65 c 0,38,39
 762 65 762 65 839.5 100.5 c 128,-1,40
 917 136 917 136 979.5 195 c 128,-1,41
 1042 254 1042 254 1089 332 c 128,-1,42
 1136 410 1136 410 1167.5 495.5 c 128,-1,43
 1199 581 1199 581 1215 667.5 c 128,-1,44
 1231 754 1231 754 1231 832 c 0,32,33
303 503 m 0,45,46
 303 389 303 389 336 302 c 1,47,-1
 1154 1119 l 1,48,49
 1105 1194 1105 1194 1029.5 1235 c 128,-1,50
 954 1276 954 1276 858 1276 c 0,51,52
 766 1276 766 1276 689 1240 c 128,-1,53
 612 1204 612 1204 550.5 1144 c 128,-1,54
 489 1084 489 1084 442.5 1005.5 c 128,-1,55
 396 927 396 927 365 841 c 128,-1,56
 334 755 334 755 318.5 667.5 c 128,-1,57
 303 580 303 580 303 503 c 0,45,46
EndSplineSet
EndChar

StartChar: Thorn
Encoding: 222 222 158
Width: 1251
GlyphClass: 2
Flags: W
LayerCount: 2
Fore
SplineSet
566 358 m 2,0,1
 761 358 761 358 857.5 447.5 c 128,-1,2
 954 537 954 537 954 715 c 0,3,4
 954 858 954 858 881.5 925.5 c 128,-1,5
 809 993 809 993 663 993 c 2,6,-1
 515 993 l 1,7,-1
 403 358 l 1,8,-1
 566 358 l 2,0,1
703 1083 m 2,9,10
 822 1083 822 1083 907 1057 c 128,-1,11
 992 1031 992 1031 1047 984.5 c 128,-1,12
 1102 938 1102 938 1127.5 872.5 c 128,-1,13
 1153 807 1153 807 1153 728 c 0,14,15
 1153 628 1153 628 1121 543.5 c 128,-1,16
 1089 459 1089 459 1020.5 398 c 128,-1,17
 952 337 952 337 845 302.5 c 128,-1,18
 738 268 738 268 588 268 c 2,19,-1
 387 268 l 1,20,-1
 354 80 l 1,21,-1
 573 53 l 1,22,-1
 563 0 l 1,23,-1
 -11 0 l 1,24,-1
 -1 53 l 1,25,-1
 161 80 l 1,26,-1
 370 1262 l 1,27,-1
 215 1288 l 1,28,-1
 225 1341 l 1,29,-1
 749 1341 l 1,30,-1
 739 1288 l 1,31,-1
 563 1262 l 1,32,-1
 531 1083 l 1,33,-1
 703 1083 l 2,9,10
EndSplineSet
EndChar

StartChar: germandbls
Encoding: 223 223 159
Width: 1024
GlyphClass: 2
Flags: W
LayerCount: 2
Fore
SplineSet
975 997 m 1,0,1
 926 992 926 992 873 984 c 128,-1,2
 820 976 820 976 776 954 c 128,-1,3
 732 932 732 932 703.5 890 c 128,-1,4
 675 848 675 848 675 775 c 0,5,6
 675 727 675 727 693.5 693 c 128,-1,7
 712 659 712 659 740 630.5 c 128,-1,8
 768 602 768 602 801 575 c 128,-1,9
 834 548 834 548 862 515 c 128,-1,10
 890 482 890 482 908.5 438.5 c 128,-1,11
 927 395 927 395 927 333 c 0,12,13
 927 254 927 254 904.5 189 c 128,-1,14
 882 124 882 124 837.5 77.5 c 128,-1,15
 793 31 793 31 726 5.5 c 128,-1,16
 659 -20 659 -20 570 -20 c 0,17,18
 538 -20 538 -20 505 -16.5 c 128,-1,19
 472 -13 472 -13 441.5 -7 c 128,-1,20
 411 -1 411 -1 386 7.5 c 128,-1,21
 361 16 361 16 345 27 c 1,22,-1
 379 219 l 1,23,-1
 424 219 l 1,24,-1
 434 125 l 1,25,26
 452 97 452 97 491.5 78 c 128,-1,27
 531 59 531 59 582 59 c 0,28,29
 621 59 621 59 654.5 72.5 c 128,-1,30
 688 86 688 86 712.5 113 c 128,-1,31
 737 140 737 140 751.5 181 c 128,-1,32
 766 222 766 222 766 277 c 0,33,34
 766 328 766 328 747.5 363.5 c 128,-1,35
 729 399 729 399 701.5 428 c 128,-1,36
 674 457 674 457 641.5 483 c 128,-1,37
 609 509 609 509 581.5 540.5 c 128,-1,38
 554 572 554 572 535.5 612.5 c 128,-1,39
 517 653 517 653 517 712 c 0,40,41
 517 793 517 793 541.5 852 c 128,-1,42
 566 911 566 911 608 950.5 c 128,-1,43
 650 990 650 990 705 1013 c 128,-1,44
 760 1036 760 1036 820 1047 c 1,45,46
 835 1132 835 1132 835 1192 c 0,47,48
 835 1286 835 1286 797 1324 c 128,-1,49
 759 1362 759 1362 683 1362 c 0,50,51
 640 1362 640 1362 602 1349 c 128,-1,52
 564 1336 564 1336 533 1306 c 128,-1,53
 502 1276 502 1276 479 1228 c 128,-1,54
 456 1180 456 1180 444 1110 c 2,55,-1
 249 0 l 1,56,-1
 -57 0 l 1,57,-1
 -50 45 l 1,58,-1
 95 70 l 1,59,-1
 270 1061 l 2,60,61
 289 1167 289 1167 329 1239.5 c 128,-1,62
 369 1312 369 1312 425 1357 c 128,-1,63
 481 1402 481 1402 550 1422 c 128,-1,64
 619 1442 619 1442 697 1442 c 0,65,66
 768 1442 768 1442 823 1426.5 c 128,-1,67
 878 1411 878 1411 915.5 1377.5 c 128,-1,68
 953 1344 953 1344 972 1289.5 c 128,-1,69
 991 1235 991 1235 991 1157 c 0,70,71
 991 1122 991 1122 987 1082 c 128,-1,72
 983 1042 983 1042 975 997 c 1,0,1
EndSplineSet
EndChar

StartChar: ae
Encoding: 230 230 166
Width: 1366
GlyphClass: 2
Flags: W
LayerCount: 2
Fore
SplineSet
1320 771 m 0,0,1
 1320 706 1320 706 1284.5 646 c 128,-1,2
 1249 586 1249 586 1180 538 c 128,-1,3
 1111 490 1111 490 1010 456.5 c 128,-1,4
 909 423 909 423 779 413 c 1,5,6
 775 386 775 386 773 356 c 128,-1,7
 771 326 771 326 771 296 c 0,8,9
 771 256 771 256 779 218 c 128,-1,10
 787 180 787 180 808 150 c 128,-1,11
 829 120 829 120 865 102 c 128,-1,12
 901 84 901 84 956 84 c 0,13,14
 994 84 994 84 1029.5 92.5 c 128,-1,15
 1065 101 1065 101 1097 114.5 c 128,-1,16
 1129 128 1129 128 1159 146 c 128,-1,17
 1189 164 1189 164 1217 184 c 1,18,-1
 1246 142 l 1,19,20
 1215 115 1215 115 1176 86.5 c 128,-1,21
 1137 58 1137 58 1092 34 c 128,-1,22
 1047 10 1047 10 996 -5 c 128,-1,23
 945 -20 945 -20 890 -20 c 0,24,25
 840 -20 840 -20 799.5 -11 c 128,-1,26
 759 -2 759 -2 726.5 18 c 128,-1,27
 694 38 694 38 668 70 c 128,-1,28
 642 102 642 102 621 147 c 1,29,30
 584 111 584 111 544 80.5 c 128,-1,31
 504 50 504 50 463.5 27.5 c 128,-1,32
 423 5 423 5 382.5 -8 c 128,-1,33
 342 -21 342 -21 304 -21 c 0,34,35
 254 -21 254 -21 210 2 c 128,-1,36
 166 25 166 25 133.5 68.5 c 128,-1,37
 101 112 101 112 82 175 c 128,-1,38
 63 238 63 238 63 317 c 0,39,40
 63 446 63 446 104.5 563 c 128,-1,41
 146 680 146 680 219.5 769.5 c 128,-1,42
 293 859 293 859 395 911.5 c 128,-1,43
 497 964 497 964 618 964 c 0,44,45
 680 964 680 964 740 942.5 c 128,-1,46
 800 921 800 921 841 891 c 1,47,48
 885 926 885 926 943 945.5 c 128,-1,49
 1001 965 1001 965 1077 965 c 0,50,51
 1192 965 1192 965 1256 912.5 c 128,-1,52
 1320 860 1320 860 1320 771 c 0,0,1
391 104 m 0,53,54
 418 104 418 104 446.5 114 c 128,-1,55
 475 124 475 124 502.5 140 c 128,-1,56
 530 156 530 156 556 176 c 128,-1,57
 582 196 582 196 603 216 c 1,58,59
 601 230 601 230 598 256 c 128,-1,60
 595 282 595 282 595 309 c 0,61,62
 595 449 595 449 635.5 577 c 128,-1,63
 676 705 676 705 767 819 c 1,64,65
 732 845 732 845 685 865 c 128,-1,66
 638 885 638 885 591 885 c 0,67,68
 542 885 542 885 497 862 c 128,-1,69
 452 839 452 839 413.5 799 c 128,-1,70
 375 759 375 759 343 705.5 c 128,-1,71
 311 652 311 652 288.5 591 c 128,-1,72
 266 530 266 530 253.5 464.5 c 128,-1,73
 241 399 241 399 241 335 c 0,74,75
 241 276 241 276 252.5 232.5 c 128,-1,76
 264 189 264 189 284.5 160.5 c 128,-1,77
 305 132 305 132 332 118 c 128,-1,78
 359 104 359 104 391 104 c 0,53,54
1145 774 m 0,79,80
 1145 827 1145 827 1120.5 857.5 c 128,-1,81
 1096 888 1096 888 1048 888 c 0,82,83
 991 888 991 888 948.5 851 c 128,-1,84
 906 814 906 814 874.5 754.5 c 128,-1,85
 843 695 843 695 822 621.5 c 128,-1,86
 801 548 801 548 789 476 c 1,87,88
 882 485 882 485 949 511.5 c 128,-1,89
 1016 538 1016 538 1059.5 578 c 128,-1,90
 1103 618 1103 618 1124 668 c 128,-1,91
 1145 718 1145 718 1145 774 c 0,79,80
EndSplineSet
EndChar

StartChar: eth
Encoding: 240 240 176
Width: 1024
GlyphClass: 2
Flags: W
LayerCount: 2
Fore
SplineSet
959 658 m 0,0,1
 959 515 959 515 929 390.5 c 128,-1,2
 899 266 899 266 834.5 174 c 128,-1,3
 770 82 770 82 668.5 28.5 c 128,-1,4
 567 -25 567 -25 423 -25 c 0,5,6
 342 -25 342 -25 274.5 0.5 c 128,-1,7
 207 26 207 26 158.5 74.5 c 128,-1,8
 110 123 110 123 83.5 192 c 128,-1,9
 57 261 57 261 57 348 c 0,10,11
 57 459 57 459 94.5 560 c 128,-1,12
 132 661 132 661 201 738.5 c 128,-1,13
 270 816 270 816 368.5 861.5 c 128,-1,14
 467 907 467 907 590 907 c 0,15,16
 647 907 647 907 693 894.5 c 128,-1,17
 739 882 739 882 781 859 c 1,18,19
 776 894 776 894 767 934.5 c 128,-1,20
 758 975 758 975 742 1017 c 128,-1,21
 726 1059 726 1059 703 1100.5 c 128,-1,22
 680 1142 680 1142 648 1178 c 1,23,-1
 322 1006 l 1,24,-1
 339 1102 l 1,25,-1
 590 1233 l 1,26,27
 549 1267 549 1267 500.5 1295 c 128,-1,28
 452 1323 452 1323 391 1343 c 1,29,-1
 405 1421 l 1,30,31
 487 1400 487 1400 560 1367.5 c 128,-1,32
 633 1335 633 1335 696 1288 c 1,33,-1
 990 1444 l 1,34,-1
 973 1350 l 1,35,-1
 759 1235 l 1,36,37
 810 1190 810 1190 847.5 1126 c 128,-1,38
 885 1062 885 1062 909.5 986.5 c 128,-1,39
 934 911 934 911 946.5 827 c 128,-1,40
 959 743 959 743 959 658 c 0,0,1
567 825 m 0,41,42
 501 825 501 825 441 788 c 128,-1,43
 381 751 381 751 336 685 c 128,-1,44
 291 619 291 619 264 528.5 c 128,-1,45
 237 438 237 438 237 331 c 0,46,47
 237 200 237 200 290.5 129.5 c 128,-1,48
 344 59 344 59 438 59 c 0,49,50
 504 59 504 59 564 96 c 128,-1,51
 624 133 624 133 670 198.5 c 128,-1,52
 716 264 716 264 743.5 353.5 c 128,-1,53
 771 443 771 443 771 548 c 0,54,55
 771 684 771 684 718.5 754.5 c 128,-1,56
 666 825 666 825 567 825 c 0,41,42
EndSplineSet
EndChar

StartChar: divide
Encoding: 247 247 183
Width: 1124
GlyphClass: 2
Flags: W
LayerCount: 2
Fore
SplineSet
688 1063 m 256,0,1
 688 1023 688 1023 660 995 c 128,-1,2
 632 967 632 967 592 967 c 0,3,4
 551 967 551 967 523 995 c 128,-1,5
 495 1023 495 1023 495 1063 c 256,6,7
 495 1103 495 1103 523 1131 c 128,-1,8
 551 1159 551 1159 592 1159 c 0,9,10
 632 1159 632 1159 660 1131 c 128,-1,11
 688 1103 688 1103 688 1063 c 256,0,1
688 297 m 256,12,13
 688 257 688 257 660 229 c 128,-1,14
 632 201 632 201 592 201 c 0,15,16
 551 201 551 201 523 229 c 128,-1,17
 495 257 495 257 495 297 c 256,18,19
 495 337 495 337 523 365 c 128,-1,20
 551 393 551 393 592 393 c 0,21,22
 632 393 632 393 660 365 c 128,-1,23
 688 337 688 337 688 297 c 256,12,13
1069 731 m 1,24,-1
 1069 629 l 1,25,-1
 116 629 l 1,26,-1
 116 731 l 1,27,-1
 1069 731 l 1,24,-1
EndSplineSet
EndChar

StartChar: oslash
Encoding: 248 248 184
Width: 1024
GlyphClass: 2
Flags: W
LayerCount: 2
Fore
SplineSet
427 -20 m 0,0,1
 291 -20 291 -20 199 52 c 1,2,-1
 80 -84 l 1,3,-1
 -27 -84 l 1,4,-1
 142 108 l 1,5,6
 103 159 103 159 82 225.5 c 128,-1,7
 61 292 61 292 61 374 c 0,8,9
 61 491 61 491 98.5 598 c 128,-1,10
 136 705 136 705 205.5 786.5 c 128,-1,11
 275 868 275 868 374 916.5 c 128,-1,12
 473 965 473 965 597 965 c 0,13,14
 735 965 735 965 828 890 c 1,15,-1
 945 1022 l 1,16,-1
 1049 1022 l 1,17,-1
 884 833 l 1,18,19
 922 783 922 783 942.5 717.5 c 128,-1,20
 963 652 963 652 963 571 c 0,21,22
 963 454 963 454 925.5 347 c 128,-1,23
 888 240 888 240 818.5 158.5 c 128,-1,24
 749 77 749 77 650 28.5 c 128,-1,25
 551 -20 551 -20 427 -20 c 0,0,1
579 890 m 0,26,27
 510 890 510 890 448.5 850 c 128,-1,28
 387 810 387 810 341 738.5 c 128,-1,29
 295 667 295 667 268 568.5 c 128,-1,30
 241 470 241 470 241 354 c 0,31,32
 241 286 241 286 253 234 c 1,33,-1
 742 792 l 1,34,35
 690 890 690 890 579 890 c 0,26,27
783 590 m 0,36,37
 783 653 783 653 772 706 c 1,38,-1
 285 150 l 1,39,40
 337 59 337 59 442 59 c 0,41,42
 511 59 511 59 572.5 99 c 128,-1,43
 634 139 634 139 681 210.5 c 128,-1,44
 728 282 728 282 755.5 379 c 128,-1,45
 783 476 783 476 783 590 c 0,36,37
EndSplineSet
EndChar

StartChar: thorn
Encoding: 254 254 190
Width: 1024
GlyphClass: 2
Flags: W
LayerCount: 2
Fore
SplineSet
383 940 m 1,0,-1
 355 788 l 1,1,2
 444 874 444 874 524.5 919.5 c 128,-1,3
 605 965 605 965 680 965 c 0,4,5
 740 965 740 965 791.5 943.5 c 128,-1,6
 843 922 843 922 881 880 c 128,-1,7
 919 838 919 838 940.5 775.5 c 128,-1,8
 962 713 962 713 962 631 c 0,9,10
 962 545 962 545 942.5 463.5 c 128,-1,11
 923 382 923 382 887 309.5 c 128,-1,12
 851 237 851 237 799 176.5 c 128,-1,13
 747 116 747 116 683 72.5 c 128,-1,14
 619 29 619 29 543 4.5 c 128,-1,15
 467 -20 467 -20 382 -20 c 0,16,17
 362 -20 362 -20 338 -18.5 c 128,-1,18
 314 -17 314 -17 291 -14 c 128,-1,19
 268 -11 268 -11 247 -7 c 128,-1,20
 226 -3 226 -3 211 2 c 1,21,22
 210 -10 210 -10 208 -25.5 c 128,-1,23
 206 -41 206 -41 204 -57.5 c 128,-1,24
 202 -74 202 -74 199.5 -88 c 128,-1,25
 197 -102 197 -102 196 -111 c 2,26,-1
 150 -365 l 1,27,-1
 310 -389 l 1,28,-1
 302 -436 l 1,29,-1
 -144 -436 l 1,30,-1
 -136 -389 l 1,31,-1
 -13 -365 l 1,32,-1
 290 1352 l 1,33,-1
 157 1376 l 1,34,-1
 165 1421 l 1,35,-1
 468 1421 l 1,36,-1
 383 940 l 1,0,-1
233 107 m 1,37,38
 269 78 269 78 314.5 68.5 c 128,-1,39
 360 59 360 59 399 59 c 0,40,41
 461 59 461 59 513.5 82.5 c 128,-1,42
 566 106 566 106 608.5 147 c 128,-1,43
 651 188 651 188 683.5 242 c 128,-1,44
 716 296 716 296 738 356.5 c 128,-1,45
 760 417 760 417 771.5 481 c 128,-1,46
 783 545 783 545 783 605 c 0,47,48
 783 668 783 668 768.5 712.5 c 128,-1,49
 754 757 754 757 729.5 785.5 c 128,-1,50
 705 814 705 814 673 827 c 128,-1,51
 641 840 641 840 607 840 c 0,52,53
 580 840 580 840 547 830 c 128,-1,54
 514 820 514 820 479 802 c 128,-1,55
 444 784 444 784 409 758.5 c 128,-1,56
 374 733 374 733 342 701 c 1,57,-1
 233 107 l 1,37,38
EndSplineSet
EndChar

StartChar: dcroat
Encoding: 273 273 209
Width: 1024
GlyphClass: 2
Flags: W
LayerCount: 2
Fore
SplineSet
783 941 m 1,0,1
 784 953 784 953 787 975.5 c 128,-1,2
 790 998 790 998 794 1022.5 c 128,-1,3
 798 1047 798 1047 801.5 1070 c 128,-1,4
 805 1093 805 1093 808 1108 c 1,5,-1
 808 1112 l 1,6,-1
 512 1112 l 1,7,-1
 527 1196 l 1,8,-1
 823 1196 l 1,9,-1
 851 1352 l 1,10,-1
 697 1376 l 1,11,-1
 705 1421 l 1,12,-1
 1029 1421 l 1,13,-1
 989 1196 l 1,14,-1
 1105 1196 l 1,15,-1
 1090 1112 l 1,16,-1
 974 1112 l 1,17,-1
 789 70 l 1,18,-1
 902 45 l 1,19,-1
 894 0 l 1,20,-1
 609 0 l 1,21,-1
 638 156 l 1,22,23
 554 68 554 68 477 23.5 c 128,-1,24
 400 -21 400 -21 329 -21 c 0,25,26
 269 -21 269 -21 220 2 c 128,-1,27
 171 25 171 25 136 68.5 c 128,-1,28
 101 112 101 112 81.5 175 c 128,-1,29
 62 238 62 238 62 317 c 0,30,31
 62 403 62 403 81 484.5 c 128,-1,32
 100 566 100 566 135 638 c 128,-1,33
 170 710 170 710 219.5 769.5 c 128,-1,34
 269 829 269 829 331 872.5 c 128,-1,35
 393 916 393 916 465.5 940 c 128,-1,36
 538 964 538 964 618 964 c 0,37,38
 668 964 668 964 708.5 958 c 128,-1,39
 749 952 749 952 783 941 c 1,0,1
760 837 m 1,40,41
 725 860 725 860 688 873 c 128,-1,42
 651 886 651 886 598 886 c 0,43,44
 544 886 544 886 497 863 c 128,-1,45
 450 840 450 840 410 800.5 c 128,-1,46
 370 761 370 761 338.5 708 c 128,-1,47
 307 655 307 655 285 594 c 128,-1,48
 263 533 263 533 251.5 468 c 128,-1,49
 240 403 240 403 240 339 c 0,50,51
 240 276 240 276 254 231.5 c 128,-1,52
 268 187 268 187 290.5 158.5 c 128,-1,53
 313 130 313 130 342.5 117 c 128,-1,54
 372 104 372 104 403 104 c 0,55,56
 459 104 459 104 524.5 140.5 c 128,-1,57
 590 177 590 177 651 243 c 1,58,-1
 760 837 l 1,40,41
EndSplineSet
EndChar

StartChar: Hbar
Encoding: 294 294 230
Width: 1479
GlyphClass: 2
Flags: W
LayerCount: 2
Fore
SplineSet
-22 0 m 1,0,-1
 -14 53 l 1,1,-1
 162 80 l 1,2,-1
 315 957 l 1,3,-1
 143 957 l 1,4,-1
 157 1039 l 1,5,-1
 330 1039 l 1,6,-1
 369 1262 l 1,7,-1
 203 1288 l 1,8,-1
 211 1341 l 1,9,-1
 748 1341 l 1,10,-1
 740 1288 l 1,11,-1
 561 1262 l 1,12,-1
 522 1039 l 1,13,-1
 1153 1039 l 1,14,-1
 1192 1262 l 1,15,-1
 1026 1288 l 1,16,-1
 1034 1341 l 1,17,-1
 1571 1341 l 1,18,-1
 1563 1288 l 1,19,-1
 1385 1262 l 1,20,-1
 1346 1039 l 1,21,-1
 1517 1039 l 1,22,-1
 1503 957 l 1,23,-1
 1331 957 l 1,24,-1
 1178 80 l 1,25,-1
 1344 53 l 1,26,-1
 1335 0 l 1,27,-1
 799 0 l 1,28,-1
 807 53 l 1,29,-1
 985 80 l 1,30,-1
 1084 645 l 1,31,-1
 453 645 l 1,32,-1
 354 80 l 1,33,-1
 520 53 l 1,34,-1
 512 0 l 1,35,-1
 -22 0 l 1,0,-1
1100 735 m 1,36,-1
 1139 957 l 1,37,-1
 508 957 l 1,38,-1
 469 735 l 1,39,-1
 1100 735 l 1,36,-1
EndSplineSet
EndChar

StartChar: hbar
Encoding: 295 295 231
Width: 1024
GlyphClass: 2
Flags: W
LayerCount: 2
Fore
SplineSet
269 1114 m 1,0,-1
 146 1114 l 1,1,-1
 160 1196 l 1,2,-1
 284 1196 l 1,3,-1
 311 1352 l 1,4,-1
 193 1376 l 1,5,-1
 201 1421 l 1,6,-1
 489 1421 l 1,7,-1
 448 1196 l 1,8,-1
 665 1196 l 1,9,-1
 650 1114 l 1,10,-1
 434 1114 l 1,11,-1
 401 928 l 2,12,13
 397 907 397 907 392 879 c 128,-1,14
 387 851 387 851 382.5 825 c 128,-1,15
 378 799 378 799 373.5 777.5 c 128,-1,16
 369 756 369 756 367 749 c 1,17,18
 401 794 401 794 441 833.5 c 128,-1,19
 481 873 481 873 526 902 c 128,-1,20
 571 931 571 931 619 948 c 128,-1,21
 667 965 667 965 718 965 c 0,22,23
 764 965 764 965 801.5 953 c 128,-1,24
 839 941 839 941 865.5 915 c 128,-1,25
 892 889 892 889 906.5 849 c 128,-1,26
 921 809 921 809 921 754 c 0,27,28
 921 742 921 742 918.5 721.5 c 128,-1,29
 916 701 916 701 912 677 c 128,-1,30
 908 653 908 653 904 627.5 c 128,-1,31
 900 602 900 602 896 580 c 2,32,-1
 808 69 l 1,33,-1
 939 45 l 1,34,-1
 931 0 l 1,35,-1
 630 0 l 1,36,-1
 732 582 l 2,37,38
 736 604 736 604 740 628 c 128,-1,39
 744 652 744 652 747.5 675 c 128,-1,40
 751 698 751 698 753 717 c 128,-1,41
 755 736 755 736 755 748 c 0,42,43
 755 793 755 793 731 821 c 128,-1,44
 707 849 707 849 655 849 c 0,45,46
 613 849 613 849 569 830 c 128,-1,47
 525 811 525 811 484.5 780.5 c 128,-1,48
 444 750 444 750 409 711 c 128,-1,49
 374 672 374 672 350 633 c 1,50,-1
 239 0 l 1,51,-1
 74 0 l 1,52,-1
 269 1114 l 1,0,-1
EndSplineSet
EndChar

StartChar: dotlessi
Encoding: 305 305 241
Width: 569
GlyphClass: 2
Flags: W
LayerCount: 2
Fore
SplineSet
287 70 m 1,0,-1
 444 45 l 1,1,-1
 436 0 l 1,2,-1
 109 0 l 1,3,-1
 262 870 l 1,4,-1
 133 895 l 1,5,-1
 141 940 l 1,6,-1
 440 940 l 1,7,-1
 287 70 l 1,0,-1
EndSplineSet
EndChar

StartChar: jcircumflex
Encoding: 309 309 245
Width: 569
GlyphClass: 2
Flags: W
LayerCount: 2
Fore
SplineSet
79 1118 m 1,0,-1
 84 1151 l 1,1,-1
 319 1424 l 1,2,-1
 532 1424 l 1,3,-1
 671 1151 l 1,4,-1
 666 1118 l 1,5,-1
 619 1118 l 1,6,-1
 413 1301 l 1,7,-1
 143 1118 l 1,8,-1
 79 1118 l 1,0,-1
285 -39 m 2,9,10
 266 -145 266 -145 234.5 -220.5 c 128,-1,11
 203 -296 203 -296 159.5 -344 c 128,-1,12
 116 -392 116 -392 61 -414 c 128,-1,13
 6 -436 6 -436 -59 -436 c 0,14,15
 -104 -436 -104 -436 -147 -426.5 c 128,-1,16
 -190 -417 -190 -417 -219 -406 c 1,17,-1
 -186 -219 l 1,18,-1
 -139 -219 l 1,19,-1
 -124 -329 l 1,20,21
 -113 -340 -113 -340 -96 -348 c 128,-1,22
 -79 -356 -79 -356 -53 -356 c 0,23,24
 -25 -356 -25 -356 -1 -344 c 128,-1,25
 23 -332 23 -332 43 -302 c 128,-1,26
 63 -272 63 -272 80 -220.5 c 128,-1,27
 97 -169 97 -169 111 -90 c 2,28,-1
 281 870 l 1,29,-1
 144 895 l 1,30,-1
 152 940 l 1,31,-1
 459 940 l 1,32,-1
 285 -39 l 2,9,10
EndSplineSet
EndChar

StartChar: kgreenlandic
Encoding: 312 312 248
Width: 909
GlyphClass: 2
Flags: W
LayerCount: 2
Fore
SplineSet
214 871 m 1,0,-1
 79 895 l 1,1,-1
 87 940 l 1,2,-1
 392 940 l 1,3,-1
 305 453 l 1,4,-1
 733 868 l 1,5,-1
 639 895 l 1,6,-1
 647 940 l 1,7,-1
 939 940 l 1,8,-1
 931 895 l 1,9,-1
 850 872 l 1,10,-1
 556 591 l 1,11,-1
 799 68 l 1,12,-1
 897 45 l 1,13,-1
 889 0 l 1,14,-1
 653 0 l 1,15,-1
 435 479 l 1,16,-1
 287 340 l 1,17,-1
 225 0 l 1,18,-1
 59 0 l 1,19,-1
 214 871 l 1,0,-1
EndSplineSet
EndChar

StartChar: Lslash
Encoding: 321 321 257
Width: 1139
GlyphClass: 2
Flags: W
LayerCount: 2
Fore
SplineSet
774 1288 m 1,0,-1
 563 1262 l 1,1,-1
 470 736 l 1,2,-1
 810 915 l 1,3,-1
 793 821 l 1,4,-1
 453 642 l 1,5,-1
 355 86 l 1,6,-1
 569 86 l 2,7,8
 694 86 694 86 764 93 c 128,-1,9
 834 100 834 100 866 106 c 1,10,-1
 977 385 l 1,11,-1
 1042 385 l 1,12,-1
 956 0 l 1,13,-1
 -24 0 l 1,14,-1
 -14 53 l 1,15,-1
 161 80 l 1,16,-1
 240 530 l 1,17,-1
 36 422 l 1,18,-1
 52 518 l 1,19,-1
 257 625 l 1,20,-1
 370 1262 l 1,21,-1
 202 1288 l 1,22,-1
 212 1341 l 1,23,-1
 784 1341 l 1,24,-1
 774 1288 l 1,0,-1
EndSplineSet
EndChar

StartChar: lslash
Encoding: 322 322 258
Width: 569
GlyphClass: 2
Flags: W
LayerCount: 2
Fore
SplineSet
400 716 m 1,0,-1
 612 829 l 1,1,-1
 596 735 l 1,2,-1
 384 622 l 1,3,-1
 287 70 l 1,4,-1
 444 45 l 1,5,-1
 436 0 l 1,6,-1
 109 0 l 1,7,-1
 201 526 l 1,8,-1
 3 422 l 1,9,-1
 19 518 l 1,10,-1
 217 621 l 1,11,-1
 346 1352 l 1,12,-1
 217 1376 l 1,13,-1
 225 1421 l 1,14,-1
 524 1421 l 1,15,-1
 400 716 l 1,0,-1
EndSplineSet
EndChar

StartChar: Eng
Encoding: 330 330 266
Width: 1426
GlyphClass: 2
Flags: W
LayerCount: 2
Fore
SplineSet
1240 432 m 2,0,1
 1218 307 1218 307 1178.5 221 c 128,-1,2
 1139 135 1139 135 1085.5 81.5 c 128,-1,3
 1032 28 1032 28 967.5 4 c 128,-1,4
 903 -20 903 -20 830 -20 c 0,5,6
 761 -20 761 -20 698 -6.5 c 128,-1,7
 635 7 635 7 594 26 c 1,8,-1
 636 258 l 1,9,-1
 701 258 l 1,10,-1
 706 119 l 1,11,12
 713 107 713 107 728 97.5 c 128,-1,13
 743 88 743 88 762 81 c 128,-1,14
 781 74 781 74 802 70 c 128,-1,15
 823 66 823 66 844 66 c 0,16,17
 984 66 984 66 1017 256 c 2,18,-1
 1129 879 l 2,19,20
 1132 898 1132 898 1136 920.5 c 128,-1,21
 1140 943 1140 943 1143 966.5 c 128,-1,22
 1146 990 1146 990 1148 1011.5 c 128,-1,23
 1150 1033 1150 1033 1150 1050 c 0,24,25
 1150 1101 1150 1101 1134 1136 c 128,-1,26
 1118 1171 1118 1171 1090.5 1192 c 128,-1,27
 1063 1213 1063 1213 1026 1222 c 128,-1,28
 989 1231 989 1231 948 1231 c 0,29,30
 900 1231 900 1231 847.5 1221.5 c 128,-1,31
 795 1212 795 1212 741.5 1196 c 128,-1,32
 688 1180 688 1180 635.5 1158.5 c 128,-1,33
 583 1137 583 1137 537 1114 c 1,34,-1
 355 80 l 1,35,-1
 492 53 l 1,36,-1
 483 0 l 1,37,-1
 -23 0 l 1,38,-1
 -14 53 l 1,39,-1
 162 80 l 1,40,-1
 371 1262 l 1,41,-1
 203 1288 l 1,42,-1
 213 1341 l 1,43,-1
 576 1341 l 1,44,-1
 553 1201 l 1,45,46
 596 1224 596 1224 650.5 1250 c 128,-1,47
 705 1276 705 1276 766 1298.5 c 128,-1,48
 827 1321 827 1321 892 1336 c 128,-1,49
 957 1351 957 1351 1023 1351 c 0,50,51
 1184 1351 1184 1351 1261.5 1279.5 c 128,-1,52
 1339 1208 1339 1208 1339 1071 c 0,53,54
 1339 1048 1339 1048 1337 1021.5 c 128,-1,55
 1335 995 1335 995 1332 969.5 c 128,-1,56
 1329 944 1329 944 1325.5 920.5 c 128,-1,57
 1322 897 1322 897 1319 879 c 2,58,-1
 1240 432 l 2,0,1
EndSplineSet
EndChar

StartChar: eng
Encoding: 331 331 267
Width: 987
GlyphClass: 2
Flags: W
LayerCount: 2
Fore
SplineSet
921 754 m 0,0,1
 921 742 921 742 918.5 721.5 c 128,-1,2
 916 701 916 701 912 677 c 128,-1,3
 908 653 908 653 904 627.5 c 128,-1,4
 900 602 900 602 896 580 c 2,5,-1
 787 -39 l 2,6,7
 769 -145 769 -145 737 -220.5 c 128,-1,8
 705 -296 705 -296 661.5 -344 c 128,-1,9
 618 -392 618 -392 563 -414 c 128,-1,10
 508 -436 508 -436 443 -436 c 0,11,12
 398 -436 398 -436 355 -426.5 c 128,-1,13
 312 -417 312 -417 283 -406 c 1,14,-1
 316 -219 l 1,15,-1
 363 -219 l 1,16,-1
 378 -329 l 1,17,18
 389 -340 389 -340 406 -348 c 128,-1,19
 423 -356 423 -356 449 -356 c 0,20,21
 477 -356 477 -356 501 -344 c 128,-1,22
 525 -332 525 -332 545 -302 c 128,-1,23
 565 -272 565 -272 582 -220.5 c 128,-1,24
 599 -169 599 -169 613 -90 c 2,25,-1
 732 582 l 2,26,27
 736 606 736 606 740 631 c 128,-1,28
 744 656 744 656 747.5 678 c 128,-1,29
 751 700 751 700 753 718 c 128,-1,30
 755 736 755 736 755 748 c 0,31,32
 755 793 755 793 731 821 c 128,-1,33
 707 849 707 849 655 849 c 0,34,35
 613 849 613 849 569 829.5 c 128,-1,36
 525 810 525 810 484 779 c 128,-1,37
 443 748 443 748 408 708.5 c 128,-1,38
 373 669 373 669 349 630 c 1,39,-1
 239 0 l 1,40,-1
 73 0 l 1,41,-1
 226 871 l 1,42,-1
 108 896 l 1,43,-1
 116 941 l 1,44,-1
 394 941 l 1,45,-1
 367 749 l 1,46,47
 405 798 405 798 446.5 838 c 128,-1,48
 488 878 488 878 532.5 906 c 128,-1,49
 577 934 577 934 623.5 949.5 c 128,-1,50
 670 965 670 965 718 965 c 0,51,52
 764 965 764 965 801.5 953 c 128,-1,53
 839 941 839 941 865.5 915 c 128,-1,54
 892 889 892 889 906.5 849 c 128,-1,55
 921 809 921 809 921 754 c 0,0,1
EndSplineSet
EndChar

StartChar: OE
Encoding: 338 338 274
Width: 1933
GlyphClass: 2
Flags: W
LayerCount: 2
Fore
SplineSet
642 -6 m 0,0,1
 511 -6 511 -6 410.5 31 c 128,-1,2
 310 68 310 68 241.5 135.5 c 128,-1,3
 173 203 173 203 138 299 c 128,-1,4
 103 395 103 395 103 514 c 0,5,6
 103 683 103 683 154.5 834.5 c 128,-1,7
 206 986 206 986 304.5 1100 c 128,-1,8
 403 1214 403 1214 545.5 1281 c 128,-1,9
 688 1348 688 1348 871 1348 c 0,10,11
 906 1348 906 1348 943 1347 c 128,-1,12
 980 1346 980 1346 1015 1344.5 c 128,-1,13
 1050 1343 1050 1343 1081 1342 c 128,-1,14
 1112 1341 1112 1341 1136 1341 c 2,15,-1
 1900 1341 l 1,16,-1
 1843 1020 l 1,17,-1
 1777 1020 l 1,18,-1
 1783 1237 l 1,19,20
 1752 1241 1752 1241 1707 1244 c 128,-1,21
 1662 1247 1662 1247 1615 1248.5 c 128,-1,22
 1568 1250 1568 1250 1526.5 1250.5 c 128,-1,23
 1485 1251 1485 1251 1462 1251 c 2,24,-1
 1243 1251 l 1,25,-1
 1150 727 l 1,26,-1
 1512 727 l 1,27,-1
 1572 887 l 1,28,-1
 1636 887 l 1,29,-1
 1563 475 l 1,30,-1
 1499 475 l 1,31,-1
 1497 637 l 1,32,-1
 1135 637 l 1,33,-1
 1038 90 l 1,34,-1
 1302 90 l 2,35,36
 1364 90 1364 90 1419 91.5 c 128,-1,37
 1474 93 1474 93 1518.5 95 c 128,-1,38
 1563 97 1563 97 1595 100 c 128,-1,39
 1627 103 1627 103 1643 106 c 1,40,-1
 1744 354 l 1,41,-1
 1810 354 l 1,42,-1
 1728 0 l 1,43,-1
 917 0 l 2,44,45
 904 -1 904 -1 872.5 -2 c 128,-1,46
 841 -3 841 -3 801.5 -4 c 128,-1,47
 762 -5 762 -5 719.5 -5.5 c 128,-1,48
 677 -6 677 -6 642 -6 c 0,0,1
655 65 m 0,49,50
 709 65 709 65 761 71.5 c 128,-1,51
 813 78 813 78 844 87 c 1,52,-1
 1048 1252 l 1,53,54
 1026 1260 1026 1260 979.5 1268 c 128,-1,55
 933 1276 933 1276 858 1276 c 0,56,57
 766 1276 766 1276 689 1240 c 128,-1,58
 612 1204 612 1204 550.5 1144 c 128,-1,59
 489 1084 489 1084 442.5 1005.5 c 128,-1,60
 396 927 396 927 365 841 c 128,-1,61
 334 755 334 755 318.5 667.5 c 128,-1,62
 303 580 303 580 303 503 c 0,63,64
 303 398 303 398 327 316 c 128,-1,65
 351 234 351 234 396 178.5 c 128,-1,66
 441 123 441 123 506.5 94 c 128,-1,67
 572 65 572 65 655 65 c 0,49,50
EndSplineSet
EndChar

StartChar: oe
Encoding: 339 339 275
Width: 1366
GlyphClass: 2
Flags: W
LayerCount: 2
Fore
SplineSet
341 -20 m 0,0,1
 272 -20 272 -20 220 4 c 128,-1,2
 168 28 168 28 132.5 73 c 128,-1,3
 97 118 97 118 79 182.5 c 128,-1,4
 61 247 61 247 61 328 c 0,5,6
 61 455 61 455 95 570.5 c 128,-1,7
 129 686 129 686 193 773.5 c 128,-1,8
 257 861 257 861 349 913 c 128,-1,9
 441 965 441 965 557 965 c 0,10,11
 643 965 643 965 700.5 926 c 128,-1,12
 758 887 758 887 792 820 c 1,13,14
 813 849 813 849 843 875 c 128,-1,15
 873 901 873 901 910.5 921 c 128,-1,16
 948 941 948 941 993.5 953 c 128,-1,17
 1039 965 1039 965 1092 965 c 0,18,19
 1198 965 1198 965 1259 916 c 128,-1,20
 1320 867 1320 867 1320 777 c 0,21,22
 1320 712 1320 712 1289 651 c 128,-1,23
 1258 590 1258 590 1194.5 540.5 c 128,-1,24
 1131 491 1131 491 1034.5 457 c 128,-1,25
 938 423 938 423 808 413 c 1,26,27
 807 408 807 408 805 392.5 c 128,-1,28
 803 377 803 377 800.5 357 c 128,-1,29
 798 337 798 337 796.5 314 c 128,-1,30
 795 291 795 291 795 270 c 0,31,32
 795 239 795 239 799.5 206 c 128,-1,33
 804 173 804 173 820.5 146 c 128,-1,34
 837 119 837 119 869 101.5 c 128,-1,35
 901 84 901 84 956 84 c 0,36,37
 994 84 994 84 1029.5 92.5 c 128,-1,38
 1065 101 1065 101 1097 114.5 c 128,-1,39
 1129 128 1129 128 1159 146 c 128,-1,40
 1189 164 1189 164 1217 184 c 1,41,-1
 1246 142 l 1,42,43
 1216 115 1216 115 1177.5 86 c 128,-1,44
 1139 57 1139 57 1094 33.5 c 128,-1,45
 1049 10 1049 10 999.5 -5 c 128,-1,46
 950 -20 950 -20 898 -20 c 0,47,48
 807 -20 807 -20 748 18.5 c 128,-1,49
 689 57 689 57 663 131 c 1,50,51
 604 61 604 61 522.5 20.5 c 128,-1,52
 441 -20 441 -20 341 -20 c 0,0,1
360 62 m 0,53,54
 399 62 399 62 436.5 85.5 c 128,-1,55
 474 109 474 109 507.5 150.5 c 128,-1,56
 541 192 541 192 569.5 249 c 128,-1,57
 598 306 598 306 619 373 c 128,-1,58
 640 440 640 440 651.5 515 c 128,-1,59
 663 590 663 590 663 667 c 0,60,61
 663 716 663 716 655 756.5 c 128,-1,62
 647 797 647 797 630.5 826 c 128,-1,63
 614 855 614 855 589.5 871 c 128,-1,64
 565 887 565 887 532 887 c 0,65,66
 473 887 473 887 419.5 835.5 c 128,-1,67
 366 784 366 784 325 699 c 128,-1,68
 284 614 284 614 259.5 504.5 c 128,-1,69
 235 395 235 395 235 279 c 0,70,71
 235 231 235 231 242.5 191 c 128,-1,72
 250 151 250 151 265 122.5 c 128,-1,73
 280 94 280 94 303.5 78 c 128,-1,74
 327 62 327 62 360 62 c 0,53,54
818 476 m 1,75,76
 912 485 912 485 975.5 512 c 128,-1,77
 1039 539 1039 539 1077.5 579 c 128,-1,78
 1116 619 1116 619 1132.5 667.5 c 128,-1,79
 1149 716 1149 716 1149 767 c 0,80,81
 1149 827 1149 827 1126 857.5 c 128,-1,82
 1103 888 1103 888 1068 888 c 0,83,84
 1023 888 1023 888 983 853.5 c 128,-1,85
 943 819 943 819 910.5 762 c 128,-1,86
 878 705 878 705 854.5 630.5 c 128,-1,87
 831 556 831 556 818 476 c 1,75,76
EndSplineSet
EndChar

StartChar: Tbar
Encoding: 358 358 294
Width: 1139
GlyphClass: 2
Flags: W
LayerCount: 2
Fore
SplineSet
176 0 m 1,0,-1
 186 53 l 1,1,-1
 403 80 l 1,2,-1
 499 629 l 1,3,-1
 178 629 l 1,4,-1
 193 711 l 1,5,-1
 514 711 l 1,6,-1
 610 1255 l 1,7,-1
 559 1255 l 2,8,9
 494 1255 494 1255 447 1253.5 c 128,-1,10
 400 1252 400 1252 366 1249 c 128,-1,11
 332 1246 332 1246 308 1242.5 c 128,-1,12
 284 1239 284 1239 265 1235 c 1,13,-1
 201 1026 l 1,14,-1
 134 1026 l 1,15,-1
 190 1341 l 1,16,-1
 1260 1341 l 1,17,-1
 1204 1026 l 1,18,-1
 1136 1026 l 1,19,-1
 1146 1235 l 1,20,21
 1111 1242 1111 1242 1040 1247.5 c 128,-1,22
 969 1253 969 1253 852 1253 c 2,23,-1
 803 1253 l 1,24,-1
 707 711 l 1,25,-1
 1031 711 l 1,26,-1
 1016 629 l 1,27,-1
 693 629 l 1,28,-1
 596 80 l 1,29,-1
 805 53 l 1,30,-1
 795 0 l 1,31,-1
 176 0 l 1,0,-1
EndSplineSet
EndChar

StartChar: tbar
Encoding: 359 359 295
Width: 570
GlyphClass: 2
Flags: W
LayerCount: 2
Fore
SplineSet
265 174 m 0,0,1
 265 129 265 129 287 106.5 c 128,-1,2
 309 84 309 84 344 84 c 0,3,4
 387 84 387 84 423 92 c 128,-1,5
 459 100 459 100 496 114 c 1,6,-1
 517 67 l 1,7,8
 466 31 466 31 405.5 5.5 c 128,-1,9
 345 -20 345 -20 268 -20 c 0,10,11
 226 -20 226 -20 194 -6.5 c 128,-1,12
 162 7 162 7 140.5 31 c 128,-1,13
 119 55 119 55 108.5 88.5 c 128,-1,14
 98 122 98 122 98 162 c 0,15,16
 98 177 98 177 100 197 c 128,-1,17
 102 217 102 217 107 253 c 128,-1,18
 112 289 112 289 122 347.5 c 128,-1,19
 132 406 132 406 149 497 c 1,20,-1
 30 497 l 1,21,-1
 45 581 l 1,22,-1
 164 581 l 1,23,-1
 213 856 l 1,24,-1
 90 856 l 1,25,-1
 98 901 l 1,26,-1
 231 940 l 1,27,-1
 368 1153 l 1,28,-1
 432 1153 l 1,29,-1
 395 940 l 1,30,-1
 610 940 l 1,31,-1
 594 856 l 1,32,-1
 379 856 l 1,33,-1
 330 581 l 1,34,-1
 537 581 l 1,35,-1
 522 497 l 1,36,-1
 315 497 l 1,37,38
 299 408 299 408 289.5 351 c 128,-1,39
 280 294 280 294 274.5 259 c 128,-1,40
 269 224 269 224 267 205.5 c 128,-1,41
 265 187 265 187 265 174 c 0,0,1
EndSplineSet
EndChar

StartChar: longs
Encoding: 383 383 319
Width: 569
GlyphClass: 2
Flags: W
LayerCount: 2
Fore
SplineSet
618 1362 m 0,0,1
 583 1362 583 1362 558.5 1346.5 c 128,-1,2
 534 1331 534 1331 515 1298.5 c 128,-1,3
 496 1266 496 1266 482.5 1216 c 128,-1,4
 469 1166 469 1166 457 1096 c 2,5,-1
 189 -436 l 1,6,-1
 23 -436 l 1,7,-1
 274 1010 l 2,8,9
 312 1231 312 1231 408.5 1336.5 c 128,-1,10
 505 1442 505 1442 666 1442 c 0,11,12
 711 1442 711 1442 745 1436.5 c 128,-1,13
 779 1431 779 1431 805 1423 c 1,14,-1
 770 1227 l 1,15,-1
 721 1227 l 1,16,-1
 702 1341 l 1,17,18
 673 1362 673 1362 618 1362 c 0,0,1
EndSplineSet
EndChar

StartChar: florin
Encoding: 402 402 320
Width: 1024
GlyphClass: 2
Flags: W
LayerCount: 2
Fore
SplineSet
213 -285 m 1,0,-1
 384 702 l 1,1,-1
 223 702 l 1,2,-1
 233 752 l 1,3,-1
 400 786 l 1,4,-1
 440 1018 l 2,5,6
 454 1097 454 1097 484.5 1160.5 c 128,-1,7
 515 1224 515 1224 560 1269 c 128,-1,8
 605 1314 605 1314 663 1338 c 128,-1,9
 721 1362 721 1362 790 1362 c 0,10,11
 881 1362 881 1362 944 1343 c 1,12,-1
 937 1161 l 1,13,-1
 890 1161 l 1,14,-1
 861 1257 l 1,15,16
 830 1280 830 1280 775 1280 c 0,17,18
 732 1280 732 1280 704 1259 c 128,-1,19
 676 1238 676 1238 658 1201 c 128,-1,20
 640 1164 640 1164 628.5 1113 c 128,-1,21
 617 1062 617 1062 606 1001 c 2,22,-1
 568 786 l 1,23,-1
 817 786 l 1,24,-1
 800 702 l 1,25,-1
 552 702 l 1,26,-1
 375 -285 l 1,27,-1
 213 -285 l 1,0,-1
EndSplineSet
EndChar

StartChar: circumflex
Encoding: 710 710 327
Width: 682
GlyphClass: 2
Flags: W
LayerCount: 2
Fore
SplineSet
174 1118 m 1,0,-1
 179 1151 l 1,1,-1
 414 1424 l 1,2,-1
 627 1424 l 1,3,-1
 766 1151 l 1,4,-1
 761 1118 l 1,5,-1
 714 1118 l 1,6,-1
 508 1301 l 1,7,-1
 238 1118 l 1,8,-1
 174 1118 l 1,0,-1
EndSplineSet
EndChar

StartChar: caron
Encoding: 711 711 328
Width: 682
GlyphClass: 2
Flags: W
LayerCount: 2
Fore
SplineSet
241 1424 m 1,0,-1
 447 1241 l 1,1,-1
 717 1424 l 1,2,-1
 777 1424 l 1,3,-1
 772 1391 l 1,4,-1
 537 1118 l 1,5,-1
 324 1118 l 1,6,-1
 184 1391 l 1,7,-1
 189 1424 l 1,8,-1
 241 1424 l 1,0,-1
EndSplineSet
EndChar

StartChar: uni02C9
Encoding: 713 713 329
Width: 682
GlyphClass: 2
Flags: W
LayerCount: 2
Fore
SplineSet
158 1161 m 1,0,-1
 177 1270 l 1,1,-1
 805 1270 l 1,2,-1
 786 1161 l 1,3,-1
 158 1161 l 1,0,-1
EndSplineSet
EndChar

StartChar: breve
Encoding: 728 728 330
Width: 682
GlyphClass: 2
Flags: W
LayerCount: 2
Fore
SplineSet
465 1119 m 0,0,1
 401 1119 401 1119 355.5 1136 c 128,-1,2
 310 1153 310 1153 280.5 1183 c 128,-1,3
 251 1213 251 1213 237 1254 c 128,-1,4
 223 1295 223 1295 223 1343 c 0,5,6
 223 1357 223 1357 224 1371 c 128,-1,7
 225 1385 225 1385 227 1399 c 1,8,-1
 301 1399 l 1,9,10
 303 1362 303 1362 319 1336 c 128,-1,11
 335 1310 335 1310 360.5 1293 c 128,-1,12
 386 1276 386 1276 419 1268 c 128,-1,13
 452 1260 452 1260 490 1260 c 0,14,15
 527 1260 527 1260 563.5 1268 c 128,-1,16
 600 1276 600 1276 631 1293 c 128,-1,17
 662 1310 662 1310 687 1336 c 128,-1,18
 712 1362 712 1362 727 1399 c 1,19,-1
 801 1399 l 1,20,21
 789 1342 789 1342 762.5 1291 c 128,-1,22
 736 1240 736 1240 694.5 1201.5 c 128,-1,23
 653 1163 653 1163 595.5 1141 c 128,-1,24
 538 1119 538 1119 465 1119 c 0,0,1
EndSplineSet
EndChar

StartChar: dotaccent
Encoding: 729 729 331
Width: 682
GlyphClass: 2
Flags: W
LayerCount: 2
Fore
SplineSet
580 1247 m 256,0,1
 580 1225 580 1225 571.5 1205.5 c 128,-1,2
 563 1186 563 1186 548 1171 c 128,-1,3
 533 1156 533 1156 513 1147.5 c 128,-1,4
 493 1139 493 1139 471 1139 c 256,5,6
 449 1139 449 1139 429.5 1147.5 c 128,-1,7
 410 1156 410 1156 395 1171 c 128,-1,8
 380 1186 380 1186 371.5 1205.5 c 128,-1,9
 363 1225 363 1225 363 1247 c 256,10,11
 363 1269 363 1269 371.5 1289 c 128,-1,12
 380 1309 380 1309 395 1324 c 128,-1,13
 410 1339 410 1339 429.5 1347.5 c 128,-1,14
 449 1356 449 1356 471 1356 c 256,15,16
 493 1356 493 1356 513 1347.5 c 128,-1,17
 533 1339 533 1339 548 1324 c 128,-1,18
 563 1309 563 1309 571.5 1289 c 128,-1,19
 580 1269 580 1269 580 1247 c 256,0,1
EndSplineSet
EndChar

StartChar: ring
Encoding: 730 730 332
Width: 682
GlyphClass: 2
Flags: W
LayerCount: 2
Fore
SplineSet
675 1277 m 256,0,1
 675 1235 675 1235 659 1198 c 128,-1,2
 643 1161 643 1161 615.5 1133.5 c 128,-1,3
 588 1106 588 1106 551 1090 c 128,-1,4
 514 1074 514 1074 472 1074 c 256,5,6
 430 1074 430 1074 393 1090 c 128,-1,7
 356 1106 356 1106 328.5 1133.5 c 128,-1,8
 301 1161 301 1161 285 1198 c 128,-1,9
 269 1235 269 1235 269 1277 c 256,10,11
 269 1319 269 1319 285 1356 c 128,-1,12
 301 1393 301 1393 328.5 1420.5 c 128,-1,13
 356 1448 356 1448 393 1464 c 128,-1,14
 430 1480 430 1480 472 1480 c 256,15,16
 514 1480 514 1480 551 1464 c 128,-1,17
 588 1448 588 1448 615.5 1420.5 c 128,-1,18
 643 1393 643 1393 659 1356 c 128,-1,19
 675 1319 675 1319 675 1277 c 256,0,1
595 1277 m 256,20,21
 595 1302 595 1302 585.5 1324.5 c 128,-1,22
 576 1347 576 1347 559 1364 c 128,-1,23
 542 1381 542 1381 519.5 1390.5 c 128,-1,24
 497 1400 497 1400 472 1400 c 0,25,26
 446 1400 446 1400 424 1390.5 c 128,-1,27
 402 1381 402 1381 385 1364 c 128,-1,28
 368 1347 368 1347 358.5 1324.5 c 128,-1,29
 349 1302 349 1302 349 1277 c 256,30,31
 349 1252 349 1252 358.5 1229.5 c 128,-1,32
 368 1207 368 1207 385 1190.5 c 128,-1,33
 402 1174 402 1174 424 1164 c 128,-1,34
 446 1154 446 1154 472 1154 c 0,35,36
 497 1154 497 1154 519.5 1164 c 128,-1,37
 542 1174 542 1174 559 1190.5 c 128,-1,38
 576 1207 576 1207 585.5 1229.5 c 128,-1,39
 595 1252 595 1252 595 1277 c 256,20,21
EndSplineSet
EndChar

StartChar: ogonek
Encoding: 731 731 333
Width: 682
GlyphClass: 2
Flags: W
LayerCount: 2
Fore
SplineSet
495 -354 m 1,0,1
 464 -373 464 -373 418 -388 c 128,-1,2
 372 -403 372 -403 319 -403 c 0,3,4
 265 -403 265 -403 227.5 -387.5 c 128,-1,5
 190 -372 190 -372 166.5 -346.5 c 128,-1,6
 143 -321 143 -321 132.5 -288.5 c 128,-1,7
 122 -256 122 -256 122 -221 c 0,8,9
 122 -181 122 -181 134 -146 c 128,-1,10
 146 -111 146 -111 165 -81 c 128,-1,11
 184 -51 184 -51 207 -26.5 c 128,-1,12
 230 -2 230 -2 252 16 c 1,13,-1
 361 16 l 1,14,15
 345 -2 345 -2 329 -25.5 c 128,-1,16
 313 -49 313 -49 300 -77 c 128,-1,17
 287 -105 287 -105 279 -136.5 c 128,-1,18
 271 -168 271 -168 271 -202 c 0,19,20
 271 -256 271 -256 302 -285.5 c 128,-1,21
 333 -315 333 -315 390 -315 c 0,22,23
 413 -315 413 -315 436.5 -310 c 128,-1,24
 460 -305 460 -305 479 -297 c 1,25,-1
 495 -354 l 1,0,1
EndSplineSet
EndChar

StartChar: tilde
Encoding: 732 732 334
Width: 682
GlyphClass: 2
Flags: W
LayerCount: 2
Fore
SplineSet
572 1119 m 0,0,1
 524 1119 524 1119 487.5 1140.5 c 128,-1,2
 451 1162 451 1162 419.5 1188.5 c 128,-1,3
 388 1215 388 1215 358.5 1236.5 c 128,-1,4
 329 1258 329 1258 296 1258 c 0,5,6
 265 1258 265 1258 245 1247.5 c 128,-1,7
 225 1237 225 1237 211.5 1219.5 c 128,-1,8
 198 1202 198 1202 190 1181 c 128,-1,9
 182 1160 182 1160 175 1139 c 1,10,-1
 123 1139 l 1,11,12
 135 1186 135 1186 153 1229.5 c 128,-1,13
 171 1273 171 1273 199 1307 c 128,-1,14
 227 1341 227 1341 267 1361 c 128,-1,15
 307 1381 307 1381 361 1381 c 0,16,17
 409 1381 409 1381 446 1359.5 c 128,-1,18
 483 1338 483 1338 514.5 1311.5 c 128,-1,19
 546 1285 546 1285 575.5 1263.5 c 128,-1,20
 605 1242 605 1242 637 1242 c 0,21,22
 667 1242 667 1242 687 1252.5 c 128,-1,23
 707 1263 707 1263 720.5 1280 c 128,-1,24
 734 1297 734 1297 742.5 1318 c 128,-1,25
 751 1339 751 1339 758 1360 c 1,26,-1
 810 1360 l 1,27,28
 798 1313 798 1313 780 1270 c 128,-1,29
 762 1227 762 1227 734 1193 c 128,-1,30
 706 1159 706 1159 666 1139 c 128,-1,31
 626 1119 626 1119 572 1119 c 0,0,1
EndSplineSet
EndChar

StartChar: hungarumlaut
Encoding: 733 733 335
Width: 682
GlyphClass: 2
Flags: W
LayerCount: 2
Fore
SplineSet
83 1118 m 1,0,-1
 89 1151 l 1,1,-1
 316 1444 l 1,2,-1
 508 1444 l 1,3,-1
 502 1407 l 1,4,-1
 158 1118 l 1,5,-1
 83 1118 l 1,0,-1
433 1118 m 1,6,-1
 439 1151 l 1,7,-1
 666 1444 l 1,8,-1
 858 1444 l 1,9,-1
 852 1407 l 1,10,-1
 509 1118 l 1,11,-1
 433 1118 l 1,6,-1
EndSplineSet
EndChar

StartChar: tonos
Encoding: 900 900 336
Width: 682
GlyphClass: 2
Flags: W
LayerCount: 2
Fore
SplineSet
248 1118 m 1,0,-1
 253 1151 l 1,1,-1
 357 1443 l 1,2,-1
 570 1443 l 1,3,-1
 564 1406 l 1,4,-1
 303 1118 l 1,5,-1
 248 1118 l 1,0,-1
EndSplineSet
EndChar

StartChar: dieresistonos
Encoding: 901 901 337
Width: 682
GlyphClass: 2
Flags: W
LayerCount: 2
Fore
SplineSet
630 1212 m 256,0,1
 630 1174 630 1174 605 1147.5 c 128,-1,2
 580 1121 580 1121 542 1121 c 0,3,4
 505 1121 505 1121 478.5 1147.5 c 128,-1,5
 452 1174 452 1174 452 1212 c 256,6,7
 452 1250 452 1250 478.5 1276 c 128,-1,8
 505 1302 505 1302 542 1302 c 0,9,10
 580 1302 580 1302 605 1276 c 128,-1,11
 630 1250 630 1250 630 1212 c 256,0,1
230 1212 m 256,12,13
 230 1174 230 1174 204.5 1147.5 c 128,-1,14
 179 1121 179 1121 142 1121 c 0,15,16
 104 1121 104 1121 77.5 1147.5 c 128,-1,17
 51 1174 51 1174 51 1212 c 256,18,19
 51 1250 51 1250 77.5 1276 c 128,-1,20
 104 1302 104 1302 142 1302 c 0,21,22
 179 1302 179 1302 204.5 1276 c 128,-1,23
 230 1250 230 1250 230 1212 c 256,12,13
257 1118 m 1,24,-1
 262 1151 l 1,25,-1
 366 1474 l 1,26,-1
 549 1474 l 1,27,-1
 543 1437 l 1,28,-1
 312 1118 l 1,29,-1
 257 1118 l 1,24,-1
EndSplineSet
EndChar

StartChar: Gamma
Encoding: 915 915 349
Width: 1165
GlyphClass: 2
Flags: W
LayerCount: 2
Fore
SplineSet
553 0 m 1,0,-1
 -17 0 l 1,1,-1
 -8 53 l 1,2,-1
 167 79 l 1,3,-1
 376 1261 l 1,4,-1
 209 1288 l 1,5,-1
 219 1341 l 1,6,-1
 1230 1341 l 1,7,-1
 1180 956 l 1,8,-1
 1115 956 l 1,9,-1
 1102 1235 l 1,10,11
 1088 1238 1088 1238 1056 1241.5 c 128,-1,12
 1024 1245 1024 1245 984 1248 c 128,-1,13
 944 1251 944 1251 901 1253 c 128,-1,14
 858 1255 858 1255 822 1255 c 2,15,-1
 568 1255 l 1,16,-1
 360 79 l 1,17,-1
 562 53 l 1,18,-1
 553 0 l 1,0,-1
EndSplineSet
EndChar

StartChar: Delta
Encoding: 916 916 350
Width: 1202
GlyphClass: 2
Flags: W
LayerCount: 2
Fore
SplineSet
1092 0 m 1,0,-1
 -68 0 l 1,1,-1
 -53 80 l 1,2,-1
 710 1352 l 1,3,-1
 900 1352 l 1,4,-1
 1108 80 l 1,5,-1
 1092 0 l 1,0,-1
734 1208 m 1,6,-1
 84 109 l 1,7,-1
 890 109 l 1,8,-1
 734 1208 l 1,6,-1
EndSplineSet
EndChar

StartChar: Theta
Encoding: 920 920 354
Width: 1479
GlyphClass: 2
Flags: W
LayerCount: 2
Fore
SplineSet
575 610 m 1,0,-1
 516 468 l 1,1,-1
 452 468 l 1,2,-1
 533 880 l 1,3,-1
 597 880 l 1,4,-1
 600 740 l 1,5,-1
 962 740 l 1,6,-1
 1021 880 l 1,7,-1
 1085 880 l 1,8,-1
 1004 468 l 1,9,-1
 940 468 l 1,10,-1
 937 610 l 1,11,-1
 575 610 l 1,0,-1
1231 832 m 0,12,13
 1231 933 1231 933 1204 1015 c 128,-1,14
 1177 1097 1177 1097 1128 1155 c 128,-1,15
 1079 1213 1079 1213 1010.5 1244.5 c 128,-1,16
 942 1276 942 1276 858 1276 c 0,17,18
 766 1276 766 1276 689 1240 c 128,-1,19
 612 1204 612 1204 550.5 1144 c 128,-1,20
 489 1084 489 1084 442.5 1005.5 c 128,-1,21
 396 927 396 927 365 841 c 128,-1,22
 334 755 334 755 318.5 667.5 c 128,-1,23
 303 580 303 580 303 503 c 0,24,25
 303 403 303 403 329.5 322 c 128,-1,26
 356 241 356 241 404 184 c 128,-1,27
 452 127 452 127 519.5 96 c 128,-1,28
 587 65 587 65 670 65 c 0,29,30
 762 65 762 65 839.5 100.5 c 128,-1,31
 917 136 917 136 979.5 195 c 128,-1,32
 1042 254 1042 254 1089 332 c 128,-1,33
 1136 410 1136 410 1167.5 495.5 c 128,-1,34
 1199 581 1199 581 1215 667.5 c 128,-1,35
 1231 754 1231 754 1231 832 c 0,12,13
663 -20 m 0,36,37
 540 -20 540 -20 437 19 c 128,-1,38
 334 58 334 58 260 128.5 c 128,-1,39
 186 199 186 199 144.5 297 c 128,-1,40
 103 395 103 395 103 514 c 0,41,42
 103 627 103 627 126 733 c 128,-1,43
 149 839 149 839 194 932.5 c 128,-1,44
 239 1026 239 1026 304.5 1104 c 128,-1,45
 370 1182 370 1182 455.5 1238 c 128,-1,46
 541 1294 541 1294 645 1325 c 128,-1,47
 749 1356 749 1356 871 1356 c 0,48,49
 994 1356 994 1356 1097 1317 c 128,-1,50
 1200 1278 1200 1278 1274 1207.5 c 128,-1,51
 1348 1137 1348 1137 1389.5 1038.5 c 128,-1,52
 1431 940 1431 940 1431 822 c 0,53,54
 1431 725 1431 725 1411.5 624.5 c 128,-1,55
 1392 524 1392 524 1351.5 430.5 c 128,-1,56
 1311 337 1311 337 1249 255 c 128,-1,57
 1187 173 1187 173 1101.5 112 c 128,-1,58
 1016 51 1016 51 907 15.5 c 128,-1,59
 798 -20 798 -20 663 -20 c 0,36,37
EndSplineSet
EndChar

StartChar: Kappa
Encoding: 922 922 356
Width: 1366
GlyphClass: 2
Flags: W
LayerCount: 2
Fore
SplineSet
1454 1341 m 1,0,-1
 1444 1288 l 1,1,-1
 1288 1262 l 1,2,-1
 732 807 l 1,3,-1
 1179 80 l 1,4,-1
 1313 53 l 1,5,-1
 1303 0 l 1,6,-1
 996 0 l 1,7,-1
 585 686 l 1,8,-1
 442 569 l 1,9,-1
 354 80 l 1,10,-1
 542 53 l 1,11,-1
 532 0 l 1,12,-1
 -24 0 l 1,13,-1
 -14 53 l 1,14,-1
 161 80 l 1,15,-1
 370 1262 l 1,16,-1
 202 1288 l 1,17,-1
 212 1341 l 1,18,-1
 749 1341 l 1,19,-1
 739 1288 l 1,20,-1
 563 1262 l 1,21,-1
 465 704 l 1,22,-1
 1143 1262 l 1,23,-1
 1024 1288 l 1,24,-1
 1034 1341 l 1,25,-1
 1454 1341 l 1,0,-1
EndSplineSet
EndChar

StartChar: Lambda
Encoding: 923 923 357
Width: 1237
GlyphClass: 2
Flags: W
LayerCount: 2
Fore
SplineSet
122 80 m 1,0,-1
 296 53 l 1,1,-1
 286 0 l 1,2,-1
 -159 0 l 1,3,-1
 -149 53 l 1,4,-1
 1 80 l 1,5,-1
 712 1352 l 1,6,-1
 902 1352 l 1,7,-1
 1060 80 l 1,8,-1
 1224 53 l 1,9,-1
 1214 0 l 1,10,-1
 652 0 l 1,11,-1
 662 53 l 1,12,-1
 848 80 l 1,13,-1
 740 1197 l 1,14,-1
 122 80 l 1,0,-1
EndSplineSet
EndChar

StartChar: Xi
Encoding: 926 926 360
Width: 1309
GlyphClass: 2
Flags: W
LayerCount: 2
Fore
SplineSet
681 170 m 2,0,1
 743 170 743 170 798.5 171.5 c 128,-1,2
 854 173 854 173 898 175 c 128,-1,3
 942 177 942 177 974 180 c 128,-1,4
 1006 183 1006 183 1022 186 c 1,5,-1
 1116 374 l 1,6,-1
 1182 374 l 1,7,-1
 1090 0 l 1,8,-1
 33 0 l 1,9,-1
 86 374 l 1,10,-1
 152 374 l 1,11,-1
 172 186 l 1,12,13
 187 183 187 183 222 180 c 128,-1,14
 257 177 257 177 305.5 175 c 128,-1,15
 354 173 354 173 413 171.5 c 128,-1,16
 472 170 472 170 534 170 c 2,17,-1
 681 170 l 2,0,1
735 1181 m 2,18,19
 712 1181 712 1181 670 1180.5 c 128,-1,20
 628 1180 628 1180 580.5 1178.5 c 128,-1,21
 533 1177 533 1177 486.5 1174 c 128,-1,22
 440 1171 440 1171 408 1167 c 1,23,-1
 325 1010 l 1,24,-1
 259 1010 l 1,25,-1
 344 1341 l 1,26,-1
 1301 1341 l 1,27,-1
 1256 1010 l 1,28,-1
 1190 1010 l 1,29,-1
 1169 1167 l 1,30,31
 1138 1171 1138 1171 1093 1174 c 128,-1,32
 1048 1177 1048 1177 1001 1178.5 c 128,-1,33
 954 1180 954 1180 912.5 1180.5 c 128,-1,34
 871 1181 871 1181 848 1181 c 2,35,-1
 735 1181 l 2,18,19
472 610 m 1,36,-1
 413 468 l 1,37,-1
 349 468 l 1,38,-1
 429 880 l 1,39,-1
 493 880 l 1,40,-1
 497 740 l 1,41,-1
 913 740 l 1,42,-1
 971 880 l 1,43,-1
 1035 880 l 1,44,-1
 955 468 l 1,45,-1
 891 468 l 1,46,-1
 888 610 l 1,47,-1
 472 610 l 1,36,-1
EndSplineSet
EndChar

StartChar: Pi
Encoding: 928 928 362
Width: 1479
GlyphClass: 2
Flags: W
LayerCount: 2
Fore
SplineSet
-17 0 m 1,0,-1
 -8 53 l 1,1,-1
 168 80 l 1,2,-1
 376 1262 l 1,3,-1
 209 1288 l 1,4,-1
 219 1341 l 1,5,-1
 1579 1341 l 1,6,-1
 1569 1288 l 1,7,-1
 1392 1262 l 1,8,-1
 1184 80 l 1,9,-1
 1350 53 l 1,10,-1
 1341 0 l 1,11,-1
 805 0 l 1,12,-1
 814 53 l 1,13,-1
 992 80 l 1,14,-1
 1198 1251 l 1,15,-1
 567 1251 l 1,16,-1
 361 80 l 1,17,-1
 527 53 l 1,18,-1
 518 0 l 1,19,-1
 -17 0 l 1,0,-1
EndSplineSet
EndChar

StartChar: Sigma
Encoding: 931 931 364
Width: 1217
GlyphClass: 2
Flags: W
LayerCount: 2
Fore
SplineSet
736 728 m 1,0,-1
 729 688 l 1,1,-1
 232 170 l 1,2,-1
 484 170 l 2,3,4
 546 170 546 170 615.5 171.5 c 128,-1,5
 685 173 685 173 747 175 c 128,-1,6
 809 177 809 177 855 180 c 128,-1,7
 901 183 901 183 917 186 c 1,8,-1
 1011 374 l 1,9,-1
 1077 374 l 1,10,-1
 985 0 l 1,11,-1
 -4 0 l 1,12,-1
 10 74 l 1,13,-1
 559 646 l 1,14,-1
 248 1262 l 1,15,-1
 264 1341 l 1,16,-1
 1185 1341 l 1,17,-1
 1122 1020 l 1,18,-1
 1056 1020 l 1,19,-1
 1057 1237 l 1,20,21
 1026 1241 1026 1241 983.5 1244 c 128,-1,22
 941 1247 941 1247 897.5 1248.5 c 128,-1,23
 854 1250 854 1250 815 1250.5 c 128,-1,24
 776 1251 776 1251 753 1251 c 2,25,-1
 472 1251 l 1,26,-1
 736 728 l 1,0,-1
EndSplineSet
EndChar

StartChar: Phi
Encoding: 934 934 367
Width: 1559
GlyphClass: 2
Flags: W
LayerCount: 2
Fore
SplineSet
918 300 m 2,0,1
 1113 300 1113 300 1209.5 407 c 128,-1,2
 1306 514 1306 514 1306 727 c 0,3,4
 1306 812 1306 812 1284.5 874.5 c 128,-1,5
 1263 937 1263 937 1223 978 c 128,-1,6
 1183 1019 1183 1019 1125.5 1039 c 128,-1,7
 1068 1059 1068 1059 995 1059 c 2,8,-1
 962 1059 l 1,9,-1
 829 300 l 1,10,-1
 918 300 l 2,0,1
681 1059 m 2,11,12
 486 1059 486 1059 389.5 952 c 128,-1,13
 293 845 293 845 293 632 c 0,14,15
 293 547 293 547 314.5 484.5 c 128,-1,16
 336 422 336 422 376 381 c 128,-1,17
 416 340 416 340 473.5 320 c 128,-1,18
 531 300 531 300 604 300 c 2,19,-1
 646 300 l 1,20,-1
 780 1059 l 1,21,-1
 681 1059 l 2,11,12
632 222 m 1,22,-1
 566 222 l 2,23,24
 442 222 442 222 354 253 c 128,-1,25
 266 284 266 284 209.5 338.5 c 128,-1,26
 153 393 153 393 127 469 c 128,-1,27
 101 545 101 545 101 635 c 0,28,29
 101 747 101 747 134 839.5 c 128,-1,30
 167 932 167 932 236 998 c 128,-1,31
 305 1064 305 1064 413 1100.5 c 128,-1,32
 521 1137 521 1137 671 1137 c 2,33,-1
 795 1137 l 1,34,-1
 816 1262 l 1,35,-1
 649 1288 l 1,36,-1
 659 1341 l 1,37,-1
 1185 1341 l 1,38,-1
 1175 1288 l 1,39,-1
 998 1262 l 1,40,-1
 977 1137 l 1,41,-1
 1033 1137 l 2,42,43
 1151 1137 1151 1137 1239.5 1108 c 128,-1,44
 1328 1079 1328 1079 1387 1025 c 128,-1,45
 1446 971 1446 971 1476 895 c 128,-1,46
 1506 819 1506 819 1506 726 c 0,47,48
 1506 614 1506 614 1472 521 c 128,-1,49
 1438 428 1438 428 1367 361.5 c 128,-1,50
 1296 295 1296 295 1187 258.5 c 128,-1,51
 1078 222 1078 222 928 222 c 2,52,-1
 814 222 l 1,53,-1
 790 80 l 1,54,-1
 956 53 l 1,55,-1
 947 0 l 1,56,-1
 421 0 l 1,57,-1
 430 53 l 1,58,-1
 608 80 l 1,59,-1
 632 222 l 1,22,-1
EndSplineSet
EndChar

StartChar: Psi
Encoding: 936 936 369
Width: 1440
GlyphClass: 2
Flags: W
LayerCount: 2
Fore
SplineSet
741 80 m 1,0,-1
 919 53 l 1,1,-1
 909 0 l 1,2,-1
 363 0 l 1,3,-1
 373 53 l 1,4,-1
 559 80 l 1,5,-1
 634 506 l 1,6,7
 519 506 519 506 436.5 530 c 128,-1,8
 354 554 354 554 301.5 600 c 128,-1,9
 249 646 249 646 224.5 712.5 c 128,-1,10
 200 779 200 779 200 864 c 0,11,12
 200 893 200 893 203 928 c 128,-1,13
 206 963 206 963 211 987 c 2,14,-1
 262 1262 l 1,15,-1
 144 1288 l 1,16,-1
 154 1341 l 1,17,-1
 468 1341 l 1,18,-1
 402 982 l 2,19,20
 392 926 392 926 392 871 c 0,21,22
 392 728 392 728 453.5 657 c 128,-1,23
 515 586 515 586 648 585 c 1,24,-1
 768 1262 l 1,25,-1
 590 1288 l 1,26,-1
 600 1341 l 1,27,-1
 1146 1341 l 1,28,-1
 1136 1288 l 1,29,-1
 950 1262 l 1,30,-1
 830 585 l 1,31,32
 914 585 914 585 977.5 605.5 c 128,-1,33
 1041 626 1041 626 1086.5 668 c 128,-1,34
 1132 710 1132 710 1161 774.5 c 128,-1,35
 1190 839 1190 839 1206 926 c 2,36,-1
 1280 1341 l 1,37,-1
 1594 1341 l 1,38,-1
 1584 1288 l 1,39,-1
 1458 1262 l 1,40,-1
 1399 931 l 2,41,42
 1379 821 1379 821 1336.5 741 c 128,-1,43
 1294 661 1294 661 1223.5 609 c 128,-1,44
 1153 557 1153 557 1052 531.5 c 128,-1,45
 951 506 951 506 816 506 c 1,46,-1
 741 80 l 1,0,-1
EndSplineSet
EndChar

StartChar: Omega
Encoding: 937 937 370
Width: 1481
GlyphClass: 2
Flags: W
LayerCount: 2
Fore
SplineSet
863 1276 m 0,0,1
 739 1276 739 1276 648.5 1233.5 c 128,-1,2
 558 1191 558 1191 499 1116.5 c 128,-1,3
 440 1042 440 1042 411.5 941 c 128,-1,4
 383 840 383 840 383 723 c 0,5,6
 383 565 383 565 449.5 469 c 128,-1,7
 516 373 516 373 636 343 c 1,8,-1
 603 0 l 1,9,-1
 44 0 l 1,10,-1
 83 330 l 1,11,-1
 149 330 l 1,12,-1
 181 186 l 1,13,14
 196 183 196 183 222 180 c 128,-1,15
 248 177 248 177 283 175 c 128,-1,16
 318 173 318 173 361 171.5 c 128,-1,17
 404 170 404 170 452 170 c 2,18,-1
 524 170 l 1,19,-1
 532 281 l 1,20,21
 459 299 459 299 394 338.5 c 128,-1,22
 329 378 329 378 280.5 435.5 c 128,-1,23
 232 493 232 493 204 568.5 c 128,-1,24
 176 644 176 644 176 735 c 0,25,26
 176 880 176 880 225.5 995 c 128,-1,27
 275 1110 275 1110 365.5 1190.5 c 128,-1,28
 456 1271 456 1271 583.5 1313.5 c 128,-1,29
 711 1356 711 1356 867 1356 c 0,30,31
 996 1356 996 1356 1096.5 1324 c 128,-1,32
 1197 1292 1197 1292 1266 1233 c 128,-1,33
 1335 1174 1335 1174 1371 1090 c 128,-1,34
 1407 1006 1407 1006 1407 901 c 0,35,36
 1407 766 1407 766 1368 659 c 128,-1,37
 1329 552 1329 552 1259.5 474 c 128,-1,38
 1190 396 1190 396 1094 347.5 c 128,-1,39
 998 299 998 299 885 281 c 1,40,-1
 857 170 l 1,41,-1
 916 170 l 2,42,43
 964 170 964 170 1009 171.5 c 128,-1,44
 1054 173 1054 173 1091.5 175 c 128,-1,45
 1129 177 1129 177 1158 180 c 128,-1,46
 1187 183 1187 183 1203 186 c 1,47,-1
 1285 330 l 1,48,-1
 1351 330 l 1,49,-1
 1274 0 l 1,50,-1
 715 0 l 1,51,-1
 802 343 l 1,52,53
 908 359 908 359 983.5 406 c 128,-1,54
 1059 453 1059 453 1107.5 525 c 128,-1,55
 1156 597 1156 597 1178.5 691.5 c 128,-1,56
 1201 786 1201 786 1201 897 c 0,57,58
 1201 997 1201 997 1175.5 1068.5 c 128,-1,59
 1150 1140 1150 1140 1105 1186 c 128,-1,60
 1060 1232 1060 1232 998 1254 c 128,-1,61
 936 1276 936 1276 863 1276 c 0,0,1
EndSplineSet
EndChar

StartChar: alpha
Encoding: 945 945 378
Width: 1075
GlyphClass: 2
Flags: W
LayerCount: 2
Fore
SplineSet
825 433 m 2,0,1
 829 362 829 362 836 305.5 c 128,-1,2
 843 249 843 249 852 204.5 c 128,-1,3
 861 160 861 160 871.5 124.5 c 128,-1,4
 882 89 882 89 894 60 c 1,5,-1
 961 45 l 1,6,-1
 953 0 l 1,7,-1
 740 0 l 1,8,9
 730 27 730 27 722 59 c 128,-1,10
 714 91 714 91 707.5 125 c 128,-1,11
 701 159 701 159 697 191.5 c 128,-1,12
 693 224 693 224 692 253 c 1,13,14
 656 186 656 186 619 134.5 c 128,-1,15
 582 83 582 83 540.5 48.5 c 128,-1,16
 499 14 499 14 449.5 -3.5 c 128,-1,17
 400 -21 400 -21 338 -21 c 256,18,19
 276 -21 276 -21 225 4 c 128,-1,20
 174 29 174 29 137.5 76.5 c 128,-1,21
 101 124 101 124 81 192.5 c 128,-1,22
 61 261 61 261 61 347 c 0,23,24
 61 381 61 381 64 417.5 c 128,-1,25
 67 454 67 454 74 493 c 0,26,27
 96 620 96 620 142.5 710 c 128,-1,28
 189 800 189 800 252 857 c 128,-1,29
 315 914 315 914 389.5 940 c 128,-1,30
 464 966 464 966 542 966 c 0,31,32
 662 966 662 966 726.5 898.5 c 128,-1,33
 791 831 791 831 810 703 c 2,34,-1
 811 674 l 1,35,-1
 825 704 l 1,36,-1
 952 940 l 1,37,-1
 1109 940 l 1,38,-1
 1101 900 l 1,39,40
 1081 877 1081 877 1055.5 841.5 c 128,-1,41
 1030 806 1030 806 997 754 c 128,-1,42
 964 702 964 702 921 632 c 128,-1,43
 878 562 878 562 823 471 c 1,44,-1
 825 433 l 2,0,1
705 572 m 0,45,46
 705 738 705 738 665.5 812 c 128,-1,47
 626 886 626 886 543 886 c 0,48,49
 433 886 433 886 360 784 c 128,-1,50
 287 682 287 682 252 472 c 0,51,52
 237 386 237 386 237 316 c 0,53,54
 237 254 237 254 248.5 209.5 c 128,-1,55
 260 165 260 165 279.5 135.5 c 128,-1,56
 299 106 299 106 325.5 92 c 128,-1,57
 352 78 352 78 383 78 c 0,58,59
 435 78 435 78 479.5 106 c 128,-1,60
 524 134 524 134 563 182 c 128,-1,61
 602 230 602 230 636.5 294.5 c 128,-1,62
 671 359 671 359 704 433 c 1,63,64
 704 448 704 448 704.5 470 c 128,-1,65
 705 492 705 492 705 514 c 128,-1,66
 705 536 705 536 705 552.5 c 128,-1,67
 705 569 705 569 705 572 c 0,45,46
EndSplineSet
EndChar

StartChar: beta
Encoding: 946 946 379
Width: 1020
GlyphClass: 2
Flags: W
LayerCount: 2
Fore
SplineSet
697 1442 m 0,0,1
 769 1442 769 1442 828 1422.5 c 128,-1,2
 887 1403 887 1403 929 1366 c 128,-1,3
 971 1329 971 1329 994 1275 c 128,-1,4
 1017 1221 1017 1221 1017 1153 c 0,5,6
 1017 1058 1017 1058 988.5 989.5 c 128,-1,7
 960 921 960 921 915 874.5 c 128,-1,8
 870 828 870 828 815.5 801 c 128,-1,9
 761 774 761 774 709 763 c 1,10,-1
 708 753 l 1,11,12
 758 742 758 742 801 717 c 128,-1,13
 844 692 844 692 875.5 653.5 c 128,-1,14
 907 615 907 615 925 563.5 c 128,-1,15
 943 512 943 512 943 448 c 0,16,17
 943 334 943 334 907 246.5 c 128,-1,18
 871 159 871 159 807.5 99.5 c 128,-1,19
 744 40 744 40 657.5 10 c 128,-1,20
 571 -20 571 -20 470 -20 c 0,21,22
 392 -20 392 -20 324.5 -5 c 128,-1,23
 257 10 257 10 215 33 c 1,24,-1
 132 -436 l 1,25,-1
 -33 -436 l 1,26,-1
 209 941 l 2,27,28
 234 1085 234 1085 278 1181 c 128,-1,29
 322 1277 322 1277 383.5 1335 c 128,-1,30
 445 1393 445 1393 523.5 1417.5 c 128,-1,31
 602 1442 602 1442 697 1442 c 0,0,1
686 1362 m 0,32,33
 625 1362 625 1362 577.5 1344.5 c 128,-1,34
 530 1327 530 1327 492.5 1279.5 c 128,-1,35
 455 1232 455 1232 426 1149.5 c 128,-1,36
 397 1067 397 1067 374 937 c 2,37,-1
 229 115 l 1,38,39
 247 106 247 106 271 98 c 128,-1,40
 295 90 295 90 323.5 83 c 128,-1,41
 352 76 352 76 384 72 c 128,-1,42
 416 68 416 68 449 68 c 0,43,44
 519 68 519 68 577.5 93 c 128,-1,45
 636 118 636 118 678.5 167 c 128,-1,46
 721 216 721 216 744.5 289 c 128,-1,47
 768 362 768 362 768 457 c 0,48,49
 768 582 768 582 699.5 644 c 128,-1,50
 631 706 631 706 511 712 c 1,51,-1
 525 790 l 1,52,53
 615 791 615 791 677.5 822 c 128,-1,54
 740 853 740 853 779 905 c 128,-1,55
 818 957 818 957 835.5 1024 c 128,-1,56
 853 1091 853 1091 853 1164 c 0,57,58
 853 1219 853 1219 839 1257 c 128,-1,59
 825 1295 825 1295 802 1318.5 c 128,-1,60
 779 1342 779 1342 749 1352 c 128,-1,61
 719 1362 719 1362 686 1362 c 0,32,33
EndSplineSet
EndChar

StartChar: gamma
Encoding: 947 947 380
Width: 807
GlyphClass: 2
Flags: W
LayerCount: 2
Fore
SplineSet
37 895 m 1,0,-1
 45 940 l 1,1,-1
 255 940 l 1,2,3
 275 855 275 855 294 759 c 128,-1,4
 313 663 313 663 329.5 564 c 128,-1,5
 346 465 346 465 359.5 367.5 c 128,-1,6
 373 270 373 270 383 183 c 1,7,-1
 391 183 l 1,8,-1
 606 582 l 2,9,10
 627 620 627 620 644.5 656 c 128,-1,11
 662 692 662 692 675.5 723.5 c 128,-1,12
 689 755 689 755 696.5 780.5 c 128,-1,13
 704 806 704 806 704 823 c 0,14,15
 704 853 704 853 686.5 871 c 128,-1,16
 669 889 669 889 650 895 c 1,17,-1
 658 940 l 1,18,-1
 847 940 l 1,19,20
 850 934 850 934 851 923 c 128,-1,21
 852 912 852 912 852 899 c 0,22,23
 852 873 852 873 841 839.5 c 128,-1,24
 830 806 830 806 811 765.5 c 128,-1,25
 792 725 792 725 766.5 678.5 c 128,-1,26
 741 632 741 632 712 581 c 2,27,-1
 399 25 l 1,28,29
 397 -16 397 -16 389.5 -76 c 128,-1,30
 382 -136 382 -136 371.5 -200 c 128,-1,31
 361 -264 361 -264 349 -324 c 128,-1,32
 337 -384 337 -384 325 -425 c 1,33,-1
 168 -436 l 1,34,-1
 127 -407 l 1,35,36
 134 -371 134 -371 147 -322 c 128,-1,37
 160 -273 160 -273 176 -218 c 128,-1,38
 192 -163 192 -163 210.5 -106.5 c 128,-1,39
 229 -50 229 -50 249 0 c 1,40,41
 234 130 234 130 214.5 257 c 128,-1,42
 195 384 195 384 174 498 c 128,-1,43
 153 612 153 612 131 708 c 128,-1,44
 109 804 109 804 88 873 c 1,45,-1
 37 895 l 1,0,-1
EndSplineSet
EndChar

StartChar: delta
Encoding: 948 948 381
Width: 952
GlyphClass: 2
Flags: W
LayerCount: 2
Fore
SplineSet
420 -20 m 0,0,1
 333 -20 333 -20 266 6 c 128,-1,2
 199 32 199 32 153 79.5 c 128,-1,3
 107 127 107 127 83.5 193.5 c 128,-1,4
 60 260 60 260 60 340 c 0,5,6
 60 457 60 457 100.5 544.5 c 128,-1,7
 141 632 141 632 206.5 696 c 128,-1,8
 272 760 272 760 355.5 802 c 128,-1,9
 439 844 439 844 525 870 c 1,10,11
 496 901 496 901 469.5 936.5 c 128,-1,12
 443 972 443 972 423 1010 c 128,-1,13
 403 1048 403 1048 391 1088 c 128,-1,14
 379 1128 379 1128 379 1169 c 0,15,16
 379 1239 379 1239 407.5 1289 c 128,-1,17
 436 1339 436 1339 485 1370.5 c 128,-1,18
 534 1402 534 1402 599.5 1416.5 c 128,-1,19
 665 1431 665 1431 739 1431 c 0,20,21
 803 1431 803 1431 867 1419 c 128,-1,22
 931 1407 931 1407 979 1393 c 1,23,-1
 944 1195 l 1,24,-1
 897 1195 l 1,25,-1
 874 1304 l 1,26,27
 852 1327 852 1327 812 1339 c 128,-1,28
 772 1351 772 1351 727 1351 c 0,29,30
 640 1351 640 1351 586 1309.5 c 128,-1,31
 532 1268 532 1268 532 1185 c 0,32,33
 532 1149 532 1149 546.5 1114.5 c 128,-1,34
 561 1080 561 1080 586 1045.5 c 128,-1,35
 611 1011 611 1011 645 975 c 128,-1,36
 679 939 679 939 717 901 c 0,37,38
 771 846 771 846 806.5 794 c 128,-1,39
 842 742 842 742 862.5 692 c 128,-1,40
 883 642 883 642 891 594 c 128,-1,41
 899 546 899 546 899 499 c 0,42,43
 899 440 899 440 886.5 378.5 c 128,-1,44
 874 317 874 317 848.5 259 c 128,-1,45
 823 201 823 201 784 150.5 c 128,-1,46
 745 100 745 100 691.5 62 c 128,-1,47
 638 24 638 24 570.5 2 c 128,-1,48
 503 -20 503 -20 420 -20 c 0,0,1
429 59 m 0,49,50
 489 59 489 59 533.5 82 c 128,-1,51
 578 105 578 105 610.5 142 c 128,-1,52
 643 179 643 179 664 226 c 128,-1,53
 685 273 685 273 697.5 322 c 128,-1,54
 710 371 710 371 715 417 c 128,-1,55
 720 463 720 463 720 498 c 0,56,57
 720 595 720 595 683.5 673 c 128,-1,58
 647 751 647 751 576 818 c 1,59,60
 520 800 520 800 466 767.5 c 128,-1,61
 412 735 412 735 365 684 c 0,62,63
 337 653 337 653 312.5 613.5 c 128,-1,64
 288 574 288 574 270 527.5 c 128,-1,65
 252 481 252 481 241.5 428 c 128,-1,66
 231 375 231 375 231 316 c 0,67,68
 231 190 231 190 281.5 124.5 c 128,-1,69
 332 59 332 59 429 59 c 0,49,50
EndSplineSet
EndChar

StartChar: epsilon
Encoding: 949 949 382
Width: 807
GlyphClass: 2
Flags: W
LayerCount: 2
Fore
SplineSet
550 965 m 0,0,1
 581 965 581 965 615 962.5 c 128,-1,2
 649 960 649 960 682.5 955.5 c 128,-1,3
 716 951 716 951 747.5 944.5 c 128,-1,4
 779 938 779 938 805 929 c 1,5,-1
 769 733 l 1,6,-1
 721 733 l 1,7,-1
 692 848 l 1,8,9
 672 863 672 863 630.5 875 c 128,-1,10
 589 887 589 887 544 887 c 0,11,12
 497 887 497 887 458 874 c 128,-1,13
 419 861 419 861 391 836.5 c 128,-1,14
 363 812 363 812 347.5 776 c 128,-1,15
 332 740 332 740 332 695 c 0,16,17
 332 663 332 663 341 637 c 128,-1,18
 350 611 350 611 363.5 591.5 c 128,-1,19
 377 572 377 572 392.5 559 c 128,-1,20
 408 546 408 546 422 541 c 1,21,22
 442 544 442 544 468.5 547 c 128,-1,23
 495 550 495 550 521 553 c 128,-1,24
 547 556 547 556 568.5 557.5 c 128,-1,25
 590 559 590 559 599 559 c 2,26,-1
 650 559 l 1,27,-1
 634 456 l 1,28,-1
 582 456 l 2,29,30
 573 456 573 456 550 457 c 128,-1,31
 527 458 527 458 498.5 460 c 128,-1,32
 470 462 470 462 440 464.5 c 128,-1,33
 410 467 410 467 385 469 c 1,34,35
 361 462 361 462 332.5 448 c 128,-1,36
 304 434 304 434 279 409 c 128,-1,37
 254 384 254 384 237 346 c 128,-1,38
 220 308 220 308 220 254 c 0,39,40
 220 170 220 170 269 127 c 128,-1,41
 318 84 318 84 405 84 c 0,42,43
 490 84 490 84 564 112 c 128,-1,44
 638 140 638 140 695 180 c 1,45,-1
 727 132 l 1,46,47
 694 102 694 102 655 74.5 c 128,-1,48
 616 47 616 47 570 26 c 128,-1,49
 524 5 524 5 470 -7.5 c 128,-1,50
 416 -20 416 -20 353 -20 c 0,51,52
 275 -20 275 -20 217 -1.5 c 128,-1,53
 159 17 159 17 120.5 51 c 128,-1,54
 82 85 82 85 63 132.5 c 128,-1,55
 44 180 44 180 44 239 c 0,56,57
 44 304 44 304 69 351 c 128,-1,58
 94 398 94 398 132 430 c 128,-1,59
 170 462 170 462 216.5 480.5 c 128,-1,60
 263 499 263 499 307 506 c 1,61,-1
 309 513 l 1,62,63
 279 525 279 525 252.5 544.5 c 128,-1,64
 226 564 226 564 206.5 590 c 128,-1,65
 187 616 187 616 176 647.5 c 128,-1,66
 165 679 165 679 165 715 c 0,67,68
 165 788 165 788 201 836 c 128,-1,69
 237 884 237 884 293 912.5 c 128,-1,70
 349 941 349 941 417 953 c 128,-1,71
 485 965 485 965 550 965 c 0,0,1
EndSplineSet
EndChar

StartChar: zeta
Encoding: 950 950 383
Width: 829
GlyphClass: 2
Flags: W
LayerCount: 2
Fore
SplineSet
382 14 m 0,0,1
 215 48 215 48 140.5 124.5 c 128,-1,2
 66 201 66 201 66 320 c 0,3,4
 66 391 66 391 85.5 458.5 c 128,-1,5
 105 526 105 526 138 592 c 0,6,7
 189 694 189 694 266 793 c 128,-1,8
 343 892 343 892 434 986.5 c 128,-1,9
 525 1081 525 1081 624 1169 c 128,-1,10
 723 1257 723 1257 818 1337 c 1,11,-1
 818 1344 l 1,12,-1
 263 1263 l 1,13,-1
 263 1377 l 1,14,15
 357 1383 357 1383 452 1389.5 c 128,-1,16
 547 1396 547 1396 634.5 1403.5 c 128,-1,17
 722 1411 722 1411 797.5 1418.5 c 128,-1,18
 873 1426 873 1426 929 1434 c 1,19,-1
 944 1364 l 1,20,21
 837 1259 837 1259 738.5 1158.5 c 128,-1,22
 640 1058 640 1058 557 959.5 c 128,-1,23
 474 861 474 861 409 763 c 128,-1,24
 344 665 344 665 305 564 c 0,25,26
 285 514 285 514 270.5 458 c 128,-1,27
 256 402 256 402 256 348 c 0,28,29
 256 301 256 301 273 267.5 c 128,-1,30
 290 234 290 234 322 209.5 c 128,-1,31
 354 185 354 185 400 168 c 128,-1,32
 446 151 446 151 505 136 c 0,33,34
 609 110 609 110 661.5 64.5 c 128,-1,35
 714 19 714 19 714 -53 c 0,36,37
 714 -110 714 -110 692.5 -155.5 c 128,-1,38
 671 -201 671 -201 630.5 -237 c 128,-1,39
 590 -273 590 -273 533 -301 c 128,-1,40
 476 -329 476 -329 404 -352 c 1,41,-1
 382 -297 l 1,42,43
 421 -282 421 -282 454.5 -264 c 128,-1,44
 488 -246 488 -246 512.5 -223 c 128,-1,45
 537 -200 537 -200 551 -173 c 128,-1,46
 565 -146 565 -146 565 -113 c 0,47,48
 565 -62 565 -62 519 -33 c 128,-1,49
 473 -4 473 -4 382 14 c 0,0,1
EndSplineSet
EndChar

StartChar: eta
Encoding: 951 951 384
Width: 1016
GlyphClass: 2
Flags: W
LayerCount: 2
Fore
SplineSet
742 582 m 2,0,1
 746 604 746 604 750 628 c 128,-1,2
 754 652 754 652 757.5 675 c 128,-1,3
 761 698 761 698 763 717 c 128,-1,4
 765 736 765 736 765 748 c 0,5,6
 765 793 765 793 738.5 821 c 128,-1,7
 712 849 712 849 660 849 c 0,8,9
 618 849 618 849 573 829.5 c 128,-1,10
 528 810 528 810 486 779 c 128,-1,11
 444 748 444 748 408.5 708.5 c 128,-1,12
 373 669 373 669 349 630 c 1,13,-1
 239 0 l 1,14,-1
 73 0 l 1,15,-1
 226 871 l 1,16,-1
 108 896 l 1,17,-1
 116 941 l 1,18,-1
 394 941 l 1,19,-1
 367 749 l 1,20,21
 405 798 405 798 447.5 838 c 128,-1,22
 490 878 490 878 535 906 c 128,-1,23
 580 934 580 934 627.5 949.5 c 128,-1,24
 675 965 675 965 723 965 c 0,25,26
 769 965 769 965 807.5 953 c 128,-1,27
 846 941 846 941 873.5 915 c 128,-1,28
 901 889 901 889 916 849 c 128,-1,29
 931 809 931 809 931 754 c 0,30,31
 931 742 931 742 928.5 721.5 c 128,-1,32
 926 701 926 701 922 677 c 128,-1,33
 918 653 918 653 914 627.5 c 128,-1,34
 910 602 910 602 906 580 c 2,35,-1
 818 69 l 2,36,37
 806 -2 806 -2 798.5 -75.5 c 128,-1,38
 791 -149 791 -149 786.5 -212.5 c 128,-1,39
 782 -276 782 -276 780.5 -324.5 c 128,-1,40
 779 -373 779 -373 779 -392 c 1,41,-1
 771 -437 l 1,42,-1
 596 -437 l 1,43,44
 596 -388 596 -388 600 -329.5 c 128,-1,45
 604 -271 604 -271 611.5 -207 c 128,-1,46
 619 -143 619 -143 628.5 -76 c 128,-1,47
 638 -9 638 -9 650 57 c 2,48,-1
 742 582 l 2,0,1
EndSplineSet
EndChar

StartChar: theta
Encoding: 952 952 385
Width: 1006
GlyphClass: 2
Flags: W
LayerCount: 2
Fore
SplineSet
639 1432 m 0,0,1
 717 1432 717 1432 777 1400.5 c 128,-1,2
 837 1369 837 1369 877 1309 c 128,-1,3
 917 1249 917 1249 937.5 1161.5 c 128,-1,4
 958 1074 958 1074 958 962 c 0,5,6
 958 833 958 833 929 670 c 0,7,8
 867 317 867 317 733.5 148.5 c 128,-1,9
 600 -20 600 -20 400 -20 c 0,10,11
 324 -20 324 -20 267.5 10.5 c 128,-1,12
 211 41 211 41 174 99.5 c 128,-1,13
 137 158 137 158 118.5 242 c 128,-1,14
 100 326 100 326 100 433 c 0,15,16
 100 504 100 504 107.5 583 c 128,-1,17
 115 662 115 662 131 750 c 0,18,19
 193 1101 193 1101 321.5 1266.5 c 128,-1,20
 450 1432 450 1432 639 1432 c 0,0,1
632 1352 m 0,21,22
 566 1352 566 1352 518.5 1312 c 128,-1,23
 471 1272 471 1272 434.5 1195 c 128,-1,24
 398 1118 398 1118 370.5 1006 c 128,-1,25
 343 894 343 894 318 750 c 1,26,-1
 755 750 l 1,27,28
 769 840 769 840 777 919.5 c 128,-1,29
 785 999 785 999 785 1067 c 0,30,31
 785 1133 785 1133 776.5 1186 c 128,-1,32
 768 1239 768 1239 750 1275.5 c 128,-1,33
 732 1312 732 1312 703 1332 c 128,-1,34
 674 1352 674 1352 632 1352 c 0,21,22
303 662 m 1,35,36
 287 565 287 565 278 478.5 c 128,-1,37
 269 392 269 392 269 319 c 0,38,39
 269 260 269 260 276 212 c 128,-1,40
 283 164 283 164 299 130 c 128,-1,41
 315 96 315 96 341 77.5 c 128,-1,42
 367 59 367 59 404 59 c 0,43,44
 469 59 469 59 520.5 100 c 128,-1,45
 572 141 572 141 612.5 218.5 c 128,-1,46
 653 296 653 296 684 408 c 128,-1,47
 715 520 715 520 740 662 c 1,48,-1
 303 662 l 1,35,36
EndSplineSet
EndChar

StartChar: iota
Encoding: 953 953 386
Width: 569
GlyphClass: 2
Flags: W
LayerCount: 2
Fore
SplineSet
316 307 m 2,0,1
 309 271 309 271 303.5 233.5 c 128,-1,2
 298 196 298 196 298 174 c 0,3,4
 298 129 298 129 316.5 106.5 c 128,-1,5
 335 84 335 84 364 84 c 0,6,7
 399 84 399 84 428.5 92 c 128,-1,8
 458 100 458 100 488 114 c 1,9,-1
 509 67 l 1,10,11
 462 31 462 31 407.5 5.5 c 128,-1,12
 353 -20 353 -20 284 -20 c 0,13,14
 246 -20 246 -20 217.5 -6.5 c 128,-1,15
 189 7 189 7 170 31 c 128,-1,16
 151 55 151 55 141.5 88.5 c 128,-1,17
 132 122 132 122 132 162 c 0,18,19
 132 191 132 191 137 228 c 128,-1,20
 142 265 142 265 148 299 c 2,21,-1
 250 870 l 1,22,-1
 121 895 l 1,23,-1
 129 940 l 1,24,-1
 428 940 l 1,25,-1
 316 307 l 2,0,1
EndSplineSet
EndChar

